<svg width="210mm" height="297mm" version="1.1" viewBox="0 0 210 297" xmlns="http://www.w3.org/2000/svg">
 <g>
  <path d="m46.457 101.55h125.05v67.443h-125.05z" fill="#e6ded6" stroke="#363636" stroke-width=".951"/>
  <path d="m46.631 101.6h124.58v13.373h-124.58z" fill="#0c0d21" stroke="#363636" stroke-width=".42268"/>
  <g fill="#e2e1d7" stroke-width=".26458" aria-label="PODLAŽÍ 1 FLOOR">
   <path d="m138.38 104.36v1.063h0.48128q0.26716 0 0.41306-0.13832t0.1459-0.39412q0-0.2539-0.1459-0.39222-0.1459-0.13833-0.41306-0.13833zm-0.38275-0.31453h0.86403q0.47559 0 0.71813 0.21601 0.24443 0.21411 0.24443 0.62907 0 0.41875-0.24443 0.63286-0.24254 0.21412-0.71813 0.21412h-0.48128v1.1369h-0.38275z"/>
   <path d="m141.49 104.31q-0.41685 0-0.66318 0.31074-0.24443 0.31075-0.24443 0.84698 0 0.53433 0.24443 0.84508 0.24633 0.31075 0.66318 0.31075 0.41686 0 0.65939-0.31075 0.24443-0.31075 0.24443-0.84508 0-0.53623-0.24443-0.84698-0.24253-0.31074-0.65939-0.31074zm0-0.31075q0.59497 0 0.95119 0.3998 0.35623 0.39791 0.35623 1.0687 0 0.66887-0.35623 1.0687-0.35622 0.39791-0.95119 0.39791-0.59686 0-0.95498-0.39791-0.35622-0.39791-0.35622-1.0687t0.35622-1.0687q0.35812-0.3998 0.95498-0.3998z"/>
   <path d="m143.78 104.36v2.1999h0.46234q0.58549 0 0.85645-0.26527 0.27285-0.26527 0.27285-0.8375 0-0.56845-0.27285-0.83182-0.27096-0.26528-0.85645-0.26528zm-0.38275-0.31453h0.78635q0.82234 0 1.207 0.34296 0.38464 0.34106 0.38464 1.0687 0 0.73139-0.38654 1.0744t-1.2051 0.34296h-0.78635z"/>
   <path d="m146.38 104.05h0.38275v2.5068h1.3775v0.32212h-1.7603z"/>
   <path d="m149.58 104.43-0.51917 1.4078h1.0402zm-0.216-0.37706h0.43391l1.0781 2.8289h-0.39791l-0.25769-0.72571h-1.2752l-0.2577 0.72571h-0.40359z"/>
   <path d="m151.12 104.05h2.2226v0.2918l-1.7887 2.215h1.8323v0.32212h-2.3098v-0.2918l1.7887-2.215h-1.7451zm0.93414-0.26906-0.39981-0.50402h0.26338l0.31454 0.33727 0.31454-0.33727h0.26337l-0.3998 0.50402z"/>
   <path d="m153.95 104.05h0.38275v2.8289h-0.38275zm0.29749-0.76929h0.35054l-0.43202 0.50023h-0.2899z"/>
   <path d="m138.1 111.91h0.62529v-2.1582l-0.68024 0.13643v-0.34864l0.67645-0.13643h0.38275v2.5068h0.62528v0.32212h-1.6295z"/>
   <path d="m141.71 109.41h1.6257v0.32212h-1.243v0.83371h1.1217v0.32212h-1.1217v1.351h-0.38275z"/>
   <path d="m143.94 109.41h0.38275v2.5068h1.3775v0.32212h-1.7603z"/>
   <path d="m147.11 109.67q-0.41686 0-0.66318 0.31075-0.24443 0.31074-0.24443 0.84697 0 0.53434 0.24443 0.84509 0.24632 0.31074 0.66318 0.31074 0.41685 0 0.65939-0.31074 0.24443-0.31075 0.24443-0.84509 0-0.53623-0.24443-0.84697-0.24254-0.31075-0.65939-0.31075zm0-0.31075q0.59496 0 0.95119 0.3998 0.35622 0.39791 0.35622 1.0687 0 0.66887-0.35622 1.0687-0.35623 0.39791-0.95119 0.39791-0.59687 0-0.95498-0.39791-0.35623-0.39791-0.35623-1.0687t0.35623-1.0687q0.35811-0.3998 0.95498-0.3998z"/>
   <path d="m150.17 109.67q-0.41686 0-0.66318 0.31075-0.24443 0.31074-0.24443 0.84697 0 0.53434 0.24443 0.84509 0.24632 0.31074 0.66318 0.31074 0.41685 0 0.65939-0.31074 0.24443-0.31075 0.24443-0.84509 0-0.53623-0.24443-0.84697-0.24254-0.31075-0.65939-0.31075zm0-0.31075q0.59497 0 0.95119 0.3998 0.35622 0.39791 0.35622 1.0687 0 0.66887-0.35622 1.0687-0.35622 0.39791-0.95119 0.39791-0.59686 0-0.95498-0.39791-0.35622-0.39791-0.35622-1.0687t0.35622-1.0687q0.35812-0.3998 0.95498-0.3998z"/>
   <path d="m153.42 110.91q0.12316 0.0417 0.23874 0.17811 0.11748 0.13643 0.23496 0.37517l0.38843 0.77308h-0.41117l-0.3619-0.72571q-0.14022-0.28422-0.27286-0.37706-0.13074-0.0929-0.35811-0.0929h-0.41686v1.1956h-0.38275v-2.8289h0.86403q0.48507 0 0.72381 0.20274 0.23875 0.20275 0.23875 0.61203 0 0.26716-0.12506 0.44338-0.12316 0.17622-0.36001 0.24443zm-0.95877-1.188v1.0042h0.48128q0.27664 0 0.41686-0.12695 0.14211-0.12884 0.14211-0.37706t-0.14211-0.37328q-0.14022-0.12695-0.41686-0.12695z"/>
  </g>
  <g fill="#e6ded6">
   <g aria-label="A">
    <path d="m162.92 110.67h-3.7331l-0.58911 1.6867h-2.3998l3.4292-9.2584h2.8463l3.4292 9.2584h-2.3998zm-3.1378-1.7177h2.5363l-1.265-3.6835z" fill="#e6ded6" stroke-width=".26458"/>
   </g>
   <g stroke="#363636">
    <g stroke-width=".42292">
     <path d="m46.581 115.38h124.58v13.389h-124.58z"/>
     <path d="m46.581 128.77h124.58v13.389h-124.58z"/>
     <path d="m46.581 142.16h124.58v13.389h-124.58z"/>
    </g>
    <path d="m46.581 155.57h124.58v13.373h-124.58z" stroke-width=".42268"/>
   </g>
  </g>
  <g stroke-width=".26458">
   <g aria-label="↑  2. PODLAŽÍ       STUDIJNÍ ODDĚLENÍ FM, UČEBNA A202      2. FLOOR                STUDENT AFFAIRS, CLASSROOM A202">
    <g stroke-width=".26458">
     <path d="m49.561 131.33h0.17053l0.74276 0.74655-0.22738 0.22738-0.43959-0.44338v2.3117h-0.32212v-2.3117l-0.44338 0.44338-0.22738-0.22738z"/>
     <path d="m54.488 133.85h1.3358v0.32212h-1.7963v-0.32212q0.2179-0.22548 0.59307-0.60444 0.37707-0.38086 0.4737-0.49076 0.1838-0.20653 0.2558-0.34864 0.0739-0.14401 0.0739-0.28233 0-0.22548-0.15916-0.36759-0.15727-0.14211-0.41117-0.14211-0.18001 0-0.38086 0.0625-0.19895 0.0625-0.42633 0.18948v-0.38654q0.23117-0.0928 0.43202-0.14021 0.20085-0.0474 0.36759-0.0474 0.43959 0 0.70108 0.21979 0.26148 0.2198 0.26148 0.58739 0 0.17432-0.06632 0.33159-0.06442 0.15538-0.23685 0.36759-0.04737 0.055-0.30127 0.31833-0.2539 0.26148-0.71624 0.73329z"/>
     <path d="m56.629 133.69h0.3998v0.48128h-0.3998z"/>
     <path d="m59.448 131.66v1.063h0.48128q0.26717 0 0.41307-0.13832t0.1459-0.39412q0-0.25391-0.1459-0.39223t-0.41307-0.13832zm-0.38275-0.31453h0.86403q0.4756 0 0.71813 0.216 0.24443 0.21412 0.24443 0.62908 0 0.41875-0.24443 0.63286-0.24253 0.21411-0.71813 0.21411h-0.48128v1.1369h-0.38275z"/>
     <path d="m62.556 131.6q-0.41686 0-0.66318 0.31075-0.24443 0.31075-0.24443 0.84698 0 0.53433 0.24443 0.84508 0.24632 0.31075 0.66318 0.31075 0.41686 0 0.65939-0.31075 0.24443-0.31075 0.24443-0.84508 0-0.53623-0.24443-0.84698-0.24254-0.31075-0.65939-0.31075zm0-0.31074q0.59497 0 0.95119 0.3998 0.35622 0.39791 0.35622 1.0687 0 0.66886-0.35622 1.0687-0.35622 0.3979-0.95119 0.3979-0.59686 0-0.95498-0.3979-0.35622-0.39791-0.35622-1.0687t0.35622-1.0687q0.35812-0.3998 0.95498-0.3998z"/>
     <path d="m64.845 131.66v2.1999h0.46233q0.58549 0 0.85645-0.26527 0.27285-0.26528 0.27285-0.83751 0-0.56844-0.27285-0.83182-0.27096-0.26527-0.85645-0.26527zm-0.38275-0.31453h0.78634q0.82234 0 1.207 0.34295 0.38464 0.34107 0.38464 1.0687 0 0.7314-0.38654 1.0744-0.38654 0.34296-1.2051 0.34296h-0.78634z"/>
     <path d="m67.448 131.34h0.38275v2.5068h1.3775v0.32212h-1.7603z"/>
     <path d="m70.645 131.72-0.51918 1.4078h1.0402zm-0.21601-0.37706h0.43391l1.0781 2.8289h-0.39791l-0.25769-0.72571h-1.2752l-0.25769 0.72571h-0.40359z"/>
     <path d="m72.189 131.34h2.2226v0.29179l-1.7887 2.215h1.8323v0.32212h-2.3098v-0.2918l1.7887-2.215h-1.7451zm0.93414-0.26907-0.3998-0.50401h0.26338l0.31454 0.33727 0.31454-0.33727h0.26338l-0.3998 0.50401z"/>
     <path d="m75.012 131.34h0.38275v2.8289h-0.38275zm0.29748-0.76929h0.35054l-0.43202 0.50022h-0.2899z"/>
     <path d="m86.5 131.44v0.37328q-0.2179-0.10422-0.41117-0.15538-0.19327-0.0512-0.37328-0.0512-0.31264 0-0.48318 0.12127-0.16864 0.12127-0.16864 0.34485 0 0.18759 0.11179 0.28422 0.11369 0.0947 0.42822 0.15348l0.23117 0.0474q0.42823 0.0815 0.63097 0.28801 0.20464 0.20464 0.20464 0.5495 0 0.41117-0.27664 0.62339-0.27475 0.21221-0.80719 0.21221-0.20085 0-0.42822-0.0455-0.22548-0.0455-0.46802-0.13453v-0.39412q0.23306 0.13074 0.45665 0.19706 0.22359 0.0663 0.43959 0.0663 0.3278 0 0.50591-0.12885 0.17811-0.12885 0.17811-0.36759 0-0.20843-0.12885-0.32591-0.12695-0.11748-0.41875-0.17621l-0.23306-0.0455q-0.42822-0.0853-0.6196-0.26717-0.19138-0.1819-0.19138-0.50591 0-0.37517 0.26338-0.59118 0.26527-0.216 0.7295-0.216 0.19896 0 0.40549 0.036 0.20653 0.036 0.42254 0.108z"/>
     <path d="m86.876 131.34h2.3931v0.32211h-1.0042v2.5068h-0.38464v-2.5068h-1.0042z"/>
     <path d="m89.597 131.34h0.38464v1.7186q0 0.45475 0.16485 0.6556 0.16485 0.19896 0.53433 0.19896 0.36759 0 0.53244-0.19896 0.16485-0.20085 0.16485-0.6556v-1.7186h0.38464v1.766q0 0.55328-0.27475 0.83561-0.27285 0.28232-0.80719 0.28232-0.53623 0-0.81098-0.28232-0.27285-0.28233-0.27285-0.83561z"/>
     <path d="m92.865 131.66v2.1999h0.46233q0.58549 0 0.85645-0.26527 0.27285-0.26528 0.27285-0.83751 0-0.56844-0.27285-0.83182-0.27096-0.26527-0.85645-0.26527zm-0.38275-0.31453h0.78634q0.82234 0 1.207 0.34295 0.38464 0.34107 0.38464 1.0687 0 0.7314-0.38654 1.0744-0.38654 0.34296-1.2051 0.34296h-0.78634z"/>
     <path d="m95.469 131.34h0.38275v2.8289h-0.38275z"/>
     <path d="m96.613 131.34h0.38275v2.6319q0 0.51159-0.19516 0.74276-0.19327 0.23116-0.62339 0.23116h-0.1459v-0.32211h0.11937q0.2539 0 0.35812-0.14211t0.10421-0.5097z"/>
     <path d="m97.757 131.34h0.51539l1.2544 2.3666v-2.3666h0.37138v2.8289h-0.51539l-1.2544-2.3666v2.3666h-0.37138z"/>
     <path d="m100.66 131.34h0.38275v2.8289h-0.38275zm0.29749-0.76929h0.35054l-0.43202 0.50022h-0.2899z"/>
     <path d="m104.19 131.6q-0.41686 0-0.66319 0.31075-0.24442 0.31075-0.24442 0.84698 0 0.53433 0.24442 0.84508 0.24633 0.31075 0.66319 0.31075 0.41685 0 0.65939-0.31075 0.24443-0.31075 0.24443-0.84508 0-0.53623-0.24443-0.84698-0.24254-0.31075-0.65939-0.31075zm0-0.31074q0.59496 0 0.95119 0.3998 0.35622 0.39791 0.35622 1.0687 0 0.66886-0.35622 1.0687-0.35623 0.3979-0.95119 0.3979-0.59687 0-0.95498-0.3979-0.35623-0.39791-0.35623-1.0687t0.35623-1.0687q0.35811-0.3998 0.95498-0.3998z"/>
     <path d="m106.48 131.66v2.1999h0.46233q0.58549 0 0.85645-0.26527 0.27285-0.26528 0.27285-0.83751 0-0.56844-0.27285-0.83182-0.27096-0.26527-0.85645-0.26527zm-0.38275-0.31453h0.78634q0.82234 0 1.207 0.34295 0.38464 0.34107 0.38464 1.0687 0 0.7314-0.38654 1.0744t-1.2051 0.34296h-0.78634z"/>
     <path d="m109.46 131.66v2.1999h0.46233q0.58549 0 0.85645-0.26527 0.27285-0.26528 0.27285-0.83751 0-0.56844-0.27285-0.83182-0.27096-0.26527-0.85645-0.26527zm-0.38275-0.31453h0.78634q0.82234 0 1.207 0.34295 0.38464 0.34107 0.38464 1.0687 0 0.7314-0.38654 1.0744t-1.2051 0.34296h-0.78634z"/>
     <path d="m112.07 131.34h1.7887v0.32211h-1.4059v0.8375h1.3472v0.32212h-1.3472v1.0251h1.44v0.32212h-1.8228zm0.7257-0.2577-0.3998-0.50402h0.26338l0.31454 0.33728 0.31453-0.33728h0.26338l-0.3998 0.50402z"/>
     <path d="m114.52 131.34h0.38275v2.5068h1.3775v0.32212h-1.7603z"/>
     <path d="m116.68 131.34h1.7887v0.32211h-1.406v0.8375h1.3472v0.32212h-1.3472v1.0251h1.44v0.32212h-1.8228z"/>
     <path d="m119.14 131.34h0.51539l1.2544 2.3666v-2.3666h0.37139v2.8289h-0.51539l-1.2544-2.3666v2.3666h-0.37138z"/>
     <path d="m122.04 131.34h0.38275v2.8289h-0.38275zm0.29748-0.76929h0.35054l-0.43201 0.50022h-0.28991z"/>
     <path d="m124.42 131.34h1.6257v0.32211h-1.243v0.83371h1.1217v0.32212h-1.1217v1.351h-0.38275z"/>
     <path d="m126.66 131.34h0.57033l0.72192 1.9251 0.72571-1.9251h0.57034v2.8289h-0.37328v-2.4841l-0.7295 1.9403h-0.38464l-0.7295-1.9403v2.4841h-0.37138z"/>
     <path d="m130.08 133.69h0.3998v0.3259l-0.31074 0.60634h-0.24443l0.15537-0.60634z"/>
     <path d="m132.43 131.34h0.38464v1.7186q0 0.45475 0.16485 0.6556 0.16485 0.19896 0.53433 0.19896 0.3676 0 0.53244-0.19896 0.16485-0.20085 0.16485-0.6556v-1.7186h0.38465v1.766q0 0.55328-0.27475 0.83561-0.27285 0.28232-0.80719 0.28232-0.53622 0-0.81097-0.28232-0.27285-0.28233-0.27285-0.83561z"/>
     <path d="m137.44 131.56v0.40359q-0.19327-0.18001-0.41307-0.26906-0.2179-0.0891-0.46423-0.0891-0.48506 0-0.74276 0.29749-0.25769 0.29559-0.25769 0.85645 0 0.55896 0.25769 0.85645 0.2577 0.29559 0.74276 0.29559 0.24633 0 0.46423-0.0891 0.2198-0.089 0.41307-0.26906v0.3998q-0.20085 0.13643-0.42633 0.20464-0.22359 0.0682-0.4737 0.0682-0.64234 0-1.0118-0.39222-0.36948-0.39412-0.36948-1.0744 0-0.68213 0.36948-1.0744 0.36949-0.39411 1.0118-0.39411 0.2539 0 0.47749 0.0682 0.22548 0.0663 0.42254 0.20085zm-1.1369-0.48697-0.39981-0.50401h0.26338l0.31454 0.33727 0.31454-0.33727h0.26337l-0.3998 0.50401z"/>
     <path d="m138.03 131.34h1.7887v0.32211h-1.406v0.8375h1.3472v0.32212h-1.3472v1.0251h1.44v0.32212h-1.8228z"/>
     <path d="m140.87 132.82v1.0365h0.61392q0.30885 0 0.45664-0.12695 0.14969-0.12885 0.14969-0.39223 0-0.26527-0.14969-0.39033-0.14779-0.12695-0.45664-0.12695zm0-1.1634v0.85266h0.56655q0.28043 0 0.41685-0.10421 0.13832-0.10611 0.13832-0.32212 0-0.21411-0.13832-0.32022-0.13642-0.10611-0.41685-0.10611zm-0.38275-0.31453h0.97772q0.4377 0 0.67455 0.1819t0.23685 0.51728q0 0.25959-0.12127 0.41306-0.12127 0.15348-0.35622 0.19138 0.28232 0.0606 0.4377 0.2539 0.15727 0.19138 0.15727 0.47939 0 0.37896-0.2577 0.58549-0.25769 0.20654-0.73329 0.20654h-1.0156z"/>
     <path d="m143.15 131.34h0.51539l1.2544 2.3666v-2.3666h0.37138v2.8289h-0.51539l-1.2544-2.3666v2.3666h-0.37138z"/>
     <path d="m147 131.72-0.51918 1.4078h1.0402zm-0.21601-0.37706h0.43391l1.0781 2.8289h-0.39791l-0.25769-0.72571h-1.2752l-0.25769 0.72571h-0.4036z"/>
     <path d="m150.89 131.72-0.51918 1.4078h1.0402zm-0.21601-0.37706h0.43391l1.0781 2.8289h-0.39791l-0.25769-0.72571h-1.2752l-0.2577 0.72571h-0.40359z"/>
     <path d="m152.96 133.85h1.3358v0.32212h-1.7963v-0.32212q0.2179-0.22548 0.59307-0.60444 0.37707-0.38086 0.4737-0.49076 0.1838-0.20653 0.2558-0.34864 0.0739-0.14401 0.0739-0.28233 0-0.22548-0.15916-0.36759-0.15727-0.14211-0.41118-0.14211-0.18 0-0.38085 0.0625-0.19896 0.0625-0.42633 0.18948v-0.38654q0.23116-0.0928 0.43201-0.14021 0.20085-0.0474 0.36759-0.0474 0.4396 0 0.70108 0.21979 0.26148 0.2198 0.26148 0.58739 0 0.17432-0.0663 0.33159-0.0644 0.15538-0.23685 0.36759-0.0474 0.055-0.30128 0.31833-0.2539 0.26148-0.71623 0.73329z"/>
     <path d="m155.92 131.6q-0.29559 0-0.44528 0.2918-0.14779 0.28991-0.14779 0.87351 0 0.5817 0.14779 0.8735 0.14969 0.28991 0.44528 0.28991 0.29749 0 0.44528-0.28991 0.14969-0.2918 0.14969-0.8735 0-0.5836-0.14969-0.87351-0.14779-0.2918-0.44528-0.2918zm0-0.30316q0.4756 0 0.72571 0.37706 0.25201 0.37517 0.25201 1.0914 0 0.71434-0.25201 1.0914-0.25011 0.37517-0.72571 0.37517-0.47559 0-0.7276-0.37517-0.25011-0.37706-0.25011-1.0914 0-0.71624 0.25011-1.0914 0.25201-0.37706 0.7276-0.37706z"/>
     <path d="m157.9 133.85h1.3358v0.32212h-1.7963v-0.32212q0.2179-0.22548 0.59308-0.60444 0.37706-0.38086 0.4737-0.49076 0.18379-0.20653 0.25579-0.34864 0.0739-0.14401 0.0739-0.28233 0-0.22548-0.15916-0.36759-0.15727-0.14211-0.41117-0.14211-0.18001 0-0.38086 0.0625-0.19895 0.0625-0.42633 0.18948v-0.38654q0.23117-0.0928 0.43202-0.14021 0.20084-0.0474 0.36759-0.0474 0.43959 0 0.70107 0.21979 0.26149 0.2198 0.26149 0.58739 0 0.17432-0.0663 0.33159-0.0644 0.15538-0.23685 0.36759-0.0474 0.055-0.30128 0.31833-0.2539 0.26148-0.71623 0.73329z"/>
    </g>
    <g fill="#162d50">
     <path d="m54.807 139.27h1.093v0.26355h-1.4697v-0.26355q0.17828-0.18449 0.48524-0.49454 0.30851-0.31161 0.38757-0.40153 0.15038-0.16898 0.20929-0.28525 0.06046-0.11783 0.06046-0.231 0-0.18448-0.13022-0.30075-0.12868-0.11628-0.33641-0.11628-0.14728 0-0.31161 0.0512-0.16278 0.0512-0.34882 0.15503v-0.31626q0.18914-0.076 0.35347-0.11472 0.16433-0.0388 0.30076-0.0388 0.35967 0 0.57361 0.17984 0.21394 0.17983 0.21394 0.48059 0 0.14263-0.05426 0.2713-0.05271 0.12712-0.19379 0.30076-0.03876 0.045-0.2465 0.26045-0.20774 0.21394-0.58601 0.59996z"/>
     <path d="m56.559 139.14h0.32711v0.39378h-0.32711z"/>
     <path d="m58.553 137.22h1.3302v0.26355h-1.017v0.68213h0.91777v0.26355h-0.91777v1.1054h-0.31316z"/>
     <path d="m60.382 137.22h0.31316v2.051h1.1271v0.26355h-1.4402z"/>
     <path d="m62.977 137.43q-0.34106 0-0.5426 0.25425-0.19999 0.25425-0.19999 0.69298 0 0.43718 0.19999 0.69143 0.20154 0.25425 0.5426 0.25425 0.34106 0 0.5395-0.25425 0.19999-0.25425 0.19999-0.69143 0-0.43873-0.19999-0.69298-0.19844-0.25425-0.5395-0.25425zm0-0.25425q0.48679 0 0.77825 0.32712 0.29146 0.32556 0.29146 0.87436 0 0.54725-0.29146 0.87437-0.29146 0.32556-0.77825 0.32556-0.48834 0-0.78135-0.32556-0.29146-0.32557-0.29146-0.87437t0.29146-0.87436q0.29301-0.32712 0.78135-0.32712z"/>
     <path d="m65.476 137.43q-0.34106 0-0.5426 0.25425-0.19999 0.25425-0.19999 0.69298 0 0.43718 0.19999 0.69143 0.20154 0.25425 0.5426 0.25425 0.34106 0 0.5395-0.25425 0.19999-0.25425 0.19999-0.69143 0-0.43873-0.19999-0.69298-0.19844-0.25425-0.5395-0.25425zm0-0.25425q0.48679 0 0.77825 0.32712 0.29146 0.32556 0.29146 0.87436 0 0.54725-0.29146 0.87437-0.29146 0.32556-0.77825 0.32556-0.48834 0-0.78135-0.32556-0.29146-0.32557-0.29146-0.87437t0.29146-0.87436q0.29301-0.32712 0.78135-0.32712z"/>
     <path d="m68.133 138.44q0.10077 0.0341 0.19534 0.14573 0.09612 0.11162 0.19224 0.30696l0.31781 0.63252h-0.33641l-0.29611-0.59376q-0.11472-0.23255-0.22324-0.30851-0.10697-0.076-0.293-0.076h-0.34106v0.97824h-0.31316v-2.3146h0.70693q0.39688 0 0.59221 0.16588t0.19534 0.50075q0 0.21859-0.10232 0.36277-0.10077 0.14417-0.29456 0.19998zm-0.78445-0.97203v0.82166h0.39377q0.22634 0 0.34106-0.10387 0.11627-0.10542 0.11627-0.30851t-0.11627-0.30541q-0.11472-0.10387-0.34106-0.10387z"/>
     <path d="m86.804 137.29v0.3054q-0.17828-0.0853-0.33641-0.12712-0.15813-0.0419-0.30541-0.0419-0.2558 0-0.39532 0.0992-0.13798 0.0992-0.13798 0.28215 0 0.15348 0.09147 0.23255 0.09302 0.0775 0.35037 0.12557l0.18914 0.0388q0.35037 0.0667 0.51625 0.23564 0.16743 0.16743 0.16743 0.44959 0 0.33641-0.22634 0.51004-0.22479 0.17364-0.66042 0.17364-0.16433 0-0.35037-0.0372-0.18448-0.0372-0.38292-0.11007v-0.32246q0.19069 0.10697 0.37362 0.16123 0.18294 0.0543 0.35967 0.0543 0.2682 0 0.41393-0.10542 0.14573-0.10542 0.14573-0.30076 0-0.17053-0.10542-0.26665-0.10387-0.0961-0.34262-0.14418l-0.19069-0.0372q-0.35037-0.0698-0.50694-0.21859-0.15658-0.14883-0.15658-0.41393 0-0.30696 0.21549-0.48369 0.21704-0.17674 0.59686-0.17674 0.16278 0 0.33176 0.0295 0.16898 0.0294 0.34572 0.0884z"/>
     <path d="m87.111 137.22h1.958v0.26355h-0.82166v2.051h-0.31471v-2.051h-0.82166z"/>
     <path d="m89.337 137.22h0.31471v1.4061q0 0.37207 0.13488 0.5364 0.13488 0.16278 0.43718 0.16278 0.30076 0 0.43563-0.16278 0.13488-0.16433 0.13488-0.5364v-1.4061h0.31471v1.4449q0 0.45269-0.22479 0.68368-0.22324 0.231-0.66042 0.231-0.43873 0-0.66353-0.231-0.22324-0.23099-0.22324-0.68368z"/>
     <path d="m92.011 137.47v1.7999h0.37827q0.47904 0 0.70073-0.21704 0.22324-0.21704 0.22324-0.68523 0-0.46509-0.22324-0.68058-0.22169-0.21704-0.70073-0.21704zm-0.31316-0.25735h0.64337q0.67283 0 0.98754 0.2806 0.31471 0.27906 0.31471 0.87437 0 0.59841-0.31626 0.87902-0.31626 0.2806-0.98599 0.2806h-0.64337z"/>
     <path d="m94.141 137.22h1.4635v0.26355h-1.1503v0.68523h1.1023v0.26355h-1.1023v0.83871h1.1782v0.26355h-1.4914z"/>
     <path d="m96.15 137.22h0.42168l1.0263 1.9363v-1.9363h0.30386v2.3146h-0.42168l-1.0263-1.9363v1.9363h-0.30386z"/>
     <path d="m98.204 137.22h1.958v0.26355h-0.82166v2.051h-0.31471v-2.051h-0.82166z"/>
     <path d="m102.25 137.52-0.42478 1.1519h0.85111zm-0.17674-0.30851h0.35502l0.88212 2.3146h-0.32556l-0.21084-0.59376h-1.0434l-0.21084 0.59376h-0.33021z"/>
     <path d="m103.65 137.22h1.3302v0.26355h-1.017v0.68213h0.91777v0.26355h-0.91777v1.1054h-0.31316z"/>
     <path d="m105.48 137.22h1.3302v0.26355h-1.017v0.68213h0.91777v0.26355h-0.91777v1.1054h-0.31316z"/>
     <path d="m107.79 137.52-0.42478 1.1519h0.85112zm-0.17673-0.30851h0.35502l0.88212 2.3146h-0.32557l-0.21084-0.59376h-1.0433l-0.21084 0.59376h-0.33022z"/>
     <path d="m109.19 137.22h0.31316v2.3146h-0.31316z"/>
     <path d="m111.22 138.44q0.10077 0.0341 0.19534 0.14573 0.0961 0.11162 0.19224 0.30696l0.31781 0.63252h-0.33642l-0.2961-0.59376q-0.11472-0.23255-0.22324-0.30851-0.10697-0.076-0.29301-0.076h-0.34106v0.97824h-0.31316v-2.3146h0.70693q0.39688 0 0.59221 0.16588 0.19534 0.16588 0.19534 0.50075 0 0.21859-0.10232 0.36277-0.10077 0.14417-0.29456 0.19998zm-0.78444-0.97203v0.82166h0.39377q0.22634 0 0.34107-0.10387 0.11627-0.10542 0.11627-0.30851t-0.11627-0.30541q-0.11473-0.10387-0.34107-0.10387z"/>
     <path d="m113.72 137.29v0.3054q-0.17828-0.0853-0.33641-0.12712-0.15813-0.0419-0.30541-0.0419-0.2558 0-0.39532 0.0992-0.13798 0.0992-0.13798 0.28215 0 0.15348 0.0915 0.23255 0.093 0.0775 0.35037 0.12557l0.18913 0.0388q0.35037 0.0667 0.51625 0.23564 0.16743 0.16743 0.16743 0.44959 0 0.33641-0.22634 0.51004-0.22479 0.17364-0.66043 0.17364-0.16433 0-0.35036-0.0372-0.18449-0.0372-0.38293-0.11007v-0.32246q0.19069 0.10697 0.37363 0.16123 0.18293 0.0543 0.35966 0.0543 0.2682 0 0.41393-0.10542t0.14573-0.30076q0-0.17053-0.10542-0.26665-0.10387-0.0961-0.34262-0.14418l-0.19068-0.0372q-0.35037-0.0698-0.50695-0.21859-0.15658-0.14883-0.15658-0.41393 0-0.30696 0.21549-0.48369 0.21704-0.17674 0.59687-0.17674 0.16278 0 0.33176 0.0295 0.16898 0.0294 0.34571 0.0884z"/>
     <path d="m114.41 139.14h0.32712v0.26665l-0.25425 0.4961h-0.19999l0.12712-0.4961z"/>
     <path d="m118.1 137.39v0.33022q-0.15813-0.14728-0.33796-0.22014-0.17828-0.0729-0.37982-0.0729-0.39688 0-0.60772 0.2434-0.21084 0.24184-0.21084 0.70073 0 0.45734 0.21084 0.70073 0.21084 0.24185 0.60772 0.24185 0.20154 0 0.37982-0.0729 0.17983-0.0729 0.33796-0.22014v0.32711q-0.16433 0.11163-0.34881 0.16744-0.18294 0.0558-0.38757 0.0558-0.52555 0-0.82786-0.32091-0.30231-0.32246-0.30231-0.87902 0-0.55811 0.30231-0.87902 0.30231-0.32246 0.82786-0.32246 0.20773 0 0.39067 0.0558 0.18448 0.0543 0.34571 0.16433z"/>
     <path d="m118.59 137.22h0.31316v2.051h1.1271v0.26355h-1.4402z"/>
     <path d="m121.2 137.52-0.42478 1.1519h0.85111zm-0.17673-0.30851h0.35501l0.88212 2.3146h-0.32556l-0.21084-0.59376h-1.0434l-0.21084 0.59376h-0.33021z"/>
     <path d="m123.99 137.29v0.3054q-0.17829-0.0853-0.33642-0.12712-0.15813-0.0419-0.3054-0.0419-0.2558 0-0.39533 0.0992-0.13798 0.0992-0.13798 0.28215 0 0.15348 0.0915 0.23255 0.093 0.0775 0.35037 0.12557l0.18913 0.0388q0.35037 0.0667 0.51625 0.23564 0.16743 0.16743 0.16743 0.44959 0 0.33641-0.22634 0.51004-0.22479 0.17364-0.66042 0.17364-0.16434 0-0.35037-0.0372-0.18449-0.0372-0.38292-0.11007v-0.32246q0.19068 0.10697 0.37362 0.16123 0.18293 0.0543 0.35967 0.0543 0.2682 0 0.41392-0.10542 0.14573-0.10542 0.14573-0.30076 0-0.17053-0.10542-0.26665-0.10387-0.0961-0.34261-0.14418l-0.19069-0.0372q-0.35037-0.0698-0.50695-0.21859-0.15657-0.14883-0.15657-0.41393 0-0.30696 0.21549-0.48369 0.21704-0.17674 0.59686-0.17674 0.16278 0 0.33176 0.0295 0.16898 0.0294 0.34572 0.0884z"/>
     <path d="m126 137.29v0.3054q-0.17829-0.0853-0.33642-0.12712-0.15813-0.0419-0.3054-0.0419-0.2558 0-0.39533 0.0992-0.13797 0.0992-0.13797 0.28215 0 0.15348 0.0915 0.23255 0.093 0.0775 0.35037 0.12557l0.18913 0.0388q0.35037 0.0667 0.51625 0.23564 0.16743 0.16743 0.16743 0.44959 0 0.33641-0.22634 0.51004-0.22479 0.17364-0.66042 0.17364-0.16433 0-0.35037-0.0372-0.18448-0.0372-0.38292-0.11007v-0.32246q0.19068 0.10697 0.37362 0.16123 0.18293 0.0543 0.35967 0.0543 0.2682 0 0.41392-0.10542 0.14573-0.10542 0.14573-0.30076 0-0.17053-0.10542-0.26665-0.10387-0.0961-0.34261-0.14418l-0.19069-0.0372q-0.35036-0.0698-0.50694-0.21859-0.15658-0.14883-0.15658-0.41393 0-0.30696 0.21549-0.48369 0.21704-0.17674 0.59686-0.17674 0.16278 0 0.33176 0.0295 0.16898 0.0294 0.34572 0.0884z"/>
     <path d="m127.73 138.44q0.10077 0.0341 0.19534 0.14573 0.0961 0.11162 0.19224 0.30696l0.31781 0.63252h-0.33642l-0.2961-0.59376q-0.11472-0.23255-0.22324-0.30851-0.10698-0.076-0.29301-0.076h-0.34106v0.97824h-0.31316v-2.3146h0.70693q0.39687 0 0.59221 0.16588t0.19534 0.50075q0 0.21859-0.10232 0.36277-0.10077 0.14417-0.29456 0.19998zm-0.78444-0.97203v0.82166h0.39377q0.22634 0 0.34106-0.10387 0.11628-0.10542 0.11628-0.30851t-0.11628-0.30541q-0.11472-0.10387-0.34106-0.10387z"/>
     <path d="m129.78 137.43q-0.34106 0-0.5426 0.25425-0.19999 0.25425-0.19999 0.69298 0 0.43718 0.19999 0.69143 0.20154 0.25425 0.5426 0.25425 0.34107 0 0.5395-0.25425 0.19999-0.25425 0.19999-0.69143 0-0.43873-0.19999-0.69298-0.19843-0.25425-0.5395-0.25425zm0-0.25425q0.48679 0 0.77825 0.32712 0.29145 0.32556 0.29145 0.87436 0 0.54725-0.29145 0.87437-0.29146 0.32556-0.77825 0.32556-0.48834 0-0.78135-0.32556-0.29145-0.32557-0.29145-0.87437t0.29145-0.87436q0.29301-0.32712 0.78135-0.32712z"/>
     <path d="m132.28 137.43q-0.34106 0-0.5426 0.25425-0.19999 0.25425-0.19999 0.69298 0 0.43718 0.19999 0.69143 0.20154 0.25425 0.5426 0.25425 0.34107 0 0.5395-0.25425 0.19999-0.25425 0.19999-0.69143 0-0.43873-0.19999-0.69298-0.19843-0.25425-0.5395-0.25425zm0-0.25425q0.48679 0 0.77825 0.32712 0.29145 0.32556 0.29145 0.87436 0 0.54725-0.29145 0.87437-0.29146 0.32556-0.77825 0.32556-0.48834 0-0.78135-0.32556-0.29145-0.32557-0.29145-0.87437t0.29145-0.87436q0.29301-0.32712 0.78135-0.32712z"/>
     <path d="m133.83 137.22h0.46664l0.59066 1.5751 0.59377-1.5751h0.46663v2.3146h-0.3054v-2.0324l-0.59687 1.5875h-0.31471l-0.59686-1.5875v2.0324h-0.30386z"/>
     <path d="m138.36 137.52-0.42478 1.1519h0.85111zm-0.17673-0.30851h0.35501l0.88212 2.3146h-0.32556l-0.21084-0.59376h-1.0434l-0.21084 0.59376h-0.33021z"/>
     <path d="m140.05 139.27h1.093v0.26355h-1.4697v-0.26355q0.17828-0.18449 0.48524-0.49454 0.30851-0.31161 0.38757-0.40153 0.15038-0.16898 0.20929-0.28525 0.0605-0.11783 0.0605-0.231 0-0.18448-0.13022-0.30075-0.12868-0.11628-0.33641-0.11628-0.14728 0-0.31161 0.0512-0.16278 0.0512-0.34882 0.15503v-0.31626q0.18914-0.076 0.35347-0.11472 0.16433-0.0388 0.30075-0.0388 0.35967 0 0.57361 0.17984 0.21394 0.17983 0.21394 0.48059 0 0.14263-0.0543 0.2713-0.0527 0.12712-0.19378 0.30076-0.0388 0.045-0.2465 0.26045-0.20774 0.21394-0.58601 0.59996z"/>
     <path d="m142.48 137.42q-0.24185 0-0.36432 0.23875-0.12092 0.23719-0.12092 0.71468 0 0.47594 0.12092 0.71469 0.12247 0.23719 0.36432 0.23719 0.24339 0 0.36432-0.23719 0.12247-0.23875 0.12247-0.71469 0-0.47749-0.12247-0.71468-0.12093-0.23875-0.36432-0.23875zm0-0.24805q0.38912 0 0.59376 0.30851 0.20619 0.30696 0.20619 0.89297 0 0.58446-0.20619 0.89297-0.20464 0.30696-0.59376 0.30696-0.38913 0-0.59531-0.30696-0.20464-0.30851-0.20464-0.89297 0-0.58601 0.20464-0.89297 0.20618-0.30851 0.59531-0.30851z"/>
     <path d="m144.1 139.27h1.093v0.26355h-1.4697v-0.26355q0.17829-0.18449 0.48525-0.49454 0.3085-0.31161 0.38757-0.40153 0.15038-0.16898 0.20929-0.28525 0.0605-0.11783 0.0605-0.231 0-0.18448-0.13022-0.30075-0.12868-0.11628-0.33642-0.11628-0.14728 0-0.31161 0.0512-0.16278 0.0512-0.34881 0.15503v-0.31626q0.18913-0.076 0.35346-0.11472 0.16434-0.0388 0.30076-0.0388 0.35967 0 0.57361 0.17984 0.21394 0.17983 0.21394 0.48059 0 0.14263-0.0543 0.2713-0.0527 0.12712-0.19379 0.30076-0.0387 0.045-0.24649 0.26045-0.20774 0.21394-0.58601 0.59996z"/>
    </g>
   </g>
   <g aria-label="↑  3. PODLAŽÍ       SERVEROVNA, UČEBNY A302, A304       3. FLOOR                SERVER ROOM, CLASSROOMS A302, A304">
    <path d="m49.561 117.57h0.17053l0.74276 0.74655-0.22738 0.22738-0.43959-0.44339v2.3117h-0.32212v-2.3117l-0.44338 0.44339-0.22738-0.22738z"/>
    <path d="m55.318 118.88q0.27475 0.0587 0.42822 0.24443 0.15537 0.18569 0.15537 0.45854 0 0.41875-0.28801 0.64802t-0.81856 0.22927q-0.17811 0-0.36759-0.036-0.18759-0.0341-0.38844-0.10421v-0.36949q0.15916 0.0928 0.34864 0.14022 0.18948 0.0474 0.39601 0.0474 0.36001 0 0.5476-0.14211 0.18948-0.14211 0.18948-0.41307 0-0.25012-0.17622-0.39033-0.17432-0.14211-0.48696-0.14211h-0.3297v-0.31454h0.34485q0.28233 0 0.43202-0.11179 0.14969-0.11369 0.14969-0.32591 0-0.2179-0.15537-0.33348-0.15348-0.11748-0.44149-0.11748-0.15727 0-0.33728 0.0341t-0.39601 0.1061v-0.34106q0.2179-0.0606 0.40738-0.0909 0.19138-0.0303 0.36001-0.0303 0.4358 0 0.68971 0.19896 0.2539 0.19706 0.2539 0.53433 0 0.23496-0.13453 0.39791-0.13453 0.16106-0.38275 0.22359z"/>
    <path d="m56.629 119.93h0.3998v0.48128h-0.3998z"/>
    <path d="m59.448 117.89v1.063h0.48128q0.26717 0 0.41307-0.13832t0.1459-0.39412q0-0.2539-0.1459-0.39222t-0.41307-0.13832zm-0.38275-0.31454h0.86403q0.4756 0 0.71813 0.21601 0.24443 0.21411 0.24443 0.62907 0 0.41876-0.24443 0.63287-0.24253 0.21411-0.71813 0.21411h-0.48128v1.1369h-0.38275z"/>
    <path d="m62.556 117.84q-0.41686 0-0.66318 0.31075-0.24443 0.31075-0.24443 0.84697 0 0.53434 0.24443 0.84509 0.24632 0.31074 0.66318 0.31074 0.41686 0 0.65939-0.31074 0.24443-0.31075 0.24443-0.84509 0-0.53622-0.24443-0.84697-0.24254-0.31075-0.65939-0.31075zm0-0.31075q0.59497 0 0.95119 0.39981 0.35622 0.3979 0.35622 1.0687 0 0.66887-0.35622 1.0687-0.35622 0.39791-0.95119 0.39791-0.59686 0-0.95498-0.39791-0.35622-0.39791-0.35622-1.0687t0.35622-1.0687q0.35812-0.39981 0.95498-0.39981z"/>
    <path d="m64.845 117.89v2.1999h0.46233q0.58549 0 0.85645-0.26528 0.27285-0.26527 0.27285-0.8375 0-0.56844-0.27285-0.83182-0.27096-0.26527-0.85645-0.26527zm-0.38275-0.31454h0.78634q0.82234 0 1.207 0.34296 0.38464 0.34107 0.38464 1.0687 0 0.73139-0.38654 1.0744-0.38654 0.34296-1.2051 0.34296h-0.78634z"/>
    <path d="m67.448 117.58h0.38275v2.5068h1.3775v0.32211h-1.7603z"/>
    <path d="m70.645 117.96-0.51918 1.4078h1.0402zm-0.21601-0.37707h0.43391l1.0781 2.8289h-0.39791l-0.25769-0.72571h-1.2752l-0.25769 0.72571h-0.40359z"/>
    <path d="m72.189 117.58h2.2226v0.2918l-1.7887 2.215h1.8323v0.32211h-2.3098v-0.2918l1.7887-2.215h-1.7451zm0.93414-0.26906-0.3998-0.50402h0.26338l0.31454 0.33728 0.31454-0.33728h0.26338l-0.3998 0.50402z"/>
    <path d="m75.012 117.58h0.38275v2.8289h-0.38275zm0.29748-0.76929h0.35054l-0.43202 0.50023h-0.2899z"/>
    <path d="m86.5 117.67v0.37327q-0.2179-0.10421-0.41117-0.15537-0.19327-0.0512-0.37328-0.0512-0.31264 0-0.48318 0.12127-0.16864 0.12127-0.16864 0.34485 0 0.18759 0.11179 0.28422 0.11369 0.0947 0.42822 0.15348l0.23117 0.0474q0.42823 0.0815 0.63097 0.28801 0.20464 0.20464 0.20464 0.54949 0 0.41118-0.27664 0.62339-0.27475 0.21222-0.80719 0.21222-0.20085 0-0.42822-0.0455-0.22548-0.0455-0.46802-0.13453v-0.39412q0.23306 0.13074 0.45665 0.19706 0.22359 0.0663 0.43959 0.0663 0.3278 0 0.50591-0.12884 0.17811-0.12885 0.17811-0.36759 0-0.20843-0.12885-0.32591-0.12695-0.11748-0.41875-0.17622l-0.23306-0.0455q-0.42822-0.0853-0.6196-0.26717-0.19138-0.1819-0.19138-0.50591 0-0.37517 0.26338-0.59118 0.26527-0.21601 0.7295-0.21601 0.19896 0 0.40549 0.036 0.20653 0.036 0.42254 0.10801z"/>
    <path d="m87.268 117.58h1.7887v0.32212h-1.4059v0.8375h1.3472v0.32212h-1.3472v1.0251h1.44v0.32211h-1.8228z"/>
    <path d="m91.065 119.08q0.12316 0.0417 0.23874 0.17811 0.11748 0.13643 0.23496 0.37517l0.38843 0.77308h-0.41117l-0.36191-0.72571q-0.14022-0.28422-0.27285-0.37706-0.13074-0.0929-0.35812-0.0929h-0.41686v1.1956h-0.38275v-2.8289h0.86403q0.48507 0 0.72381 0.20275 0.23875 0.20274 0.23875 0.61202 0 0.26716-0.12506 0.44338-0.12316 0.17622-0.36001 0.24443zm-0.95877-1.188v1.0042h0.48128q0.27664 0 0.41686-0.12696 0.14211-0.12884 0.14211-0.37706t-0.14211-0.37328q-0.14022-0.12695-0.41686-0.12695z"/>
    <path d="m92.939 120.41-1.08-2.8289h0.3998l0.89624 2.3818 0.89814-2.3818h0.39791l-1.0781 2.8289z"/>
    <path d="m94.862 117.58h1.7887v0.32212h-1.4059v0.8375h1.3472v0.32212h-1.3472v1.0251h1.44v0.32211h-1.8228z"/>
    <path d="m98.659 119.08q0.12316 0.0417 0.23874 0.17811 0.11748 0.13643 0.23496 0.37517l0.38843 0.77308h-0.41117l-0.36191-0.72571q-0.14022-0.28422-0.27285-0.37706-0.13074-0.0929-0.35812-0.0929h-0.41686v1.1956h-0.38275v-2.8289h0.86403q0.48507 0 0.72381 0.20275 0.23875 0.20274 0.23875 0.61202 0 0.26716-0.12506 0.44338-0.12316 0.17622-0.36001 0.24443zm-0.95877-1.188v1.0042h0.48128q0.27664 0 0.41686-0.12696 0.14211-0.12884 0.14211-0.37706t-0.14211-0.37328q-0.14022-0.12695-0.41686-0.12695z"/>
    <path d="m101.16 117.84q-0.41686 0-0.66318 0.31075-0.24443 0.31075-0.24443 0.84697 0 0.53434 0.24443 0.84509 0.24632 0.31074 0.66318 0.31074t0.65939-0.31074q0.24443-0.31075 0.24443-0.84509 0-0.53622-0.24443-0.84697-0.24253-0.31075-0.65939-0.31075zm0-0.31075q0.59497 0 0.95119 0.39981 0.35622 0.3979 0.35622 1.0687 0 0.66887-0.35622 1.0687-0.35622 0.39791-0.95119 0.39791-0.59686 0-0.95498-0.39791-0.35622-0.39791-0.35622-1.0687t0.35622-1.0687q0.35812-0.39981 0.95498-0.39981z"/>
    <path d="m103.73 120.41-1.08-2.8289h0.3998l0.89625 2.3818 0.89813-2.3818h0.39791l-1.0781 2.8289z"/>
    <path d="m105.66 117.58h0.51539l1.2544 2.3666v-2.3666h0.37138v2.8289h-0.51539l-1.2544-2.3666v2.3666h-0.37138z"/>
    <path d="m109.5 117.96-0.51918 1.4078h1.0402zm-0.21601-0.37707h0.43391l1.0781 2.8289h-0.39791l-0.25769-0.72571h-1.2752l-0.25769 0.72571h-0.4036z"/>
    <path d="m111.28 119.93h0.3998v0.32591l-0.31074 0.60634h-0.24443l0.15537-0.60634z"/>
    <path d="m113.64 117.58h0.38464v1.7186q0 0.45475 0.16485 0.6556 0.16485 0.19895 0.53433 0.19895 0.3676 0 0.53244-0.19895 0.16485-0.20085 0.16485-0.6556v-1.7186h0.38465v1.766q0 0.55328-0.27475 0.83561-0.27285 0.28232-0.80719 0.28232-0.53622 0-0.81097-0.28232-0.27285-0.28233-0.27285-0.83561z"/>
    <path d="m118.64 117.8v0.4036q-0.19327-0.18001-0.41307-0.26906-0.2179-0.0891-0.46423-0.0891-0.48506 0-0.74276 0.29748-0.25769 0.29559-0.25769 0.85645 0 0.55897 0.25769 0.85646 0.2577 0.29558 0.74276 0.29558 0.24633 0 0.46423-0.0891 0.2198-0.0891 0.41307-0.26906v0.3998q-0.20085 0.13643-0.42633 0.20464-0.22359 0.0682-0.4737 0.0682-0.64234 0-1.0118-0.39222-0.36948-0.39412-0.36948-1.0744 0-0.68212 0.36948-1.0744 0.36949-0.39412 1.0118-0.39412 0.2539 0 0.47749 0.0682 0.22548 0.0663 0.42254 0.20084zm-1.1369-0.48696-0.39981-0.50402h0.26338l0.31454 0.33728 0.31454-0.33728h0.26337l-0.3998 0.50402z"/>
    <path d="m119.24 117.58h1.7887v0.32212h-1.4059v0.8375h1.3472v0.32212h-1.3472v1.0251h1.44v0.32211h-1.8228z"/>
    <path d="m122.08 119.06v1.0365h0.61392q0.30885 0 0.45664-0.12696 0.14969-0.12884 0.14969-0.39222 0-0.26527-0.14969-0.39033-0.14779-0.12695-0.45664-0.12695zm0-1.1634v0.85266h0.56655q0.28043 0 0.41685-0.10421 0.13832-0.10611 0.13832-0.32212 0-0.21411-0.13832-0.32022-0.13642-0.10611-0.41685-0.10611zm-0.38275-0.31454h0.97772q0.4377 0 0.67455 0.1819t0.23685 0.51728q0 0.25959-0.12127 0.41307t-0.35622 0.19138q0.28232 0.0606 0.4377 0.2539 0.15727 0.19138 0.15727 0.47939 0 0.37896-0.2577 0.58549-0.25769 0.20653-0.73329 0.20653h-1.0156z"/>
    <path d="m124.35 117.58h0.51539l1.2544 2.3666v-2.3666h0.37138v2.8289h-0.51539l-1.2544-2.3666v2.3666h-0.37138z"/>
    <path d="m126.87 117.58h0.41117l0.78445 1.1634 0.77876-1.1634h0.41117l-1.0004 1.4817v1.3472h-0.38465v-1.3472z"/>
    <path d="m131.81 117.96-0.51917 1.4078h1.0402zm-0.21601-0.37707h0.43391l1.0782 2.8289h-0.39791l-0.25769-0.72571h-1.2752l-0.25769 0.72571h-0.40359z"/>
    <path d="m134.71 118.88q0.27474 0.0587 0.42822 0.24443 0.15538 0.18569 0.15538 0.45854 0 0.41875-0.28801 0.64802t-0.81856 0.22927q-0.17811 0-0.36759-0.036-0.18759-0.0341-0.38844-0.10421v-0.36949q0.15917 0.0928 0.34865 0.14022 0.18948 0.0474 0.39601 0.0474 0.36001 0 0.5476-0.14211 0.18948-0.14211 0.18948-0.41307 0-0.25012-0.17622-0.39033-0.17432-0.14211-0.48696-0.14211h-0.3297v-0.31454h0.34486q0.28232 0 0.43201-0.11179 0.14969-0.11369 0.14969-0.32591 0-0.2179-0.15537-0.33348-0.15348-0.11748-0.44149-0.11748-0.15727 0-0.33728 0.0341-0.18 0.0341-0.39601 0.1061v-0.34106q0.2179-0.0606 0.40738-0.0909 0.19138-0.0303 0.36002-0.0303 0.4358 0 0.6897 0.19896 0.25391 0.19706 0.25391 0.53433 0 0.23496-0.13453 0.39791-0.13453 0.16106-0.38275 0.22359z"/>
    <path d="m136.84 117.83q-0.29559 0-0.44528 0.2918-0.1478 0.28991-0.1478 0.8735 0 0.58171 0.1478 0.87351 0.14969 0.2899 0.44528 0.2899 0.29748 0 0.44528-0.2899 0.14969-0.2918 0.14969-0.87351 0-0.58359-0.14969-0.8735-0.1478-0.2918-0.44528-0.2918zm0-0.30317q0.47559 0 0.72571 0.37707 0.25201 0.37517 0.25201 1.0914 0 0.71435-0.25201 1.0914-0.25012 0.37517-0.72571 0.37517-0.4756 0-0.72761-0.37517-0.25011-0.37706-0.25011-1.0914 0-0.71623 0.25011-1.0914 0.25201-0.37707 0.72761-0.37707z"/>
    <path d="m138.82 120.09h1.3358v0.32211h-1.7963v-0.32211q0.2179-0.22549 0.59307-0.60445 0.37707-0.38085 0.4737-0.49075 0.1838-0.20653 0.2558-0.34864 0.0739-0.14401 0.0739-0.28233 0-0.22548-0.15917-0.36759-0.15726-0.14211-0.41117-0.14211-0.18 0-0.38085 0.0625-0.19896 0.0625-0.42633 0.18948v-0.38654q0.23116-0.0928 0.43201-0.14022 0.20085-0.0474 0.36759-0.0474 0.4396 0 0.70108 0.2198t0.26148 0.58739q0 0.17432-0.0663 0.33159-0.0644 0.15537-0.23685 0.36759-0.0474 0.0549-0.30127 0.31833-0.2539 0.26148-0.71623 0.73329z"/>
    <path d="m141 119.93h0.3998v0.32591l-0.31075 0.60634h-0.24443l0.15538-0.60634z"/>
    <path d="m144.34 117.96-0.51917 1.4078h1.0402zm-0.216-0.37707h0.43391l1.0781 2.8289h-0.39791l-0.25769-0.72571h-1.2752l-0.25769 0.72571h-0.40359z"/>
    <path d="m147.25 118.88q0.27474 0.0587 0.42822 0.24443 0.15538 0.18569 0.15538 0.45854 0 0.41875-0.28801 0.64802t-0.81856 0.22927q-0.17811 0-0.36759-0.036-0.18759-0.0341-0.38843-0.10421v-0.36949q0.15916 0.0928 0.34864 0.14022 0.18948 0.0474 0.39601 0.0474 0.36002 0 0.5476-0.14211 0.18948-0.14211 0.18948-0.41307 0-0.25012-0.17622-0.39033-0.17432-0.14211-0.48696-0.14211h-0.3297v-0.31454h0.34486q0.28232 0 0.43201-0.11179 0.14969-0.11369 0.14969-0.32591 0-0.2179-0.15537-0.33348-0.15348-0.11748-0.44149-0.11748-0.15727 0-0.33727 0.0341-0.18001 0.0341-0.39602 0.1061v-0.34106q0.2179-0.0606 0.40738-0.0909 0.19138-0.0303 0.36002-0.0303 0.4358 0 0.6897 0.19896 0.25391 0.19706 0.25391 0.53433 0 0.23496-0.13453 0.39791-0.13453 0.16106-0.38275 0.22359z"/>
    <path d="m149.38 117.83q-0.29559 0-0.44528 0.2918-0.1478 0.28991-0.1478 0.8735 0 0.58171 0.1478 0.87351 0.14969 0.2899 0.44528 0.2899 0.29748 0 0.44528-0.2899 0.14969-0.2918 0.14969-0.87351 0-0.58359-0.14969-0.8735-0.1478-0.2918-0.44528-0.2918zm0-0.30317q0.47559 0 0.72571 0.37707 0.25201 0.37517 0.25201 1.0914 0 0.71435-0.25201 1.0914-0.25012 0.37517-0.72571 0.37517-0.4756 0-0.72761-0.37517-0.25011-0.37706-0.25011-1.0914 0-0.71623 0.25011-1.0914 0.25201-0.37707 0.72761-0.37707z"/>
    <path d="m152.08 117.91-0.96635 1.5102h0.96635zm-0.10042-0.33349h0.48128v1.8436h0.40359v0.31832h-0.40359v0.66697h-0.38086v-0.66697h-1.2771v-0.36948z"/>
    <g fill="#162d50">
     <path d="m55.486 124.52q0.22479 0.0481 0.35037 0.19999 0.12712 0.15193 0.12712 0.37517 0 0.34261-0.23564 0.5302-0.23564 0.18758-0.66973 0.18758-0.14573 0-0.30076-0.0294-0.15348-0.0279-0.31781-0.0853v-0.3023q0.13022 0.076 0.28525 0.11472 0.15503 0.0388 0.32401 0.0388 0.29456 0 0.44804-0.11627 0.15503-0.11627 0.15503-0.33796 0-0.20464-0.14418-0.31936-0.14263-0.11627-0.39842-0.11627h-0.26975v-0.25735h0.28215q0.23099 0 0.35347-0.0915 0.12247-0.093 0.12247-0.26665 0-0.17828-0.12712-0.27285-0.12557-0.0961-0.36122-0.0961-0.12868 0-0.27595 0.0279-0.14728 0.0279-0.32401 0.0868v-0.27905q0.17828-0.0496 0.33331-0.0744 0.15658-0.0248 0.29456-0.0248 0.35657 0 0.56431 0.16278 0.20774 0.16123 0.20774 0.43718 0 0.19224-0.11007 0.32557-0.11007 0.13177-0.31316 0.18293z"/>
     <path d="m56.559 125.37h0.32711v0.39378h-0.32711z"/>
     <path d="m58.553 123.45h1.3302v0.26355h-1.017v0.68213h0.91777v0.26355h-0.91777v1.1054h-0.31316z"/>
     <path d="m60.382 123.45h0.31316v2.051h1.1271v0.26355h-1.4402z"/>
     <path d="m62.977 123.66q-0.34106 0-0.5426 0.25425-0.19999 0.25424-0.19999 0.69298 0 0.43718 0.19999 0.69143 0.20154 0.25425 0.5426 0.25425 0.34106 0 0.5395-0.25425 0.19999-0.25425 0.19999-0.69143 0-0.43874-0.19999-0.69298-0.19844-0.25425-0.5395-0.25425zm0-0.25425q0.48679 0 0.77825 0.32711 0.29146 0.32556 0.29146 0.87437 0 0.54725-0.29146 0.87436-0.29146 0.32556-0.77825 0.32556-0.48834 0-0.78135-0.32556-0.29146-0.32556-0.29146-0.87436 0-0.54881 0.29146-0.87437 0.29301-0.32711 0.78135-0.32711z"/>
     <path d="m65.476 123.66q-0.34106 0-0.5426 0.25425-0.19999 0.25424-0.19999 0.69298 0 0.43718 0.19999 0.69143 0.20154 0.25425 0.5426 0.25425 0.34106 0 0.5395-0.25425 0.19999-0.25425 0.19999-0.69143 0-0.43874-0.19999-0.69298-0.19844-0.25425-0.5395-0.25425zm0-0.25425q0.48679 0 0.77825 0.32711 0.29146 0.32556 0.29146 0.87437 0 0.54725-0.29146 0.87436-0.29146 0.32556-0.77825 0.32556-0.48834 0-0.78135-0.32556-0.29146-0.32556-0.29146-0.87436 0-0.54881 0.29146-0.87437 0.29301-0.32711 0.78135-0.32711z"/>
     <path d="m68.133 124.68q0.10077 0.0341 0.19534 0.14573 0.09612 0.11162 0.19224 0.30696l0.31781 0.63252h-0.33641l-0.29611-0.59377q-0.11472-0.23254-0.22324-0.3085-0.10697-0.076-0.293-0.076h-0.34106v0.97824h-0.31316v-2.3146h0.70693q0.39688 0 0.59221 0.16588t0.19534 0.50074q0 0.2186-0.10232 0.36277-0.10077 0.14418-0.29456 0.19999zm-0.78445-0.97203v0.82165h0.39377q0.22634 0 0.34106-0.10387 0.11627-0.10542 0.11627-0.30851 0-0.20308-0.11627-0.3054-0.11472-0.10387-0.34106-0.10387z"/>
     <path d="m86.804 123.53v0.30541q-0.17828-0.0853-0.33641-0.12712-0.15813-0.0419-0.30541-0.0419-0.2558 0-0.39532 0.0992-0.13798 0.0992-0.13798 0.28215 0 0.15348 0.09147 0.23254 0.09302 0.0775 0.35037 0.12558l0.18914 0.0388q0.35037 0.0667 0.51625 0.23564 0.16743 0.16743 0.16743 0.44959 0 0.33641-0.22634 0.51004-0.22479 0.17363-0.66042 0.17363-0.16433 0-0.35037-0.0372-0.18448-0.0372-0.38292-0.11007v-0.32246q0.19069 0.10697 0.37362 0.16123 0.18294 0.0543 0.35967 0.0543 0.2682 0 0.41393-0.10542 0.14573-0.10542 0.14573-0.30076 0-0.17053-0.10542-0.26665-0.10387-0.0961-0.34262-0.14418l-0.19069-0.0372q-0.35037-0.0698-0.50694-0.2186-0.15658-0.14882-0.15658-0.41392 0-0.30696 0.21549-0.4837 0.21704-0.17673 0.59686-0.17673 0.16278 0 0.33176 0.0295 0.16898 0.0294 0.34572 0.0884z"/>
     <path d="m87.431 123.45h1.4635v0.26355h-1.1503v0.68523h1.1023v0.26355h-1.1023v0.83871h1.1782v0.26355h-1.4914z"/>
     <path d="m90.538 124.68q0.10077 0.0341 0.19534 0.14573 0.09612 0.11162 0.19224 0.30696l0.31781 0.63252h-0.33641l-0.29611-0.59377q-0.11472-0.23254-0.22324-0.3085-0.10697-0.076-0.293-0.076h-0.34106v0.97824h-0.31316v-2.3146h0.70693q0.39688 0 0.59221 0.16588t0.19534 0.50074q0 0.2186-0.10232 0.36277-0.10077 0.14418-0.29456 0.19999zm-0.78445-0.97203v0.82165h0.39378q0.22634 0 0.34106-0.10387 0.11627-0.10542 0.11627-0.30851 0-0.20308-0.11627-0.3054-0.11472-0.10387-0.34106-0.10387z"/>
     <path d="m92.072 125.77-0.88367-2.3146h0.32711l0.73329 1.9487 0.73484-1.9487h0.32556l-0.88212 2.3146z"/>
     <path d="m93.645 123.45h1.4635v0.26355h-1.1503v0.68523h1.1023v0.26355h-1.1023v0.83871h1.1782v0.26355h-1.4914z"/>
     <path d="m96.752 124.68q0.10077 0.0341 0.19534 0.14573 0.09612 0.11162 0.19224 0.30696l0.31781 0.63252h-0.33641l-0.29611-0.59377q-0.11472-0.23254-0.22324-0.3085-0.10697-0.076-0.29301-0.076h-0.34106v0.97824h-0.31316v-2.3146h0.70693q0.39688 0 0.59221 0.16588t0.19534 0.50074q0 0.2186-0.10232 0.36277-0.10077 0.14418-0.29456 0.19999zm-0.78445-0.97203v0.82165h0.39377q0.22634 0 0.34106-0.10387 0.11627-0.10542 0.11627-0.30851 0-0.20308-0.11627-0.3054-0.11472-0.10387-0.34106-0.10387z"/>
     <path d="m99.97 124.68q0.10077 0.0341 0.19533 0.14573 0.0961 0.11162 0.19224 0.30696l0.31781 0.63252h-0.33641l-0.29611-0.59377q-0.11472-0.23254-0.22324-0.3085-0.10697-0.076-0.293-0.076h-0.34106v0.97824h-0.31316v-2.3146h0.70693q0.39688 0 0.59221 0.16588 0.19534 0.16588 0.19534 0.50074 0 0.2186-0.10232 0.36277-0.10077 0.14418-0.29455 0.19999zm-0.78445-0.97203v0.82165h0.39378q0.22634 0 0.34106-0.10387 0.11627-0.10542 0.11627-0.30851 0-0.20308-0.11627-0.3054-0.11472-0.10387-0.34106-0.10387z"/>
     <path d="m102.02 123.66q-0.34107 0-0.54261 0.25425-0.19998 0.25424-0.19998 0.69298 0 0.43718 0.19998 0.69143 0.20154 0.25425 0.54261 0.25425 0.34106 0 0.5395-0.25425 0.19999-0.25425 0.19999-0.69143 0-0.43874-0.19999-0.69298-0.19844-0.25425-0.5395-0.25425zm0-0.25425q0.48679 0 0.77824 0.32711 0.29146 0.32556 0.29146 0.87437 0 0.54725-0.29146 0.87436-0.29145 0.32556-0.77824 0.32556-0.48835 0-0.78135-0.32556-0.29146-0.32556-0.29146-0.87436 0-0.54881 0.29146-0.87437 0.293-0.32711 0.78135-0.32711z"/>
     <path d="m104.52 123.66q-0.34107 0-0.5426 0.25425-0.19999 0.25424-0.19999 0.69298 0 0.43718 0.19999 0.69143 0.20153 0.25425 0.5426 0.25425 0.34106 0 0.5395-0.25425 0.19999-0.25425 0.19999-0.69143 0-0.43874-0.19999-0.69298-0.19844-0.25425-0.5395-0.25425zm0-0.25425q0.48679 0 0.77825 0.32711 0.29145 0.32556 0.29145 0.87437 0 0.54725-0.29145 0.87436-0.29146 0.32556-0.77825 0.32556-0.48834 0-0.78135-0.32556-0.29145-0.32556-0.29145-0.87436 0-0.54881 0.29145-0.87437 0.29301-0.32711 0.78135-0.32711z"/>
     <path d="m106.08 123.45h0.46664l0.59066 1.5751 0.59376-1.5751h0.46664v2.3146h-0.30541v-2.0324l-0.59686 1.5875h-0.31471l-0.59686-1.5875v2.0324h-0.30386z"/>
     <path d="m108.88 125.37h0.32711v0.26665l-0.25424 0.4961h-0.19999l0.12712-0.4961z"/>
     <path d="m112.57 123.63v0.33021q-0.15813-0.14727-0.33797-0.22014-0.17828-0.0729-0.37982-0.0729-0.39687 0-0.60771 0.2434-0.21084 0.24184-0.21084 0.70073 0 0.45733 0.21084 0.70073 0.21084 0.24185 0.60771 0.24185 0.20154 0 0.37982-0.0729 0.17984-0.0729 0.33797-0.22014v0.32711q-0.16433 0.11162-0.34882 0.16743-0.18293 0.0558-0.38757 0.0558-0.52555 0-0.82786-0.32091-0.3023-0.32246-0.3023-0.87901 0-0.55811 0.3023-0.87902 0.30231-0.32246 0.82786-0.32246 0.20774 0 0.39067 0.0558 0.18449 0.0543 0.34572 0.16433z"/>
     <path d="m113.06 123.45h0.31316v2.051h1.1271v0.26355h-1.4402z"/>
     <path d="m115.68 123.76-0.42478 1.1519h0.85112zm-0.17673-0.30851h0.35502l0.88212 2.3146h-0.32557l-0.21084-0.59377h-1.0433l-0.21084 0.59377h-0.33022z"/>
     <path d="m118.46 123.53v0.30541q-0.17828-0.0853-0.33641-0.12712-0.15813-0.0419-0.30541-0.0419-0.2558 0-0.39533 0.0992-0.13797 0.0992-0.13797 0.28215 0 0.15348 0.0915 0.23254 0.093 0.0775 0.35036 0.12558l0.18914 0.0388q0.35036 0.0667 0.51625 0.23564 0.16743 0.16743 0.16743 0.44959 0 0.33641-0.22635 0.51004-0.22479 0.17363-0.66042 0.17363-0.16433 0-0.35037-0.0372-0.18448-0.0372-0.38292-0.11007v-0.32246q0.19069 0.10697 0.37362 0.16123 0.18294 0.0543 0.35967 0.0543 0.2682 0 0.41393-0.10542t0.14573-0.30076q0-0.17053-0.10542-0.26665-0.10387-0.0961-0.34262-0.14418l-0.19069-0.0372q-0.35036-0.0698-0.50694-0.2186-0.15658-0.14882-0.15658-0.41392 0-0.30696 0.21549-0.4837 0.21704-0.17673 0.59686-0.17673 0.16278 0 0.33177 0.0295 0.16898 0.0294 0.34571 0.0884z"/>
     <path d="m120.48 123.53v0.30541q-0.17828-0.0853-0.33641-0.12712-0.15813-0.0419-0.30541-0.0419-0.2558 0-0.39532 0.0992-0.13798 0.0992-0.13798 0.28215 0 0.15348 0.0915 0.23254 0.093 0.0775 0.35036 0.12558l0.18914 0.0388q0.35037 0.0667 0.51625 0.23564 0.16743 0.16743 0.16743 0.44959 0 0.33641-0.22634 0.51004-0.2248 0.17363-0.66043 0.17363-0.16433 0-0.35037-0.0372-0.18448-0.0372-0.38292-0.11007v-0.32246q0.19069 0.10697 0.37362 0.16123 0.18294 0.0543 0.35967 0.0543 0.2682 0 0.41393-0.10542t0.14573-0.30076q0-0.17053-0.10542-0.26665-0.10387-0.0961-0.34262-0.14418l-0.19068-0.0372q-0.35037-0.0698-0.50695-0.2186-0.15658-0.14882-0.15658-0.41392 0-0.30696 0.21549-0.4837 0.21704-0.17673 0.59686-0.17673 0.16278 0 0.33177 0.0295 0.16898 0.0294 0.34571 0.0884z"/>
     <path d="m122.2 124.68q0.10077 0.0341 0.19533 0.14573 0.0961 0.11162 0.19224 0.30696l0.31781 0.63252h-0.33641l-0.29611-0.59377q-0.11472-0.23254-0.22324-0.3085-0.10697-0.076-0.29301-0.076h-0.34106v0.97824h-0.31316v-2.3146h0.70693q0.39688 0 0.59222 0.16588 0.19533 0.16588 0.19533 0.50074 0 0.2186-0.10232 0.36277-0.10077 0.14418-0.29455 0.19999zm-0.78445-0.97203v0.82165h0.39377q0.22635 0 0.34107-0.10387 0.11627-0.10542 0.11627-0.30851 0-0.20308-0.11627-0.3054-0.11472-0.10387-0.34107-0.10387z"/>
     <path d="m124.25 123.66q-0.34107 0-0.54261 0.25425-0.19998 0.25424-0.19998 0.69298 0 0.43718 0.19998 0.69143 0.20154 0.25425 0.54261 0.25425 0.34106 0 0.5395-0.25425 0.19999-0.25425 0.19999-0.69143 0-0.43874-0.19999-0.69298-0.19844-0.25425-0.5395-0.25425zm0-0.25425q0.48679 0 0.77824 0.32711 0.29146 0.32556 0.29146 0.87437 0 0.54725-0.29146 0.87436-0.29145 0.32556-0.77824 0.32556-0.48835 0-0.78135-0.32556-0.29146-0.32556-0.29146-0.87436 0-0.54881 0.29146-0.87437 0.293-0.32711 0.78135-0.32711z"/>
     <path d="m126.75 123.66q-0.34107 0-0.54261 0.25425-0.19998 0.25424-0.19998 0.69298 0 0.43718 0.19998 0.69143 0.20154 0.25425 0.54261 0.25425 0.34106 0 0.5395-0.25425 0.19999-0.25425 0.19999-0.69143 0-0.43874-0.19999-0.69298-0.19844-0.25425-0.5395-0.25425zm0-0.25425q0.48679 0 0.77824 0.32711 0.29146 0.32556 0.29146 0.87437 0 0.54725-0.29146 0.87436-0.29145 0.32556-0.77824 0.32556-0.48835 0-0.78135-0.32556-0.29146-0.32556-0.29146-0.87436 0-0.54881 0.29146-0.87437 0.293-0.32711 0.78135-0.32711z"/>
     <path d="m128.31 123.45h0.46663l0.59067 1.5751 0.59376-1.5751h0.46664v2.3146h-0.30541v-2.0324l-0.59687 1.5875h-0.3147l-0.59687-1.5875v2.0324h-0.30385z"/>
     <path d="m132.44 123.53v0.30541q-0.17828-0.0853-0.33641-0.12712-0.15813-0.0419-0.30541-0.0419-0.2558 0-0.39533 0.0992-0.13797 0.0992-0.13797 0.28215 0 0.15348 0.0915 0.23254 0.093 0.0775 0.35036 0.12558l0.18914 0.0388q0.35036 0.0667 0.51625 0.23564 0.16743 0.16743 0.16743 0.44959 0 0.33641-0.22635 0.51004-0.22479 0.17363-0.66042 0.17363-0.16433 0-0.35037-0.0372-0.18448-0.0372-0.38292-0.11007v-0.32246q0.19069 0.10697 0.37362 0.16123 0.18294 0.0543 0.35967 0.0543 0.2682 0 0.41393-0.10542t0.14573-0.30076q0-0.17053-0.10542-0.26665-0.10387-0.0961-0.34262-0.14418l-0.19069-0.0372q-0.35036-0.0698-0.50694-0.2186-0.15658-0.14882-0.15658-0.41392 0-0.30696 0.21549-0.4837 0.21704-0.17673 0.59686-0.17673 0.16278 0 0.33177 0.0295 0.16898 0.0294 0.34571 0.0884z"/>
     <path d="m134.85 123.76-0.42478 1.1519h0.85111zm-0.17673-0.30851h0.35501l0.88212 2.3146h-0.32556l-0.21084-0.59377h-1.0434l-0.21084 0.59377h-0.33021z"/>
     <path d="m137.22 124.52q0.22479 0.0481 0.35037 0.19999 0.12712 0.15193 0.12712 0.37517 0 0.34261-0.23564 0.5302-0.23565 0.18758-0.66973 0.18758-0.14573 0-0.30076-0.0294-0.15348-0.0279-0.31781-0.0853v-0.3023q0.13023 0.076 0.28526 0.11472 0.15503 0.0388 0.32401 0.0388 0.29455 0 0.44803-0.11627 0.15503-0.11627 0.15503-0.33796 0-0.20464-0.14418-0.31936-0.14262-0.11627-0.39842-0.11627h-0.26975v-0.25735h0.28215q0.23099 0 0.35347-0.0915 0.12247-0.093 0.12247-0.26665 0-0.17828-0.12712-0.27285-0.12558-0.0961-0.36122-0.0961-0.12868 0-0.27595 0.0279-0.14728 0.0279-0.32401 0.0868v-0.27905q0.17828-0.0496 0.33331-0.0744 0.15658-0.0248 0.29455-0.0248 0.35657 0 0.56431 0.16278 0.20774 0.16123 0.20774 0.43718 0 0.19224-0.11007 0.32557-0.11007 0.13177-0.31316 0.18293z"/>
     <path d="m138.97 123.66q-0.24184 0-0.36432 0.23874-0.12092 0.2372-0.12092 0.71469 0 0.47594 0.12092 0.71468 0.12248 0.2372 0.36432 0.2372 0.2434 0 0.36432-0.2372 0.12247-0.23874 0.12247-0.71468 0-0.47749-0.12247-0.71469-0.12092-0.23874-0.36432-0.23874zm0-0.24805q0.38913 0 0.59377 0.30851 0.20618 0.30696 0.20618 0.89297 0 0.58446-0.20618 0.89297-0.20464 0.30695-0.59377 0.30695-0.38912 0-0.59531-0.30695-0.20464-0.30851-0.20464-0.89297 0-0.58601 0.20464-0.89297 0.20619-0.30851 0.59531-0.30851z"/>
     <path d="m140.59 125.5h1.093v0.26355h-1.4697v-0.26355q0.17828-0.18449 0.48524-0.49455 0.30851-0.31161 0.38757-0.40152 0.15038-0.16898 0.20929-0.28526 0.0605-0.11782 0.0605-0.23099 0-0.18449-0.13023-0.30076-0.12867-0.11627-0.33641-0.11627-0.14728 0-0.31161 0.0512-0.16278 0.0512-0.34882 0.15503v-0.31626q0.18914-0.076 0.35347-0.11472 0.16433-0.0388 0.30076-0.0388 0.35966 0 0.5736 0.17983 0.21395 0.17984 0.21395 0.4806 0 0.14262-0.0543 0.2713-0.0527 0.12712-0.19378 0.30075-0.0388 0.045-0.2465 0.26045-0.20774 0.21394-0.58601 0.59997z"/>
     <path d="m142.37 125.37h0.32711v0.26665l-0.25425 0.4961h-0.19998l0.12712-0.4961z"/>
     <path d="m145.11 123.76-0.42478 1.1519h0.85111zm-0.17674-0.30851h0.35502l0.88212 2.3146h-0.32556l-0.21084-0.59377h-1.0434l-0.21084 0.59377h-0.33021z"/>
     <path d="m147.48 124.52q0.22479 0.0481 0.35036 0.19999 0.12713 0.15193 0.12713 0.37517 0 0.34261-0.23565 0.5302-0.23564 0.18758-0.66972 0.18758-0.14573 0-0.30076-0.0294-0.15348-0.0279-0.31781-0.0853v-0.3023q0.13022 0.076 0.28525 0.11472 0.15503 0.0388 0.32401 0.0388 0.29456 0 0.44804-0.11627 0.15503-0.11627 0.15503-0.33796 0-0.20464-0.14418-0.31936-0.14263-0.11627-0.39842-0.11627h-0.26976v-0.25735h0.28216q0.23099 0 0.35346-0.0915 0.12248-0.093 0.12248-0.26665 0-0.17828-0.12713-0.27285-0.12557-0.0961-0.36121-0.0961-0.12868 0-0.27596 0.0279-0.14727 0.0279-0.32401 0.0868v-0.27905q0.17829-0.0496 0.33331-0.0744 0.15658-0.0248 0.29456-0.0248 0.35657 0 0.56431 0.16278 0.20774 0.16123 0.20774 0.43718 0 0.19224-0.11007 0.32557-0.11008 0.13177-0.31316 0.18293z"/>
     <path d="m149.22 123.66q-0.24185 0-0.36432 0.23874-0.12092 0.2372-0.12092 0.71469 0 0.47594 0.12092 0.71468 0.12247 0.2372 0.36432 0.2372 0.24339 0 0.36432-0.2372 0.12247-0.23874 0.12247-0.71468 0-0.47749-0.12247-0.71469-0.12093-0.23874-0.36432-0.23874zm0-0.24805q0.38912 0 0.59376 0.30851 0.20619 0.30696 0.20619 0.89297 0 0.58446-0.20619 0.89297-0.20464 0.30695-0.59376 0.30695-0.38913 0-0.59532-0.30695-0.20463-0.30851-0.20463-0.89297 0-0.58601 0.20463-0.89297 0.20619-0.30851 0.59532-0.30851z"/>
     <path d="m151.44 123.72-0.79065 1.2356h0.79065zm-0.0822-0.27285h0.39378v1.5084h0.33021v0.26045h-0.33021v0.54571h-0.31161v-0.54571h-1.0449v-0.3023z"/>
    </g>
   </g>
   <g aria-label="←  1. PODLAŽÍ       UČEBNA A101       1. FLOOR                CLASSROOM A101">
    <path d="m48.21 146.49v-0.17053l0.74466-0.74466 0.22738 0.22737-0.44149 0.44149h2.3098v0.32212h-2.3098l0.44149 0.44149-0.22738 0.22738z"/>
    <path d="m54.224 147.3h0.62528v-2.1582l-0.68024 0.13642v-0.34864l0.67644-0.13643h0.38275v2.5068h0.62528v0.32211h-1.6295z"/>
    <path d="m56.629 147.14h0.3998v0.48128h-0.3998z"/>
    <path d="m59.448 145.11v1.063h0.48128q0.26717 0 0.41307-0.13832 0.1459-0.13833 0.1459-0.39412 0-0.25391-0.1459-0.39223t-0.41307-0.13832zm-0.38275-0.31454h0.86403q0.4756 0 0.71813 0.21601 0.24443 0.21411 0.24443 0.62908 0 0.41875-0.24443 0.63286-0.24253 0.21411-0.71813 0.21411h-0.48128v1.1369h-0.38275z"/>
    <path d="m62.556 145.05q-0.41686 0-0.66318 0.31075-0.24443 0.31075-0.24443 0.84698 0 0.53433 0.24443 0.84508 0.24632 0.31075 0.66318 0.31075 0.41686 0 0.65939-0.31075 0.24443-0.31075 0.24443-0.84508 0-0.53623-0.24443-0.84698-0.24254-0.31075-0.65939-0.31075zm0-0.31075q0.59497 0 0.95119 0.39981 0.35622 0.39791 0.35622 1.0687 0 0.66886-0.35622 1.0687-0.35622 0.3979-0.95119 0.3979-0.59686 0-0.95498-0.3979-0.35622-0.39791-0.35622-1.0687t0.35622-1.0687q0.35812-0.39981 0.95498-0.39981z"/>
    <path d="m64.845 145.11v2.1999h0.46233q0.58549 0 0.85645-0.26527 0.27285-0.26528 0.27285-0.83751 0-0.56844-0.27285-0.83182-0.27096-0.26527-0.85645-0.26527zm-0.38275-0.31454h0.78634q0.82234 0 1.207 0.34296 0.38464 0.34107 0.38464 1.0687 0 0.7314-0.38654 1.0744-0.38654 0.34295-1.2051 0.34295h-0.78634z"/>
    <path d="m67.448 144.79h0.38275v2.5068h1.3775v0.32211h-1.7603z"/>
    <path d="m70.645 145.17-0.51918 1.4078h1.0402zm-0.21601-0.37707h0.43391l1.0781 2.8289h-0.39791l-0.25769-0.7257h-1.2752l-0.25769 0.7257h-0.40359z"/>
    <path d="m72.189 144.79h2.2226v0.2918l-1.7887 2.215h1.8323v0.32211h-2.3098v-0.29179l1.7887-2.215h-1.7451zm0.93414-0.26906-0.3998-0.50401h0.26338l0.31454 0.33727 0.31454-0.33727h0.26338l-0.3998 0.50401z"/>
    <path d="m75.012 144.79h0.38275v2.8289h-0.38275zm0.29748-0.76929h0.35054l-0.43202 0.50023h-0.2899z"/>
    <path d="m84.761 144.79h0.38464v1.7186q0 0.45475 0.16485 0.6556 0.16485 0.19896 0.53433 0.19896 0.36759 0 0.53244-0.19896 0.16485-0.20085 0.16485-0.6556v-1.7186h0.38464v1.766q0 0.55328-0.27475 0.83561-0.27285 0.28232-0.80719 0.28232-0.53623 0-0.81098-0.28232-0.27285-0.28233-0.27285-0.83561z"/>
    <path d="m89.765 145.01v0.40359q-0.19327-0.18001-0.41307-0.26906-0.2179-0.0891-0.46423-0.0891-0.48507 0-0.74276 0.29749-0.25769 0.29559-0.25769 0.85645 0 0.55896 0.25769 0.85645 0.25769 0.29559 0.74276 0.29559 0.24632 0 0.46423-0.0891 0.2198-0.0891 0.41307-0.26906v0.3998q-0.20085 0.13643-0.42633 0.20464-0.22359 0.0682-0.4737 0.0682-0.64234 0-1.0118-0.39222-0.36949-0.39412-0.36949-1.0744 0-0.68213 0.36949-1.0744 0.36949-0.39412 1.0118-0.39412 0.2539 0 0.47749 0.0682 0.22548 0.0663 0.42254 0.20085zm-1.1369-0.48697-0.3998-0.50401h0.26338l0.31454 0.33727 0.31454-0.33727h0.26338l-0.3998 0.50401z"/>
    <path d="m90.36 144.79h1.7887v0.32212h-1.4059v0.8375h1.3472v0.32212h-1.3472v1.0251h1.44v0.32211h-1.8228z"/>
    <path d="m93.199 146.27v1.0365h0.61392q0.30885 0 0.45665-0.12695 0.14969-0.12885 0.14969-0.39223 0-0.26527-0.14969-0.39033-0.1478-0.12695-0.45665-0.12695zm0-1.1634v0.85266h0.56655q0.28043 0 0.41686-0.10421 0.13832-0.10611 0.13832-0.32212 0-0.21411-0.13832-0.32022-0.13643-0.10611-0.41686-0.10611zm-0.38275-0.31454h0.97772q0.4377 0 0.67455 0.18191 0.23685 0.1819 0.23685 0.51728 0 0.25958-0.12127 0.41306-0.12127 0.15348-0.35622 0.19138 0.28233 0.0606 0.4377 0.2539 0.15727 0.19138 0.15727 0.47939 0 0.37896-0.25769 0.58549t-0.73329 0.20653h-1.0156z"/>
    <path d="m95.476 144.79h0.51539l1.2544 2.3666v-2.3666h0.37138v2.8289h-0.51539l-1.2544-2.3666v2.3666h-0.37138z"/>
    <path d="m99.324 145.17-0.51918 1.4078h1.0402zm-0.21601-0.37707h0.43391l1.0781 2.8289h-0.3979l-0.2577-0.7257h-1.2752l-0.25769 0.7257h-0.40359z"/>
    <path d="m103.21 145.17-0.51917 1.4078h1.0402zm-0.216-0.37707h0.43391l1.0781 2.8289h-0.39791l-0.25769-0.7257h-1.2752l-0.25769 0.7257h-0.40359z"/>
    <path d="m105.02 147.3h0.62529v-2.1582l-0.68024 0.13642v-0.34864l0.67645-0.13643h0.38275v2.5068h0.62528v0.32211h-1.6295z"/>
    <path d="m108.24 145.05q-0.29559 0-0.44527 0.2918-0.1478 0.28991-0.1478 0.87351 0 0.5817 0.1478 0.8735 0.14968 0.28991 0.44527 0.28991 0.29749 0 0.44528-0.28991 0.14969-0.2918 0.14969-0.8735 0-0.5836-0.14969-0.87351-0.14779-0.2918-0.44528-0.2918zm0-0.30317q0.4756 0 0.72571 0.37707 0.25201 0.37517 0.25201 1.0914 0 0.71434-0.25201 1.0914-0.25011 0.37517-0.72571 0.37517-0.47559 0-0.7276-0.37517-0.25011-0.37706-0.25011-1.0914 0-0.71624 0.25011-1.0914 0.25201-0.37707 0.7276-0.37707z"/>
    <path d="m109.96 147.3h0.62528v-2.1582l-0.68023 0.13642v-0.34864l0.67644-0.13643h0.38275v2.5068h0.62529v0.32211h-1.6295z"/>
    <g fill="#162d50">
     <path d="m54.592 152.72h0.5116v-1.7658l-0.55656 0.11163v-0.28526l0.55346-0.11162h0.31316v2.051h0.5116v0.26355h-1.3333z"/>
     <path d="m56.559 152.59h0.32711v0.39378h-0.32711z"/>
     <path d="m58.553 150.67h1.3302v0.26355h-1.017v0.68213h0.91777v0.26355h-0.91777v1.1054h-0.31316z"/>
     <path d="m60.382 150.67h0.31316v2.051h1.1271v0.26355h-1.4402z"/>
     <path d="m62.977 150.88q-0.34106 0-0.5426 0.25425-0.19999 0.25425-0.19999 0.69298 0 0.43718 0.19999 0.69143 0.20154 0.25425 0.5426 0.25425 0.34106 0 0.5395-0.25425 0.19999-0.25425 0.19999-0.69143 0-0.43873-0.19999-0.69298-0.19844-0.25425-0.5395-0.25425zm0-0.25425q0.48679 0 0.77825 0.32711 0.29146 0.32557 0.29146 0.87437 0 0.54725-0.29146 0.87437-0.29146 0.32556-0.77825 0.32556-0.48834 0-0.78135-0.32556-0.29146-0.32557-0.29146-0.87437t0.29146-0.87437q0.29301-0.32711 0.78135-0.32711z"/>
     <path d="m65.476 150.88q-0.34106 0-0.5426 0.25425-0.19999 0.25425-0.19999 0.69298 0 0.43718 0.19999 0.69143 0.20154 0.25425 0.5426 0.25425 0.34106 0 0.5395-0.25425 0.19999-0.25425 0.19999-0.69143 0-0.43873-0.19999-0.69298-0.19844-0.25425-0.5395-0.25425zm0-0.25425q0.48679 0 0.77825 0.32711 0.29146 0.32557 0.29146 0.87437 0 0.54725-0.29146 0.87437-0.29146 0.32556-0.77825 0.32556-0.48834 0-0.78135-0.32556-0.29146-0.32557-0.29146-0.87437t0.29146-0.87437q0.29301-0.32711 0.78135-0.32711z"/>
     <path d="m68.133 151.89q0.10077 0.0341 0.19534 0.14573 0.09612 0.11162 0.19224 0.30696l0.31781 0.63252h-0.33641l-0.29611-0.59376q-0.11472-0.23255-0.22324-0.30851-0.10697-0.076-0.293-0.076h-0.34106v0.97824h-0.31316v-2.3146h0.70693q0.39688 0 0.59221 0.16588t0.19534 0.50075q0 0.21859-0.10232 0.36277-0.10077 0.14417-0.29456 0.19998zm-0.78445-0.97203v0.82165h0.39377q0.22634 0 0.34106-0.10386 0.11627-0.10542 0.11627-0.30851t-0.11627-0.30541q-0.11472-0.10387-0.34106-0.10387z"/>
     <path d="m87.149 150.84v0.33022q-0.15813-0.14728-0.33796-0.22014-0.17828-0.0729-0.37982-0.0729-0.39688 0-0.60772 0.2434-0.21084 0.24184-0.21084 0.70073 0 0.45734 0.21084 0.70073 0.21084 0.24185 0.60772 0.24185 0.20154 0 0.37982-0.0729 0.17983-0.0729 0.33796-0.22014v0.32711q-0.16433 0.11163-0.34882 0.16744-0.18294 0.0558-0.38757 0.0558-0.52555 0-0.82786-0.32091-0.30231-0.32246-0.30231-0.87902 0-0.55811 0.30231-0.87902 0.30231-0.32246 0.82786-0.32246 0.20774 0 0.39067 0.0558 0.18448 0.0543 0.34572 0.16433z"/>
     <path d="m87.636 150.67h0.31316v2.051h1.1271v0.26355h-1.4402z"/>
     <path d="m90.251 150.97-0.42478 1.1519h0.85111zm-0.17673-0.30851h0.35502l0.88212 2.3146h-0.32556l-0.21084-0.59376h-1.0433l-0.21084 0.59376h-0.33021z"/>
     <path d="m93.036 150.74v0.3054q-0.17828-0.0853-0.33641-0.12712-0.15813-0.0419-0.30541-0.0419-0.2558 0-0.39532 0.0992-0.13798 0.0992-0.13798 0.28215 0 0.15348 0.09147 0.23255 0.09302 0.0775 0.35037 0.12557l0.18914 0.0388q0.35037 0.0667 0.51625 0.23564 0.16743 0.16743 0.16743 0.44959 0 0.33641-0.22634 0.51004-0.22479 0.17364-0.66042 0.17364-0.16433 0-0.35037-0.0372-0.18448-0.0372-0.38292-0.11007v-0.32246q0.19069 0.10697 0.37362 0.16123 0.18294 0.0543 0.35967 0.0543 0.2682 0 0.41393-0.10542 0.14573-0.10542 0.14573-0.30076 0-0.17053-0.10542-0.26665-0.10387-0.0961-0.34262-0.14418l-0.19069-0.0372q-0.35037-0.0698-0.50695-0.21859-0.15658-0.14883-0.15658-0.41393 0-0.30696 0.21549-0.48369 0.21704-0.17674 0.59686-0.17674 0.16278 0 0.33176 0.0295 0.16898 0.0294 0.34572 0.0884z"/>
     <path d="m95.051 150.74v0.3054q-0.17828-0.0853-0.33641-0.12712-0.15813-0.0419-0.30541-0.0419-0.2558 0-0.39532 0.0992-0.13798 0.0992-0.13798 0.28215 0 0.15348 0.09147 0.23255 0.09302 0.0775 0.35037 0.12557l0.18914 0.0388q0.35037 0.0667 0.51625 0.23564 0.16743 0.16743 0.16743 0.44959 0 0.33641-0.22634 0.51004-0.22479 0.17364-0.66042 0.17364-0.16433 0-0.35037-0.0372-0.18448-0.0372-0.38292-0.11007v-0.32246q0.19069 0.10697 0.37362 0.16123 0.18294 0.0543 0.35967 0.0543 0.2682 0 0.41393-0.10542 0.14573-0.10542 0.14573-0.30076 0-0.17053-0.10542-0.26665-0.10387-0.0961-0.34262-0.14418l-0.19069-0.0372q-0.35037-0.0698-0.50695-0.21859-0.15658-0.14883-0.15658-0.41393 0-0.30696 0.21549-0.48369 0.21704-0.17674 0.59686-0.17674 0.16278 0 0.33176 0.0295 0.16898 0.0294 0.34572 0.0884z"/>
     <path d="m96.777 151.89q0.10077 0.0341 0.19534 0.14573 0.09612 0.11162 0.19224 0.30696l0.31781 0.63252h-0.33641l-0.29611-0.59376q-0.11472-0.23255-0.22324-0.30851-0.10697-0.076-0.29301-0.076h-0.34106v0.97824h-0.31316v-2.3146h0.70693q0.39688 0 0.59221 0.16588t0.19534 0.50075q0 0.21859-0.10232 0.36277-0.10077 0.14417-0.29456 0.19998zm-0.78445-0.97203v0.82165h0.39377q0.22634 0 0.34106-0.10386 0.11627-0.10542 0.11627-0.30851t-0.11627-0.30541q-0.11472-0.10387-0.34106-0.10387z"/>
     <path d="m98.826 150.88q-0.34106 0-0.5426 0.25425-0.19999 0.25425-0.19999 0.69298 0 0.43718 0.19999 0.69143 0.20154 0.25425 0.5426 0.25425t0.5395-0.25425q0.19999-0.25425 0.19999-0.69143 0-0.43873-0.19999-0.69298-0.19844-0.25425-0.5395-0.25425zm0-0.25425q0.48679 0 0.77825 0.32711 0.29146 0.32557 0.29146 0.87437 0 0.54725-0.29146 0.87437-0.29146 0.32556-0.77825 0.32556-0.48834 0-0.78135-0.32556-0.29146-0.32557-0.29146-0.87437t0.29146-0.87437q0.29301-0.32711 0.78135-0.32711z"/>
     <path d="m101.33 150.88q-0.34107 0-0.54261 0.25425-0.19999 0.25425-0.19999 0.69298 0 0.43718 0.19999 0.69143 0.20154 0.25425 0.54261 0.25425 0.34106 0 0.5395-0.25425 0.19998-0.25425 0.19998-0.69143 0-0.43873-0.19998-0.69298-0.19844-0.25425-0.5395-0.25425zm0-0.25425q0.48679 0 0.77824 0.32711 0.29146 0.32557 0.29146 0.87437 0 0.54725-0.29146 0.87437-0.29145 0.32556-0.77824 0.32556-0.48835 0-0.78135-0.32556-0.29146-0.32557-0.29146-0.87437t0.29146-0.87437q0.293-0.32711 0.78135-0.32711z"/>
     <path d="m102.88 150.67h0.46663l0.59067 1.5751 0.59376-1.5751h0.46664v2.3146h-0.30541v-2.0324l-0.59686 1.5875h-0.31471l-0.59687-1.5875v2.0324h-0.30385z"/>
     <path d="m107.41 150.97-0.42478 1.1519h0.85111zm-0.17673-0.30851h0.35502l0.88211 2.3146h-0.32556l-0.21084-0.59376h-1.0434l-0.21084 0.59376h-0.33021z"/>
     <path d="m108.89 152.72h0.5116v-1.7658l-0.55656 0.11163v-0.28526l0.55346-0.11162h0.31316v2.051h0.51159v0.26355h-1.3332z"/>
     <path d="m111.53 150.87q-0.24184 0-0.36432 0.23874-0.12092 0.2372-0.12092 0.71469 0 0.47594 0.12092 0.71468 0.12248 0.2372 0.36432 0.2372 0.2434 0 0.36432-0.2372 0.12247-0.23874 0.12247-0.71468 0-0.47749-0.12247-0.71469-0.12092-0.23874-0.36432-0.23874zm0-0.24805q0.38912 0 0.59376 0.30851 0.20619 0.30696 0.20619 0.89297 0 0.58446-0.20619 0.89297-0.20464 0.30696-0.59376 0.30696t-0.59531-0.30696q-0.20464-0.30851-0.20464-0.89297 0-0.58601 0.20464-0.89297 0.20619-0.30851 0.59531-0.30851z"/>
     <path d="m112.93 152.72h0.5116v-1.7658l-0.55655 0.11163v-0.28526l0.55345-0.11162h0.31316v2.051h0.5116v0.26355h-1.3333z"/>
    </g>
   </g>
   <g aria-label="↖                           DRUHÉ SCHODIŠTĚ, UČEBNY A102, A104                                   SECONDARY STAIRS, CLASSROOMS A102, A104">
    <path d="m48.567 159.23 0.11937-0.11937h1.0535v0.32022h-0.62528l1.6333 1.6333-0.22738 0.22737-1.6333-1.6333v0.62528h-0.32022z"/>
    <path d="m85.392 158.88v2.1999h0.46233q0.58549 0 0.85645-0.26527 0.27285-0.26528 0.27285-0.83751 0-0.56844-0.27285-0.83182-0.27096-0.26527-0.85645-0.26527zm-0.38275-0.31454h0.78634q0.82234 0 1.207 0.34296 0.38464 0.34107 0.38464 1.0687 0 0.7314-0.38654 1.0744-0.38654 0.34295-1.2051 0.34295h-0.78634z"/>
    <path d="m89.337 160.07q0.12316 0.0417 0.23874 0.17811 0.11748 0.13643 0.23496 0.37518l0.38843 0.77307h-0.41117l-0.36191-0.7257q-0.14022-0.28423-0.27285-0.37707-0.13074-0.0928-0.35812-0.0928h-0.41686v1.1956h-0.38275v-2.8289h0.86403q0.48507 0 0.72382 0.20275 0.23874 0.20274 0.23874 0.61202 0 0.26717-0.12506 0.44338-0.12316 0.17622-0.36001 0.24443zm-0.95877-1.188v1.0042h0.48128q0.27664 0 0.41686-0.12695 0.14211-0.12885 0.14211-0.37707t-0.14211-0.37328q-0.14022-0.12695-0.41686-0.12695z"/>
    <path d="m90.65 158.56h0.38464v1.7186q0 0.45475 0.16485 0.6556 0.16485 0.19896 0.53433 0.19896 0.36759 0 0.53244-0.19896 0.16485-0.20085 0.16485-0.6556v-1.7186h0.38464v1.766q0 0.55328-0.27475 0.83561-0.27285 0.28232-0.80719 0.28232-0.53623 0-0.81098-0.28232-0.27285-0.28233-0.27285-0.83561z"/>
    <path d="m93.536 158.56h0.38275v1.1596h1.3908v-1.1596h0.38275v2.8289h-0.38275v-1.3472h-1.3908v1.3472h-0.38275z"/>
    <path d="m96.454 158.56h1.7887v0.32212h-1.4059v0.8375h1.3472v0.32212h-1.3472v1.0251h1.44v0.32211h-1.8228zm0.99288-0.76929h0.35054l-0.43202 0.50023h-0.2899z"/>
    <path d="m101.84 158.66v0.37328q-0.2179-0.10422-0.41117-0.15538-0.19327-0.0512-0.37328-0.0512-0.31264 0-0.48318 0.12127-0.16863 0.12127-0.16863 0.34485 0 0.18759 0.11179 0.28422 0.11369 0.0947 0.42823 0.15348l0.23116 0.0474q0.42823 0.0815 0.63097 0.28801 0.20464 0.20464 0.20464 0.5495 0 0.41117-0.27664 0.62339-0.27475 0.21221-0.80719 0.21221-0.20085 0-0.42822-0.0455-0.22548-0.0455-0.46802-0.13453v-0.39412q0.23306 0.13074 0.45665 0.19706 0.22359 0.0663 0.43959 0.0663 0.3278 0 0.50591-0.12885 0.17812-0.12885 0.17812-0.36759 0-0.20843-0.12885-0.32591-0.12695-0.11748-0.41875-0.17621l-0.23306-0.0455q-0.42823-0.0853-0.6196-0.26717-0.19138-0.1819-0.19138-0.50591 0-0.37517 0.26338-0.59118 0.26527-0.21601 0.7295-0.21601 0.19895 0 0.40549 0.036 0.20653 0.036 0.42254 0.108z"/>
    <path d="m104.73 158.78v0.40359q-0.19327-0.18001-0.41307-0.26906-0.2179-0.0891-0.46422-0.0891-0.48507 0-0.74277 0.29749-0.25769 0.29559-0.25769 0.85645 0 0.55896 0.25769 0.85645 0.2577 0.29559 0.74277 0.29559 0.24632 0 0.46422-0.0891 0.2198-0.0891 0.41307-0.26906v0.3998q-0.20085 0.13643-0.42633 0.20464-0.22359 0.0682-0.4737 0.0682-0.64234 0-1.0118-0.39222-0.36948-0.39412-0.36948-1.0744 0-0.68213 0.36948-1.0744 0.36949-0.39412 1.0118-0.39412 0.2539 0 0.47749 0.0682 0.22548 0.0663 0.42254 0.20085z"/>
    <path d="m105.32 158.56h0.38275v1.1596h1.3908v-1.1596h0.38275v2.8289h-0.38275v-1.3472h-1.3908v1.3472h-0.38275z"/>
    <path d="m109.39 158.82q-0.41685 0-0.66318 0.31075-0.24443 0.31075-0.24443 0.84698 0 0.53433 0.24443 0.84508 0.24633 0.31075 0.66318 0.31075 0.41686 0 0.65939-0.31075 0.24443-0.31075 0.24443-0.84508 0-0.53623-0.24443-0.84698-0.24253-0.31075-0.65939-0.31075zm0-0.31075q0.59497 0 0.95119 0.39981 0.35623 0.39791 0.35623 1.0687 0 0.66886-0.35623 1.0687-0.35622 0.3979-0.95119 0.3979-0.59686 0-0.95498-0.3979-0.35622-0.39791-0.35622-1.0687t0.35622-1.0687q0.35812-0.39981 0.95498-0.39981z"/>
    <path d="m111.68 158.88v2.1999h0.46233q0.58549 0 0.85645-0.26527 0.27285-0.26528 0.27285-0.83751 0-0.56844-0.27285-0.83182-0.27096-0.26527-0.85645-0.26527zm-0.38275-0.31454h0.78634q0.82234 0 1.207 0.34296 0.38464 0.34107 0.38464 1.0687 0 0.7314-0.38654 1.0744-0.38654 0.34295-1.2051 0.34295h-0.78634z"/>
    <path d="m114.28 158.56h0.38275v2.8289h-0.38275z"/>
    <path d="m117.12 158.66v0.37328q-0.2179-0.10422-0.41117-0.15538-0.19327-0.0512-0.37327-0.0512-0.31265 0-0.48318 0.12127-0.16864 0.12127-0.16864 0.34485 0 0.18759 0.1118 0.28422 0.11368 0.0947 0.42822 0.15348l0.23117 0.0474q0.42822 0.0815 0.63097 0.28801 0.20464 0.20464 0.20464 0.5495 0 0.41117-0.27665 0.62339-0.27474 0.21221-0.80718 0.21221-0.20085 0-0.42823-0.0455-0.22548-0.0455-0.46801-0.13453v-0.39412q0.23306 0.13074 0.45664 0.19706 0.22359 0.0663 0.4396 0.0663 0.3278 0 0.50591-0.12885t0.17811-0.36759q0-0.20843-0.12884-0.32591-0.12696-0.11748-0.41876-0.17621l-0.23306-0.0455q-0.42822-0.0853-0.6196-0.26717-0.19137-0.1819-0.19137-0.50591 0-0.37517 0.26338-0.59118 0.26527-0.21601 0.72949-0.21601 0.19896 0 0.40549 0.036 0.20654 0.036 0.42254 0.108zm-1.0213-0.36191-0.3998-0.50402h0.26338l0.31454 0.33728 0.31453-0.33728h0.26338l-0.3998 0.50402z"/>
    <path d="m117.5 158.56h2.3931v0.32212h-1.0042v2.5068h-0.38464v-2.5068h-1.0042z"/>
    <path d="m120.26 158.56h1.7887v0.32212h-1.4059v0.8375h1.3472v0.32212h-1.3472v1.0251h1.44v0.32211h-1.8228zm0.72571-0.25769-0.39981-0.50402h0.26338l0.31454 0.33728 0.31454-0.33728h0.26337l-0.3998 0.50402z"/>
    <path d="m122.79 160.91h0.3998v0.32591l-0.31074 0.60634h-0.24443l0.15537-0.60634z"/>
    <path d="m125.14 158.56h0.38464v1.7186q0 0.45475 0.16485 0.6556 0.16485 0.19896 0.53434 0.19896 0.36759 0 0.53244-0.19896 0.16484-0.20085 0.16484-0.6556v-1.7186h0.38465v1.766q0 0.55328-0.27475 0.83561-0.27285 0.28232-0.80718 0.28232-0.53623 0-0.81098-0.28232-0.27285-0.28233-0.27285-0.83561z"/>
    <path d="m130.15 158.78v0.40359q-0.19327-0.18001-0.41307-0.26906-0.2179-0.0891-0.46422-0.0891-0.48507 0-0.74277 0.29749-0.25769 0.29559-0.25769 0.85645 0 0.55896 0.25769 0.85645 0.2577 0.29559 0.74277 0.29559 0.24632 0 0.46422-0.0891 0.2198-0.0891 0.41307-0.26906v0.3998q-0.20085 0.13643-0.42633 0.20464-0.22359 0.0682-0.4737 0.0682-0.64234 0-1.0118-0.39222-0.36948-0.39412-0.36948-1.0744 0-0.68213 0.36948-1.0744 0.36949-0.39412 1.0118-0.39412 0.2539 0 0.47749 0.0682 0.22548 0.0663 0.42254 0.20085zm-1.1369-0.48697-0.39981-0.50402h0.26338l0.31454 0.33728 0.31454-0.33728h0.26337l-0.3998 0.50402z"/>
    <path d="m130.74 158.56h1.7887v0.32212h-1.4059v0.8375h1.3472v0.32212h-1.3472v1.0251h1.44v0.32211h-1.8228z"/>
    <path d="m133.58 160.04v1.0365h0.61392q0.30885 0 0.45665-0.12695 0.14968-0.12885 0.14968-0.39223 0-0.26527-0.14968-0.39033-0.1478-0.12695-0.45665-0.12695zm0-1.1634v0.85266h0.56655q0.28043 0 0.41685-0.10421 0.13833-0.10611 0.13833-0.32212 0-0.21411-0.13833-0.32022-0.13642-0.10611-0.41685-0.10611zm-0.38275-0.31454h0.97772q0.4377 0 0.67455 0.18191 0.23685 0.1819 0.23685 0.51728 0 0.25958-0.12127 0.41306-0.12126 0.15348-0.35622 0.19138 0.28233 0.0606 0.4377 0.2539 0.15727 0.19138 0.15727 0.47939 0 0.37896-0.2577 0.58549-0.25769 0.20653-0.73328 0.20653h-1.0156z"/>
    <path d="m135.86 158.56h0.51539l1.2544 2.3666v-2.3666h0.37138v2.8289h-0.51539l-1.2544-2.3666v2.3666h-0.37138z"/>
    <path d="m138.37 158.56h0.41117l0.78445 1.1634 0.77876-1.1634h0.41117l-1.0004 1.4817v1.3472h-0.38465v-1.3472z"/>
    <path d="m143.31 158.94-0.51917 1.4078h1.0402zm-0.216-0.37707h0.43391l1.0781 2.8289h-0.39791l-0.25769-0.7257h-1.2752l-0.25769 0.7257h-0.40359z"/>
    <path d="m145.12 161.07h0.62528v-2.1582l-0.68023 0.13642v-0.34864l0.67644-0.13643h0.38275v2.5068h0.62529v0.32211h-1.6295z"/>
    <path d="m148.34 158.82q-0.29559 0-0.44528 0.2918-0.14779 0.28991-0.14779 0.87351 0 0.5817 0.14779 0.8735 0.14969 0.28991 0.44528 0.28991 0.29748 0 0.44528-0.28991 0.14969-0.2918 0.14969-0.8735 0-0.5836-0.14969-0.87351-0.1478-0.2918-0.44528-0.2918zm0-0.30317q0.4756 0 0.72571 0.37707 0.25201 0.37517 0.25201 1.0914 0 0.71434-0.25201 1.0914-0.25011 0.37517-0.72571 0.37517-0.47559 0-0.7276-0.37517-0.25012-0.37706-0.25012-1.0914 0-0.71624 0.25012-1.0914 0.25201-0.37707 0.7276-0.37707z"/>
    <path d="m150.33 161.07h1.3358v0.32211h-1.7963v-0.32211q0.2179-0.22548 0.59307-0.60444 0.37707-0.38086 0.4737-0.49076 0.1838-0.20653 0.2558-0.34864 0.0739-0.14401 0.0739-0.28233 0-0.22548-0.15916-0.36759-0.15727-0.14211-0.41118-0.14211-0.18 0-0.38085 0.0625-0.19896 0.0625-0.42633 0.18948v-0.38654q0.23116-0.0928 0.43201-0.14022 0.20085-0.0474 0.36759-0.0474 0.4396 0 0.70108 0.2198t0.26148 0.58739q0 0.17432-0.0663 0.33159-0.0644 0.15537-0.23685 0.36759-0.0474 0.0549-0.30128 0.31833-0.2539 0.26148-0.71623 0.73329z"/>
    <path d="m152.51 160.91h0.3998v0.32591l-0.31075 0.60634h-0.24443l0.15538-0.60634z"/>
    <path d="m155.85 158.94-0.51917 1.4078h1.0402zm-0.216-0.37707h0.43391l1.0781 2.8289h-0.39791l-0.25769-0.7257h-1.2752l-0.2577 0.7257h-0.40359z"/>
    <path d="m157.66 161.07h0.62528v-2.1582l-0.68023 0.13642v-0.34864l0.67644-0.13643h0.38275v2.5068h0.62529v0.32211h-1.6295z"/>
    <path d="m160.88 158.82q-0.29559 0-0.44528 0.2918-0.14779 0.28991-0.14779 0.87351 0 0.5817 0.14779 0.8735 0.14969 0.28991 0.44528 0.28991 0.29748 0 0.44528-0.28991 0.14969-0.2918 0.14969-0.8735 0-0.5836-0.14969-0.87351-0.1478-0.2918-0.44528-0.2918zm0-0.30317q0.47559 0 0.72571 0.37707 0.25201 0.37517 0.25201 1.0914 0 0.71434-0.25201 1.0914-0.25012 0.37517-0.72571 0.37517-0.4756 0-0.7276-0.37517-0.25012-0.37706-0.25012-1.0914 0-0.71624 0.25012-1.0914 0.252-0.37707 0.7276-0.37707z"/>
    <path d="m163.58 158.9-0.96635 1.5102h0.96635zm-0.10043-0.33349h0.48128v1.8436h0.40359v0.31832h-0.40359v0.66697h-0.38085v-0.66697h-1.2771v-0.36948z"/>
    <g fill="#162d50">
     <path d="m86.895 164.51v0.30541q-0.17828-0.0853-0.33641-0.12712-0.15813-0.0419-0.30541-0.0419-0.2558 0-0.39532 0.0992-0.13798 0.0992-0.13798 0.28215 0 0.15348 0.09147 0.23255 0.09302 0.0775 0.35037 0.12557l0.18914 0.0388q0.35037 0.0667 0.51625 0.23564 0.16743 0.16743 0.16743 0.44959 0 0.33641-0.22634 0.51004-0.22479 0.17364-0.66042 0.17364-0.16433 0-0.35037-0.0372-0.18448-0.0372-0.38292-0.11007v-0.32246q0.19069 0.10697 0.37362 0.16123 0.18294 0.0543 0.35967 0.0543 0.2682 0 0.41393-0.10542 0.14573-0.10542 0.14573-0.30076 0-0.17053-0.10542-0.26665-0.10387-0.0961-0.34262-0.14418l-0.19069-0.0372q-0.35037-0.0698-0.50695-0.21859-0.15658-0.14883-0.15658-0.41393 0-0.30696 0.21549-0.48369 0.21704-0.17674 0.59686-0.17674 0.16278 0 0.33176 0.0295 0.16898 0.0294 0.34572 0.0884z"/>
     <path d="m87.522 164.43h1.4635v0.26355h-1.1503v0.68523h1.1023v0.26355h-1.1023v0.83871h1.1782v0.26355h-1.4914z"/>
     <path d="m91.265 164.61v0.33022q-0.15813-0.14728-0.33796-0.22014-0.17828-0.0729-0.37982-0.0729-0.39688 0-0.60772 0.2434-0.21084 0.24184-0.21084 0.70073 0 0.45734 0.21084 0.70073 0.21084 0.24185 0.60772 0.24185 0.20154 0 0.37982-0.0729 0.17983-0.0729 0.33796-0.22014v0.32711q-0.16433 0.11163-0.34882 0.16744-0.18294 0.0558-0.38757 0.0558-0.52555 0-0.82786-0.32091-0.30231-0.32247-0.30231-0.87902 0-0.55811 0.30231-0.87902 0.30231-0.32246 0.82786-0.32246 0.20774 0 0.39067 0.0558 0.18448 0.0543 0.34572 0.16433z"/>
     <path d="m92.691 164.65q-0.34106 0-0.5426 0.25425-0.19999 0.25425-0.19999 0.69298 0 0.43718 0.19999 0.69143 0.20154 0.25425 0.5426 0.25425t0.5395-0.25425q0.19999-0.25425 0.19999-0.69143 0-0.43873-0.19999-0.69298-0.19844-0.25425-0.5395-0.25425zm0-0.25425q0.48679 0 0.77825 0.32711 0.29146 0.32557 0.29146 0.87437 0 0.54725-0.29146 0.87436-0.29146 0.32557-0.77825 0.32557-0.48834 0-0.78135-0.32557-0.29146-0.32556-0.29146-0.87436t0.29146-0.87437q0.29301-0.32711 0.78135-0.32711z"/>
     <path d="m94.251 164.43h0.42168l1.0263 1.9363v-1.9363h0.30386v2.3146h-0.42168l-1.0263-1.9363v1.9363h-0.30386z"/>
     <path d="m96.939 164.69v1.7999h0.37827q0.47904 0 0.70073-0.21704 0.22324-0.21704 0.22324-0.68523 0-0.46509-0.22324-0.68058-0.22169-0.21704-0.70073-0.21704zm-0.31316-0.25735h0.64337q0.67283 0 0.98754 0.2806 0.31471 0.27906 0.31471 0.87437 0 0.59841-0.31626 0.87901-0.31626 0.28061-0.98599 0.28061h-0.64337z"/>
     <path d="m99.787 164.74-0.42478 1.1519h0.85112zm-0.17673-0.30851h0.35502l0.88212 2.3146h-0.32557l-0.21084-0.59376h-1.0433l-0.21084 0.59376h-0.33021z"/>
     <path d="m102.28 165.66q0.10077 0.0341 0.19533 0.14573 0.0961 0.11162 0.19224 0.30696l0.31781 0.63252h-0.33641l-0.29611-0.59376q-0.11472-0.23255-0.22324-0.30851-0.10697-0.076-0.29301-0.076h-0.34106v0.97824h-0.31316v-2.3146h0.70693q0.39688 0 0.59222 0.16588 0.19533 0.16588 0.19533 0.50075 0 0.21859-0.10232 0.36277-0.10077 0.14417-0.29455 0.19998zm-0.78445-0.97203v0.82165h0.39377q0.22635 0 0.34107-0.10387 0.11627-0.10542 0.11627-0.3085 0-0.20309-0.11627-0.30541-0.11472-0.10387-0.34107-0.10387z"/>
     <path d="m102.87 164.43h0.33641l0.64182 0.95188 0.63717-0.95188h0.33642l-0.81856 1.2123v1.1023h-0.31471v-1.1023z"/>
     <path d="m107.53 164.51v0.30541q-0.17828-0.0853-0.33641-0.12712-0.15813-0.0419-0.30541-0.0419-0.2558 0-0.39533 0.0992-0.13797 0.0992-0.13797 0.28215 0 0.15348 0.0915 0.23255 0.093 0.0775 0.35036 0.12557l0.18914 0.0388q0.35036 0.0667 0.51625 0.23564 0.16743 0.16743 0.16743 0.44959 0 0.33641-0.22635 0.51004-0.22479 0.17364-0.66042 0.17364-0.16433 0-0.35037-0.0372-0.18448-0.0372-0.38292-0.11007v-0.32246q0.19069 0.10697 0.37362 0.16123 0.18294 0.0543 0.35967 0.0543 0.2682 0 0.41393-0.10542 0.14572-0.10542 0.14572-0.30076 0-0.17053-0.10541-0.26665-0.10387-0.0961-0.34262-0.14418l-0.19069-0.0372q-0.35036-0.0698-0.50694-0.21859-0.15658-0.14883-0.15658-0.41393 0-0.30696 0.21549-0.48369 0.21704-0.17674 0.59686-0.17674 0.16278 0 0.33177 0.0295 0.16898 0.0294 0.34571 0.0884z"/>
     <path d="m107.83 164.43h1.958v0.26355h-0.82166v2.051h-0.31471v-2.051h-0.82165z"/>
     <path d="m110.62 164.74-0.42478 1.1519h0.85111zm-0.17674-0.30851h0.35502l0.88212 2.3146h-0.32557l-0.21084-0.59376h-1.0433l-0.21084 0.59376h-0.33021z"/>
     <path d="m112.02 164.43h0.31316v2.3146h-0.31316z"/>
     <path d="m114.05 165.66q0.10077 0.0341 0.19534 0.14573 0.0961 0.11162 0.19224 0.30696l0.31781 0.63252h-0.33642l-0.2961-0.59376q-0.11473-0.23255-0.22325-0.30851-0.10697-0.076-0.293-0.076h-0.34107v0.97824h-0.31316v-2.3146h0.70694q0.39687 0 0.59221 0.16588t0.19534 0.50075q0 0.21859-0.10232 0.36277-0.10077 0.14417-0.29456 0.19998zm-0.78445-0.97203v0.82165h0.39378q0.22634 0 0.34106-0.10387 0.11627-0.10542 0.11627-0.3085 0-0.20309-0.11627-0.30541-0.11472-0.10387-0.34106-0.10387z"/>
     <path d="m116.55 164.51v0.30541q-0.17829-0.0853-0.33642-0.12712-0.15813-0.0419-0.30541-0.0419-0.25579 0-0.39532 0.0992-0.13798 0.0992-0.13798 0.28215 0 0.15348 0.0915 0.23255 0.093 0.0775 0.35037 0.12557l0.18913 0.0388q0.35037 0.0667 0.51625 0.23564 0.16743 0.16743 0.16743 0.44959 0 0.33641-0.22634 0.51004-0.22479 0.17364-0.66043 0.17364-0.16433 0-0.35036-0.0372-0.18449-0.0372-0.38292-0.11007v-0.32246q0.19068 0.10697 0.37362 0.16123 0.18293 0.0543 0.35966 0.0543 0.2682 0 0.41393-0.10542t0.14573-0.30076q0-0.17053-0.10542-0.26665-0.10387-0.0961-0.34261-0.14418l-0.19069-0.0372q-0.35037-0.0698-0.50695-0.21859-0.15658-0.14883-0.15658-0.41393 0-0.30696 0.21549-0.48369 0.21705-0.17674 0.59687-0.17674 0.16278 0 0.33176 0.0295 0.16898 0.0294 0.34572 0.0884z"/>
     <path d="m117.24 166.36h0.32711v0.26665l-0.25425 0.4961h-0.19999l0.12713-0.4961z"/>
     <path d="m120.93 164.61v0.33022q-0.15813-0.14728-0.33797-0.22014-0.17828-0.0729-0.37982-0.0729-0.39688 0-0.60772 0.2434-0.21084 0.24184-0.21084 0.70073 0 0.45734 0.21084 0.70073 0.21084 0.24185 0.60772 0.24185 0.20154 0 0.37982-0.0729 0.17984-0.0729 0.33797-0.22014v0.32711q-0.16434 0.11163-0.34882 0.16744-0.18294 0.0558-0.38757 0.0558-0.52555 0-0.82786-0.32091-0.30231-0.32247-0.30231-0.87902 0-0.55811 0.30231-0.87902 0.30231-0.32246 0.82786-0.32246 0.20774 0 0.39067 0.0558 0.18448 0.0543 0.34572 0.16433z"/>
     <path d="m121.42 164.43h0.31316v2.051h1.1271v0.26355h-1.4402z"/>
     <path d="m124.03 164.74-0.42478 1.1519h0.85111zm-0.17673-0.30851h0.35502l0.88211 2.3146h-0.32556l-0.21084-0.59376h-1.0434l-0.21084 0.59376h-0.33021z"/>
     <path d="m126.82 164.51v0.30541q-0.17829-0.0853-0.33642-0.12712-0.15813-0.0419-0.3054-0.0419-0.2558 0-0.39533 0.0992-0.13797 0.0992-0.13797 0.28215 0 0.15348 0.0915 0.23255 0.093 0.0775 0.35037 0.12557l0.18913 0.0388q0.35037 0.0667 0.51625 0.23564 0.16743 0.16743 0.16743 0.44959 0 0.33641-0.22634 0.51004-0.22479 0.17364-0.66042 0.17364-0.16433 0-0.35037-0.0372-0.18448-0.0372-0.38292-0.11007v-0.32246q0.19068 0.10697 0.37362 0.16123 0.18293 0.0543 0.35967 0.0543 0.2682 0 0.41392-0.10542 0.14573-0.10542 0.14573-0.30076 0-0.17053-0.10542-0.26665-0.10387-0.0961-0.34261-0.14418l-0.19069-0.0372q-0.35036-0.0698-0.50694-0.21859-0.15658-0.14883-0.15658-0.41393 0-0.30696 0.21549-0.48369 0.21704-0.17674 0.59686-0.17674 0.16278 0 0.33176 0.0295 0.16898 0.0294 0.34572 0.0884z"/>
     <path d="m128.83 164.51v0.30541q-0.17829-0.0853-0.33642-0.12712-0.15812-0.0419-0.3054-0.0419-0.2558 0-0.39533 0.0992-0.13797 0.0992-0.13797 0.28215 0 0.15348 0.0915 0.23255 0.093 0.0775 0.35037 0.12557l0.18914 0.0388q0.35036 0.0667 0.51624 0.23564 0.16743 0.16743 0.16743 0.44959 0 0.33641-0.22634 0.51004-0.22479 0.17364-0.66042 0.17364-0.16433 0-0.35037-0.0372-0.18448-0.0372-0.38292-0.11007v-0.32246q0.19068 0.10697 0.37362 0.16123 0.18293 0.0543 0.35967 0.0543 0.2682 0 0.41393-0.10542 0.14572-0.10542 0.14572-0.30076 0-0.17053-0.10542-0.26665-0.10387-0.0961-0.34261-0.14418l-0.19069-0.0372q-0.35036-0.0698-0.50694-0.21859-0.15658-0.14883-0.15658-0.41393 0-0.30696 0.21549-0.48369 0.21704-0.17674 0.59686-0.17674 0.16278 0 0.33176 0.0295 0.16899 0.0294 0.34572 0.0884z"/>
     <path d="m130.56 165.66q0.10077 0.0341 0.19534 0.14573 0.0961 0.11162 0.19224 0.30696l0.31781 0.63252h-0.33642l-0.2961-0.59376q-0.11472-0.23255-0.22324-0.30851-0.10697-0.076-0.29301-0.076h-0.34106v0.97824h-0.31316v-2.3146h0.70693q0.39688 0 0.59221 0.16588 0.19534 0.16588 0.19534 0.50075 0 0.21859-0.10232 0.36277-0.10077 0.14417-0.29456 0.19998zm-0.78444-0.97203v0.82165h0.39377q0.22634 0 0.34107-0.10387 0.11627-0.10542 0.11627-0.3085 0-0.20309-0.11627-0.30541-0.11473-0.10387-0.34107-0.10387z"/>
     <path d="m132.61 164.65q-0.34107 0-0.54261 0.25425-0.19998 0.25425-0.19998 0.69298 0 0.43718 0.19998 0.69143 0.20154 0.25425 0.54261 0.25425 0.34106 0 0.5395-0.25425 0.19999-0.25425 0.19999-0.69143 0-0.43873-0.19999-0.69298-0.19844-0.25425-0.5395-0.25425zm0-0.25425q0.48679 0 0.77824 0.32711 0.29146 0.32557 0.29146 0.87437 0 0.54725-0.29146 0.87436-0.29145 0.32557-0.77824 0.32557-0.48835 0-0.78135-0.32557-0.29146-0.32556-0.29146-0.87436t0.29146-0.87437q0.293-0.32711 0.78135-0.32711z"/>
     <path d="m135.11 164.65q-0.34106 0-0.5426 0.25425-0.19999 0.25425-0.19999 0.69298 0 0.43718 0.19999 0.69143 0.20154 0.25425 0.5426 0.25425 0.34107 0 0.5395-0.25425 0.19999-0.25425 0.19999-0.69143 0-0.43873-0.19999-0.69298-0.19843-0.25425-0.5395-0.25425zm0-0.25425q0.48679 0 0.77825 0.32711 0.29145 0.32557 0.29145 0.87437 0 0.54725-0.29145 0.87436-0.29146 0.32557-0.77825 0.32557-0.48834 0-0.78135-0.32557-0.29145-0.32556-0.29145-0.87436t0.29145-0.87437q0.29301-0.32711 0.78135-0.32711z"/>
     <path d="m136.67 164.43h0.46664l0.59066 1.5751 0.59377-1.5751h0.46663v2.3146h-0.3054v-2.0324l-0.59687 1.5875h-0.31471l-0.59686-1.5875v2.0324h-0.30386z"/>
     <path d="m140.8 164.51v0.30541q-0.17829-0.0853-0.33642-0.12712-0.15813-0.0419-0.3054-0.0419-0.2558 0-0.39533 0.0992-0.13797 0.0992-0.13797 0.28215 0 0.15348 0.0915 0.23255 0.093 0.0775 0.35037 0.12557l0.18913 0.0388q0.35037 0.0667 0.51625 0.23564 0.16743 0.16743 0.16743 0.44959 0 0.33641-0.22634 0.51004-0.22479 0.17364-0.66042 0.17364-0.16433 0-0.35037-0.0372-0.18448-0.0372-0.38292-0.11007v-0.32246q0.19068 0.10697 0.37362 0.16123 0.18293 0.0543 0.35967 0.0543 0.2682 0 0.41392-0.10542 0.14573-0.10542 0.14573-0.30076 0-0.17053-0.10542-0.26665-0.10387-0.0961-0.34261-0.14418l-0.19069-0.0372q-0.35036-0.0698-0.50694-0.21859-0.15658-0.14883-0.15658-0.41393 0-0.30696 0.21549-0.48369 0.21704-0.17674 0.59686-0.17674 0.16278 0 0.33176 0.0295 0.16898 0.0294 0.34572 0.0884z"/>
     <path d="m143.21 164.74-0.42478 1.1519h0.85111zm-0.17673-0.30851h0.35501l0.88212 2.3146h-0.32556l-0.21084-0.59376h-1.0434l-0.21084 0.59376h-0.33021z"/>
     <path d="m144.69 166.49h0.5116v-1.7658l-0.55656 0.11163v-0.28526l0.55346-0.11162h0.31316v2.051h0.51159v0.26355h-1.3332z"/>
     <path d="m147.32 164.64q-0.24185 0-0.36432 0.23874-0.12092 0.2372-0.12092 0.71469 0 0.47594 0.12092 0.71468 0.12247 0.2372 0.36432 0.2372 0.2434 0 0.36432-0.2372 0.12247-0.23874 0.12247-0.71468 0-0.47749-0.12247-0.71469-0.12092-0.23874-0.36432-0.23874zm0-0.24805q0.38912 0 0.59376 0.30851 0.20619 0.30696 0.20619 0.89297 0 0.58446-0.20619 0.89297-0.20464 0.30696-0.59376 0.30696t-0.59531-0.30696q-0.20464-0.30851-0.20464-0.89297 0-0.58601 0.20464-0.89297 0.20619-0.30851 0.59531-0.30851z"/>
     <path d="m148.95 166.49h1.093v0.26355h-1.4697v-0.26355q0.17828-0.18449 0.48524-0.49455 0.30851-0.3116 0.38757-0.40152 0.15038-0.16898 0.20929-0.28526 0.0605-0.11782 0.0605-0.23099 0-0.18448-0.13022-0.30076-0.12868-0.11627-0.33642-0.11627-0.14727 0-0.3116 0.0512-0.16279 0.0512-0.34882 0.15503v-0.31626q0.18914-0.076 0.35347-0.11472 0.16433-0.0388 0.30075-0.0388 0.35967 0 0.57361 0.17984 0.21394 0.17983 0.21394 0.48059 0 0.14262-0.0543 0.2713-0.0527 0.12712-0.19379 0.30076-0.0387 0.045-0.24649 0.26044-0.20774 0.21395-0.58601 0.59997z"/>
     <path d="m150.73 166.36h0.32711v0.26665l-0.25425 0.4961h-0.19999l0.12713-0.4961z"/>
     <path d="m153.46 164.74-0.42478 1.1519h0.85111zm-0.17674-0.30851h0.35502l0.88212 2.3146h-0.32556l-0.21084-0.59376h-1.0434l-0.21084 0.59376h-0.33021z"/>
     <path d="m154.94 166.49h0.51159v-1.7658l-0.55655 0.11163v-0.28526l0.55345-0.11162h0.31316v2.051h0.5116v0.26355h-1.3332z"/>
     <path d="m157.58 164.64q-0.24185 0-0.36432 0.23874-0.12093 0.2372-0.12093 0.71469 0 0.47594 0.12093 0.71468 0.12247 0.2372 0.36432 0.2372 0.24339 0 0.36432-0.2372 0.12247-0.23874 0.12247-0.71468 0-0.47749-0.12247-0.71469-0.12093-0.23874-0.36432-0.23874zm0-0.24805q0.38912 0 0.59376 0.30851 0.20619 0.30696 0.20619 0.89297 0 0.58446-0.20619 0.89297-0.20464 0.30696-0.59376 0.30696-0.38913 0-0.59532-0.30696-0.20463-0.30851-0.20463-0.89297 0-0.58601 0.20463-0.89297 0.20619-0.30851 0.59532-0.30851z"/>
     <path d="m159.79 164.71-0.79065 1.2356h0.79065zm-0.0822-0.27285h0.39377v1.5084h0.33022v0.26044h-0.33022v0.54571h-0.3116v-0.54571h-1.0449v-0.3023z"/>
    </g>
   </g>
  </g>
 </g>
</svg>
