<?xml version="1.0" encoding="UTF-8"?>
<!-- Created with Inkscape (http://www.inkscape.org/) -->
<svg width="210mm" height="297mm" version="1.1" viewBox="0 0 210 297" xmlns="http://www.w3.org/2000/svg" xmlns:cc="http://creativecommons.org/ns#" xmlns:dc="http://purl.org/dc/elements/1.1/" xmlns:rdf="http://www.w3.org/1999/02/22-rdf-syntax-ns#">
 <metadata>
  <rdf:RDF>
   <cc:Work rdf:about="">
    <dc:format>image/svg+xml</dc:format>
    <dc:type rdf:resource="http://purl.org/dc/dcmitype/StillImage"/>
    <dc:title/>
   </cc:Work>
  </rdf:RDF>
 </metadata>
 <g>
  <path d="m0.53252 202.68h112.78v93.788h-112.78z" fill="#e6ded6" stroke="#363636" stroke-width="1.065"/>
  <path d="m0.63949 202.66h112.7v13.394h-112.7z" fill="#0c0d21" stroke="#363636" stroke-width=".40233"/>
  <g fill="#e2e1d7" stroke-width=".26458" aria-label="PODLAŽÍ 1 FLOOR">
   <path d="m83.105 205.43v1.063h0.48128q0.26717 0 0.41307-0.13832t0.1459-0.39412q0-0.25391-0.1459-0.39223t-0.41307-0.13832zm-0.38275-0.31453h0.86403q0.4756 0 0.71813 0.216 0.24443 0.21412 0.24443 0.62908 0 0.41875-0.24443 0.63286-0.24254 0.21411-0.71813 0.21411h-0.48128v1.1369h-0.38275z"/>
   <path d="m86.213 205.38q-0.41686 0-0.66318 0.31075-0.24443 0.31075-0.24443 0.84698 0 0.53433 0.24443 0.84508 0.24632 0.31075 0.66318 0.31075 0.41686 0 0.65939-0.31075 0.24443-0.31075 0.24443-0.84508 0-0.53623-0.24443-0.84698-0.24254-0.31075-0.65939-0.31075zm0-0.31074q0.59497 0 0.95119 0.3998 0.35622 0.39791 0.35622 1.0687 0 0.66886-0.35622 1.0687-0.35622 0.39791-0.95119 0.39791-0.59686 0-0.95498-0.39791-0.35622-0.39791-0.35622-1.0687t0.35622-1.0687q0.35812-0.3998 0.95498-0.3998z"/>
   <path d="m88.502 205.43v2.1999h0.46233q0.58549 0 0.85645-0.26527 0.27285-0.26528 0.27285-0.83751 0-0.56844-0.27285-0.83181-0.27096-0.26528-0.85645-0.26528zm-0.38275-0.31453h0.78634q0.82234 0 1.207 0.34296 0.38464 0.34106 0.38464 1.0687 0 0.7314-0.38654 1.0744t-1.2051 0.34296h-0.78634z"/>
   <path d="m91.105 205.12h0.38275v2.5068h1.3775v0.32212h-1.7603z"/>
   <path d="m94.302 205.5-0.51918 1.4078h1.0402zm-0.21601-0.37706h0.43391l1.0781 2.8289h-0.39791l-0.25769-0.72571h-1.2752l-0.25769 0.72571h-0.40359z"/>
   <path d="m95.846 205.12h2.2226v0.2918l-1.7887 2.215h1.8323v0.32212h-2.3098v-0.2918l1.7887-2.215h-1.7451zm0.93414-0.26907-0.3998-0.50401h0.26338l0.31454 0.33727 0.31454-0.33727h0.26338l-0.3998 0.50401z"/>
   <path d="m98.669 205.12h0.38275v2.8289h-0.38275zm0.29748-0.76929h0.35054l-0.43202 0.50022h-0.2899z"/>
   <path d="m82.823 212.98h0.62528v-2.1582l-0.68023 0.13643v-0.34864l0.67644-0.13643h0.38275v2.5068h0.62528v0.32212h-1.6295z"/>
   <path d="m86.429 210.48h1.6257v0.32212h-1.243v0.83371h1.1217v0.32212h-1.1217v1.351h-0.38275z"/>
   <path d="m88.665 210.48h0.38275v2.5068h1.3775v0.32212h-1.7603z"/>
   <path d="m91.837 210.74q-0.41686 0-0.66318 0.31074-0.24443 0.31075-0.24443 0.84698 0 0.53434 0.24443 0.84508 0.24632 0.31075 0.66318 0.31075 0.41686 0 0.65939-0.31075 0.24443-0.31074 0.24443-0.84508 0-0.53623-0.24443-0.84698-0.24254-0.31074-0.65939-0.31074zm0-0.31075q0.59497 0 0.95119 0.3998 0.35622 0.39791 0.35622 1.0687 0 0.66887-0.35622 1.0687-0.35622 0.39791-0.95119 0.39791-0.59686 0-0.95498-0.39791-0.35622-0.39791-0.35622-1.0687t0.35622-1.0687q0.35812-0.3998 0.95498-0.3998z"/>
   <path d="m94.891 210.74q-0.41686 0-0.66318 0.31074-0.24443 0.31075-0.24443 0.84698 0 0.53434 0.24443 0.84508 0.24632 0.31075 0.66318 0.31075 0.41686 0 0.65939-0.31075 0.24443-0.31074 0.24443-0.84508 0-0.53623-0.24443-0.84698-0.24254-0.31074-0.65939-0.31074zm0-0.31075q0.59497 0 0.95119 0.3998 0.35622 0.39791 0.35622 1.0687 0 0.66887-0.35622 1.0687-0.35622 0.39791-0.95119 0.39791-0.59686 0-0.95498-0.39791-0.35622-0.39791-0.35622-1.0687t0.35622-1.0687q0.35812-0.3998 0.95498-0.3998z"/>
   <path d="m98.139 211.98q0.12316 0.0417 0.23874 0.17811 0.11748 0.13642 0.23496 0.37517l0.38844 0.77308h-0.41117l-0.36191-0.72571q-0.14022-0.28422-0.27285-0.37707-0.13074-0.0928-0.35812-0.0928h-0.41686v1.1956h-0.38275v-2.8289h0.86403q0.48507 0 0.72382 0.20274 0.23874 0.20275 0.23874 0.61202 0 0.26717-0.12506 0.44339-0.12316 0.17621-0.36001 0.24443zm-0.95877-1.188v1.0042h0.48128q0.27664 0 0.41686-0.12695 0.14211-0.12885 0.14211-0.37707 0-0.24821-0.14211-0.37327-0.14022-0.12695-0.41686-0.12695z"/>
  </g>
  <g fill="#e6ded6">
   <g aria-label="A">
    <path d="m107.65 211.74h-3.7331l-0.58911 1.6867h-2.3998l3.4292-9.2584h2.8463l3.4292 9.2584h-2.3998zm-3.1378-1.7177h2.5363l-1.265-3.6835z" fill="#e6ded6" stroke-width=".26458"/>
   </g>
   <g stroke="#363636" stroke-width=".40242">
    <path d="m0.58937 216.05h112.75v13.394h-112.75z"/>
    <path d="m0.58936 229.44h112.75v13.394h-112.75z"/>
    <path d="m0.58936 242.84h112.75v13.394h-112.75z"/>
    <path d="m0.58936 256.23h112.75v13.394h-112.75z"/>
    <path d="m0.58936 269.63h112.75v13.394h-112.75z"/>
    <path d="m0.58936 283.02h112.75v13.394h-112.75z"/>
   </g>
  </g>
  <g stroke-width=".26458">
   <g aria-label="↑  2. PODLAŽÍ       DĚKANÁT FM, STUDIJNÍ ODDĚLENÍ FM       2. FLOOR                FM DEAN'S OFFICE, STUDENT AFFAIRS">
    <g stroke-width=".26458">
     <path d="m3.5802 245.4h0.17053l0.74276 0.74655-0.22738 0.22737-0.43959-0.44338v2.3117h-0.32212v-2.3117l-0.44338 0.44338-0.22738-0.22737z"/>
     <path d="m8.5067 247.92h1.3358v0.32212h-1.7963v-0.32212q0.2179-0.22548 0.59307-0.60444 0.37707-0.38085 0.4737-0.49075 0.1838-0.20654 0.2558-0.34865 0.073897-0.144 0.073897-0.28232 0-0.22548-0.15916-0.36759-0.15727-0.14211-0.41117-0.14211-0.18001 0-0.38086 0.0625-0.19895 0.0625-0.42633 0.18948v-0.38654q0.23117-0.0928 0.43202-0.14021 0.20085-0.0474 0.36759-0.0474 0.43959 0 0.70108 0.2198 0.26148 0.21979 0.26148 0.58739 0 0.17432-0.066318 0.33159-0.064423 0.15537-0.23685 0.36759-0.04737 0.0549-0.30127 0.31832-0.2539 0.26149-0.71624 0.73329z"/>
     <path d="m10.648 247.76h0.3998v0.48128h-0.3998z"/>
     <path d="m13.467 245.73v1.063h0.48128q0.26717 0 0.41307-0.13832 0.1459-0.13832 0.1459-0.39412 0-0.2539-0.1459-0.39222-0.1459-0.13832-0.41307-0.13832zm-0.38275-0.31454h0.86403q0.4756 0 0.71813 0.21601 0.24443 0.21411 0.24443 0.62907 0 0.41875-0.24443 0.63287-0.24254 0.21411-0.71813 0.21411h-0.48128v1.1369h-0.38275z"/>
     <path d="m16.575 245.67q-0.41686 0-0.66318 0.31074-0.24443 0.31075-0.24443 0.84698 0 0.53434 0.24443 0.84508 0.24632 0.31075 0.66318 0.31075 0.41686 0 0.65939-0.31075 0.24443-0.31074 0.24443-0.84508 0-0.53623-0.24443-0.84698-0.24254-0.31074-0.65939-0.31074zm0-0.31075q0.59497 0 0.95119 0.3998 0.35622 0.39791 0.35622 1.0687 0 0.66887-0.35622 1.0687-0.35622 0.39791-0.95119 0.39791-0.59686 0-0.95498-0.39791-0.35622-0.39791-0.35622-1.0687t0.35622-1.0687q0.35812-0.3998 0.95498-0.3998z"/>
     <path d="m18.864 245.73v2.1999h0.46233q0.58549 0 0.85645-0.26527 0.27285-0.26527 0.27285-0.8375 0-0.56844-0.27285-0.83182-0.27096-0.26527-0.85645-0.26527zm-0.38275-0.31454h0.78634q0.82234 0 1.207 0.34296 0.38464 0.34106 0.38464 1.0687 0 0.73139-0.38654 1.0744t-1.2051 0.34296h-0.78634z"/>
     <path d="m21.467 245.41h0.38275v2.5068h1.3775v0.32212h-1.7603z"/>
     <path d="m24.664 245.79-0.51918 1.4078h1.0402zm-0.21601-0.37706h0.43391l1.0781 2.8289h-0.39791l-0.25769-0.72571h-1.2752l-0.25769 0.72571h-0.40359z"/>
     <path d="m26.208 245.41h2.2226v0.2918l-1.7887 2.215h1.8323v0.32212h-2.3098v-0.2918l1.7887-2.215h-1.7451zm0.93414-0.26906-0.3998-0.50402h0.26338l0.31454 0.33727 0.31454-0.33727h0.26338l-0.3998 0.50402z"/>
     <path d="m29.031 245.41h0.38275v2.8289h-0.38275zm0.29748-0.76929h0.35054l-0.43202 0.50023h-0.2899z"/>
     <path d="m39.206 245.73v2.1999h0.46233q0.58549 0 0.85645-0.26527 0.27285-0.26527 0.27285-0.8375 0-0.56844-0.27285-0.83182-0.27096-0.26527-0.85645-0.26527zm-0.38275-0.31454h0.78634q0.82234 0 1.207 0.34296 0.38464 0.34106 0.38464 1.0687 0 0.73139-0.38654 1.0744-0.38654 0.34296-1.2051 0.34296h-0.78634z"/>
     <path d="m41.81 245.41h1.7887v0.32212h-1.4059v0.8375h1.3472v0.32211h-1.3472v1.0251h1.44v0.32212h-1.8228zm0.72571-0.25769-0.3998-0.50402h0.26338l0.31454 0.33727 0.31454-0.33727h0.26338l-0.3998 0.50402z"/>
     <path d="m44.265 245.41h0.38275v1.1956l1.2695-1.1956h0.49265l-1.404 1.3188 1.5045 1.5102h-0.50402l-1.3586-1.3624v1.3624h-0.38275z"/>
     <path d="m47.689 245.79-0.51918 1.4078h1.0402zm-0.21601-0.37706h0.43391l1.0781 2.8289h-0.39791l-0.25769-0.72571h-1.2752l-0.25769 0.72571h-0.40359z"/>
     <path d="m49.397 245.41h0.51539l1.2544 2.3666v-2.3666h0.37138v2.8289h-0.51539l-1.2544-2.3666v2.3666h-0.37138z"/>
     <path d="m53.245 245.79-0.51918 1.4078h1.0402zm-0.21601-0.37706h0.43391l1.0781 2.8289h-0.39791l-0.25769-0.72571h-1.2752l-0.25769 0.72571h-0.40359zm0.32022-0.76929h0.35054l-0.43202 0.50023h-0.2899z"/>
     <path d="m54.257 245.41h2.3931v0.32212h-1.0042v2.5068h-0.38464v-2.5068h-1.0042z"/>
     <path d="m58.257 245.41h1.6257v0.32212h-1.243v0.83371h1.1217v0.32212h-1.1217v1.351h-0.38275z"/>
     <path d="m60.493 245.41h0.57034l0.72192 1.9251 0.72571-1.9251h0.57034v2.8289h-0.37328v-2.4841l-0.7295 1.9403h-0.38464l-0.7295-1.9403v2.4841h-0.37138z"/>
     <path d="m63.916 247.76h0.3998v0.32591l-0.31075 0.60633h-0.24443l0.15537-0.60633z"/>
     <path d="m68.009 245.51v0.37328q-0.2179-0.10421-0.41117-0.15537-0.19327-0.0512-0.37328-0.0512-0.31264 0-0.48318 0.12126-0.16864 0.12127-0.16864 0.34486 0 0.18758 0.11179 0.28422 0.11369 0.0947 0.42823 0.15348l0.23116 0.0474q0.42823 0.0815 0.63097 0.28801 0.20464 0.20464 0.20464 0.54949 0 0.41117-0.27664 0.62339-0.27475 0.21222-0.80719 0.21222-0.20085 0-0.42822-0.0455-0.22548-0.0455-0.46802-0.13453v-0.39412q0.23306 0.13074 0.45665 0.19706 0.22359 0.0663 0.43959 0.0663 0.3278 0 0.50591-0.12885 0.17811-0.12884 0.17811-0.36759 0-0.20843-0.12885-0.3259-0.12695-0.11748-0.41875-0.17622l-0.23306-0.0455q-0.42822-0.0853-0.6196-0.26716-0.19138-0.1819-0.19138-0.50591 0-0.37518 0.26338-0.59118 0.26527-0.21601 0.7295-0.21601 0.19896 0 0.40549 0.036 0.20653 0.036 0.42254 0.108z"/>
     <path d="m68.384 245.41h2.3931v0.32212h-1.0042v2.5068h-0.38464v-2.5068h-1.0042z"/>
     <path d="m71.105 245.41h0.38464v1.7186q0 0.45476 0.16485 0.65561 0.16485 0.19895 0.53433 0.19895 0.36759 0 0.53244-0.19895 0.16485-0.20085 0.16485-0.65561v-1.7186h0.38464v1.766q0 0.55328-0.27475 0.8356-0.27285 0.28233-0.80719 0.28233-0.53623 0-0.81098-0.28233-0.27285-0.28232-0.27285-0.8356z"/>
     <path d="m74.374 245.73v2.1999h0.46233q0.58549 0 0.85645-0.26527 0.27285-0.26527 0.27285-0.8375 0-0.56844-0.27285-0.83182-0.27096-0.26527-0.85645-0.26527zm-0.38275-0.31454h0.78634q0.82234 0 1.207 0.34296 0.38464 0.34106 0.38464 1.0687 0 0.73139-0.38654 1.0744-0.38654 0.34296-1.2051 0.34296h-0.78634z"/>
     <path d="m76.977 245.41h0.38275v2.8289h-0.38275z"/>
     <path d="m78.122 245.41h0.38275v2.6319q0 0.5116-0.19516 0.74276-0.19327 0.23117-0.62339 0.23117h-0.1459v-0.32212h0.11937q0.2539 0 0.35812-0.14211 0.10421-0.14211 0.10421-0.5097z"/>
     <path d="m79.266 245.41h0.51539l1.2544 2.3666v-2.3666h0.37138v2.8289h-0.51539l-1.2544-2.3666v2.3666h-0.37138z"/>
     <path d="m82.169 245.41h0.38275v2.8289h-0.38275zm0.29748-0.76929h0.35054l-0.43202 0.50023h-0.2899z"/>
     <path d="m85.697 245.67q-0.41686 0-0.66318 0.31074-0.24443 0.31075-0.24443 0.84698 0 0.53434 0.24443 0.84508 0.24632 0.31075 0.66318 0.31075 0.41686 0 0.65939-0.31075 0.24443-0.31074 0.24443-0.84508 0-0.53623-0.24443-0.84698-0.24254-0.31074-0.65939-0.31074zm0-0.31075q0.59497 0 0.95119 0.3998 0.35622 0.39791 0.35622 1.0687 0 0.66887-0.35622 1.0687-0.35622 0.39791-0.95119 0.39791-0.59686 0-0.95498-0.39791-0.35622-0.39791-0.35622-1.0687t0.35622-1.0687q0.35812-0.3998 0.95498-0.3998z"/>
     <path d="m87.986 245.73v2.1999h0.46233q0.58549 0 0.85645-0.26527 0.27285-0.26527 0.27285-0.8375 0-0.56844-0.27285-0.83182-0.27096-0.26527-0.85645-0.26527zm-0.38275-0.31454h0.78634q0.82234 0 1.207 0.34296 0.38464 0.34106 0.38464 1.0687 0 0.73139-0.38654 1.0744t-1.2051 0.34296h-0.78634z"/>
     <path d="m90.972 245.73v2.1999h0.46233q0.58549 0 0.85645-0.26527 0.27285-0.26527 0.27285-0.8375 0-0.56844-0.27285-0.83182-0.27096-0.26527-0.85645-0.26527zm-0.38275-0.31454h0.78634q0.82234 0 1.207 0.34296 0.38464 0.34106 0.38464 1.0687 0 0.73139-0.38654 1.0744t-1.2051 0.34296h-0.78634z"/>
     <path d="m93.576 245.41h1.7887v0.32212h-1.4059v0.8375h1.3472v0.32211h-1.3472v1.0251h1.44v0.32212h-1.8228zm0.72571-0.25769-0.3998-0.50402h0.26338l0.31454 0.33727 0.31454-0.33727h0.26338l-0.3998 0.50402z"/>
     <path d="m96.031 245.41h0.38275v2.5068h1.3775v0.32212h-1.7603z"/>
     <path d="m98.192 245.41h1.7887v0.32212h-1.4059v0.8375h1.3472v0.32211h-1.3472v1.0251h1.44v0.32212h-1.8228z"/>
     <path d="m100.65 245.41h0.51539l1.2544 2.3666v-2.3666h0.37138v2.8289h-0.51539l-1.2544-2.3666v2.3666h-0.37138z"/>
     <path d="m103.55 245.41h0.38275v2.8289h-0.38275zm0.29749-0.76929h0.35053l-0.43201 0.50023h-0.28991z"/>
     <path d="m105.93 245.41h1.6257v0.32212h-1.243v0.83371h1.1217v0.32212h-1.1217v1.351h-0.38275z"/>
     <path d="m108.17 245.41h0.57034l0.72192 1.9251 0.7257-1.9251h0.57034v2.8289h-0.37328v-2.4841l-0.7295 1.9403h-0.38464l-0.7295-1.9403v2.4841h-0.37138z"/>
    </g>
    <g fill="#162d50">
     <path d="m8.8261 253.34h1.093v0.26355h-1.4697v-0.26355q0.17828-0.18448 0.48524-0.49454 0.30851-0.31161 0.38757-0.40153 0.15038-0.16898 0.20929-0.28525 0.060461-0.11782 0.060461-0.23099 0-0.18449-0.13022-0.30076-0.12867-0.11627-0.33641-0.11627-0.14728 0-0.31161 0.0512-0.16278 0.0512-0.34882 0.15503v-0.31626q0.18914-0.076 0.35347-0.11473 0.16433-0.0388 0.30076-0.0388 0.35967 0 0.57361 0.17983 0.21394 0.17984 0.21394 0.48059 0 0.14263-0.05426 0.2713-0.05271 0.12713-0.19379 0.30076-0.038757 0.045-0.2465 0.26045-0.20774 0.21394-0.58601 0.59996z"/>
     <path d="m10.578 253.21h0.32711v0.39377h-0.32711z"/>
     <path d="m12.572 251.29h1.3302v0.26354h-1.017v0.68213h0.91777v0.26355h-0.91777v1.1054h-0.31316z"/>
     <path d="m14.401 251.29h0.31316v2.051h1.1271v0.26355h-1.4402z"/>
     <path d="m16.996 251.5q-0.34106 0-0.5426 0.25424-0.19999 0.25425-0.19999 0.69298 0 0.43719 0.19999 0.69143 0.20154 0.25425 0.5426 0.25425 0.34106 0 0.5395-0.25425 0.19999-0.25424 0.19999-0.69143 0-0.43873-0.19999-0.69298-0.19844-0.25424-0.5395-0.25424zm0-0.25425q0.48679 0 0.77825 0.32711 0.29146 0.32556 0.29146 0.87436 0 0.54726-0.29146 0.87437-0.29146 0.32556-0.77825 0.32556-0.48834 0-0.78135-0.32556-0.29146-0.32556-0.29146-0.87437 0-0.5488 0.29146-0.87436 0.293-0.32711 0.78135-0.32711z"/>
     <path d="m19.495 251.5q-0.34106 0-0.5426 0.25424-0.19999 0.25425-0.19999 0.69298 0 0.43719 0.19999 0.69143 0.20154 0.25425 0.5426 0.25425 0.34106 0 0.5395-0.25425 0.19999-0.25424 0.19999-0.69143 0-0.43873-0.19999-0.69298-0.19844-0.25424-0.5395-0.25424zm0-0.25425q0.48679 0 0.77825 0.32711 0.29146 0.32556 0.29146 0.87436 0 0.54726-0.29146 0.87437-0.29146 0.32556-0.77825 0.32556-0.48834 0-0.78135-0.32556-0.29146-0.32556-0.29146-0.87437 0-0.5488 0.29146-0.87436 0.293-0.32711 0.78135-0.32711z"/>
     <path d="m22.152 252.52q0.10077 0.0341 0.19534 0.14573 0.09612 0.11162 0.19224 0.30695l0.31781 0.63252h-0.33641l-0.29611-0.59376q-0.11472-0.23254-0.22324-0.30851-0.10697-0.076-0.29301-0.076h-0.34106v0.97823h-0.31316v-2.3146h0.70693q0.39688 0 0.59221 0.16588t0.19534 0.50074q0 0.21859-0.10232 0.36277-0.10077 0.14418-0.29456 0.19999zm-0.78445-0.97204v0.82166h0.39377q0.22634 0 0.34106-0.10387 0.11627-0.10542 0.11627-0.30851t-0.11627-0.30541q-0.11472-0.10387-0.34106-0.10387z"/>
     <path d="m39.435 251.29h1.3302v0.26354h-1.017v0.68213h0.91777v0.26355h-0.91777v1.1054h-0.31316z"/>
     <path d="m41.264 251.29h0.46664l0.59066 1.5751 0.59376-1.5751h0.46664v2.3146h-0.30541v-2.0324l-0.59686 1.5875h-0.31471l-0.59686-1.5875v2.0324h-0.30386z"/>
     <path d="m45.329 251.54v1.7999h0.37827q0.47904 0 0.70073-0.21704 0.22324-0.21704 0.22324-0.68523 0-0.46508-0.22324-0.68058-0.22169-0.21704-0.70073-0.21704zm-0.31316-0.25734h0.64337q0.67283 0 0.98754 0.2806 0.31471 0.27905 0.31471 0.87436 0 0.59842-0.31626 0.87902-0.31626 0.2806-0.98599 0.2806h-0.64337z"/>
     <path d="m47.459 251.29h1.4635v0.26354h-1.1503v0.68523h1.1023v0.26355h-1.1023v0.83871h1.1782v0.26355h-1.4914z"/>
     <path d="m50.242 251.59-0.42478 1.1519h0.85111zm-0.17673-0.3085h0.35502l0.88212 2.3146h-0.32556l-0.21084-0.59376h-1.0433l-0.21084 0.59376h-0.33021z"/>
     <path d="m51.639 251.29h0.42168l1.0263 1.9363v-1.9363h0.30386v2.3146h-0.42168l-1.0263-1.9363v1.9363h-0.30386z"/>
     <path d="m54.271 251.29v0.86041h-0.26355v-0.86041z"/>
     <path d="m56.276 251.36v0.30541q-0.17828-0.0853-0.33641-0.12713-0.15813-0.0418-0.30541-0.0418-0.2558 0-0.39532 0.0992-0.13798 0.0992-0.13798 0.28216 0 0.15348 0.09147 0.23254 0.09302 0.0775 0.35037 0.12558l0.18914 0.0387q0.35037 0.0667 0.51625 0.23565 0.16743 0.16743 0.16743 0.44958 0 0.33642-0.22634 0.51005-0.22479 0.17363-0.66042 0.17363-0.16433 0-0.35037-0.0372-0.18448-0.0372-0.38292-0.11007v-0.32246q0.19069 0.10697 0.37362 0.16123 0.18294 0.0543 0.35967 0.0543 0.2682 0 0.41393-0.10542 0.14573-0.10542 0.14573-0.30075 0-0.17054-0.10542-0.26665-0.10387-0.0961-0.34262-0.14418l-0.19069-0.0372q-0.35037-0.0698-0.50694-0.21859-0.15658-0.14883-0.15658-0.41393 0-0.30696 0.21549-0.48369 0.21704-0.17673 0.59686-0.17673 0.16278 0 0.33176 0.0294 0.16898 0.0295 0.34572 0.0884z"/>
     <path d="m58.854 251.5q-0.34106 0-0.5426 0.25424-0.19999 0.25425-0.19999 0.69298 0 0.43719 0.19999 0.69143 0.20154 0.25425 0.5426 0.25425 0.34106 0 0.5395-0.25425 0.19999-0.25424 0.19999-0.69143 0-0.43873-0.19999-0.69298-0.19844-0.25424-0.5395-0.25424zm0-0.25425q0.48679 0 0.77825 0.32711 0.29146 0.32556 0.29146 0.87436 0 0.54726-0.29146 0.87437-0.29146 0.32556-0.77825 0.32556-0.48834 0-0.78135-0.32556-0.29146-0.32556-0.29146-0.87437 0-0.5488 0.29146-0.87436 0.293-0.32711 0.78135-0.32711z"/>
     <path d="m60.414 251.29h1.3302v0.26354h-1.017v0.68213h0.91777v0.26355h-0.91777v1.1054h-0.31316z"/>
     <path d="m62.243 251.29h1.3302v0.26354h-1.017v0.68213h0.91777v0.26355h-0.91777v1.1054h-0.31316z"/>
     <path d="m64.072 251.29h0.31316v2.3146h-0.31316z"/>
     <path d="m66.742 251.46v0.33021q-0.15813-0.14728-0.33796-0.22014-0.17828-0.0729-0.37982-0.0729-0.39688 0-0.60772 0.24339-0.21084 0.24185-0.21084 0.70073 0 0.45734 0.21084 0.70074 0.21084 0.24184 0.60772 0.24184 0.20154 0 0.37982-0.0729 0.17983-0.0729 0.33796-0.22014v0.32711q-0.16433 0.11162-0.34882 0.16743-0.18293 0.0558-0.38757 0.0558-0.52555 0-0.82786-0.32091-0.30231-0.32246-0.30231-0.87902 0-0.5581 0.30231-0.87901 0.30231-0.32246 0.82786-0.32246 0.20774 0 0.39067 0.0558 0.18448 0.0543 0.34572 0.16433z"/>
     <path d="m67.229 251.29h1.4635v0.26354h-1.1503v0.68523h1.1023v0.26355h-1.1023v0.83871h1.1782v0.26355h-1.4914z"/>
     <path d="m69.298 253.21h0.32711v0.26665l-0.25425 0.49609h-0.19999l0.12712-0.49609z"/>
     <path d="m72.647 251.36v0.30541q-0.17828-0.0853-0.33641-0.12713-0.15813-0.0418-0.30541-0.0418-0.2558 0-0.39532 0.0992-0.13798 0.0992-0.13798 0.28216 0 0.15348 0.09147 0.23254 0.09302 0.0775 0.35037 0.12558l0.18914 0.0387q0.35037 0.0667 0.51625 0.23565 0.16743 0.16743 0.16743 0.44958 0 0.33642-0.22634 0.51005-0.22479 0.17363-0.66042 0.17363-0.16433 0-0.35037-0.0372-0.18448-0.0372-0.38292-0.11007v-0.32246q0.19069 0.10697 0.37362 0.16123 0.18293 0.0543 0.35967 0.0543 0.2682 0 0.41393-0.10542 0.14573-0.10542 0.14573-0.30075 0-0.17054-0.10542-0.26665-0.10387-0.0961-0.34262-0.14418l-0.19069-0.0372q-0.35037-0.0698-0.50695-0.21859-0.15658-0.14883-0.15658-0.41393 0-0.30696 0.21549-0.48369 0.21704-0.17673 0.59686-0.17673 0.16278 0 0.33176 0.0294 0.16898 0.0295 0.34572 0.0884z"/>
     <path d="m72.954 251.29h1.958v0.26354h-0.82166v2.051h-0.31471v-2.051h-0.82166z"/>
     <path d="m75.18 251.29h0.31471v1.4061q0 0.37207 0.13488 0.5364 0.13488 0.16278 0.43718 0.16278 0.30076 0 0.43563-0.16278 0.13488-0.16433 0.13488-0.5364v-1.4061h0.31471v1.4449q0 0.45268-0.22479 0.68368-0.22324 0.23099-0.66042 0.23099-0.43873 0-0.66352-0.23099-0.22324-0.231-0.22324-0.68368z"/>
     <path d="m77.854 251.54v1.7999h0.37827q0.47904 0 0.70073-0.21704 0.22324-0.21704 0.22324-0.68523 0-0.46508-0.22324-0.68058-0.22169-0.21704-0.70073-0.21704zm-0.31316-0.25734h0.64337q0.67283 0 0.98754 0.2806 0.31471 0.27905 0.31471 0.87436 0 0.59842-0.31626 0.87902t-0.98599 0.2806h-0.64337z"/>
     <path d="m79.985 251.29h1.4635v0.26354h-1.1503v0.68523h1.1023v0.26355h-1.1023v0.83871h1.1782v0.26355h-1.4914z"/>
     <path d="m81.994 251.29h0.42168l1.0263 1.9363v-1.9363h0.30386v2.3146h-0.42168l-1.0263-1.9363v1.9363h-0.30386z"/>
     <path d="m84.048 251.29h1.958v0.26354h-0.82166v2.051h-0.31471v-2.051h-0.82166z"/>
     <path d="m88.094 251.59-0.42478 1.1519h0.85111zm-0.17673-0.3085h0.35502l0.88212 2.3146h-0.32556l-0.21084-0.59376h-1.0433l-0.21084 0.59376h-0.33021z"/>
     <path d="m89.491 251.29h1.3302v0.26354h-1.017v0.68213h0.91777v0.26355h-0.91777v1.1054h-0.31316z"/>
     <path d="m91.32 251.29h1.3302v0.26354h-1.017v0.68213h0.91777v0.26355h-0.91777v1.1054h-0.31316z"/>
     <path d="m93.632 251.59-0.42478 1.1519h0.85111zm-0.17673-0.3085h0.35502l0.88212 2.3146h-0.32556l-0.21084-0.59376h-1.0433l-0.21084 0.59376h-0.33021z"/>
     <path d="m95.029 251.29h0.31316v2.3146h-0.31316z"/>
     <path d="m97.063 252.52q0.10077 0.0341 0.19534 0.14573 0.09612 0.11162 0.19224 0.30695l0.31781 0.63252h-0.33641l-0.29611-0.59376q-0.11472-0.23254-0.22324-0.30851-0.10697-0.076-0.293-0.076h-0.34106v0.97823h-0.31316v-2.3146h0.70693q0.39688 0 0.59221 0.16588 0.19534 0.16588 0.19534 0.50074 0 0.21859-0.10232 0.36277-0.10077 0.14418-0.29456 0.19999zm-0.78445-0.97204v0.82166h0.39378q0.22634 0 0.34106-0.10387 0.11627-0.10542 0.11627-0.30851t-0.11627-0.30541q-0.11472-0.10387-0.34106-0.10387z"/>
     <path d="m99.56 251.36v0.30541q-0.17828-0.0853-0.33641-0.12713-0.15813-0.0418-0.30541-0.0418-0.2558 0-0.39532 0.0992-0.13798 0.0992-0.13798 0.28216 0 0.15348 0.09147 0.23254 0.09302 0.0775 0.35037 0.12558l0.18914 0.0387q0.35037 0.0667 0.51625 0.23565 0.16743 0.16743 0.16743 0.44958 0 0.33642-0.22634 0.51005-0.22479 0.17363-0.66042 0.17363-0.16433 0-0.35037-0.0372-0.18448-0.0372-0.38292-0.11007v-0.32246q0.19069 0.10697 0.37362 0.16123 0.18293 0.0543 0.35967 0.0543 0.2682 0 0.41393-0.10542t0.14573-0.30075q0-0.17054-0.10542-0.26665-0.10387-0.0961-0.34262-0.14418l-0.19069-0.0372q-0.35037-0.0698-0.50695-0.21859-0.15658-0.14883-0.15658-0.41393 0-0.30696 0.21549-0.48369 0.21704-0.17673 0.59686-0.17673 0.16278 0 0.33176 0.0294 0.16898 0.0295 0.34572 0.0884z"/>
    </g>
   </g>
   <g aria-label="↑  3. PODLAŽÍ       UČEBNY A3, A4, A8, A10, A11       3. FLOOR                CLASSROOMS A3, A4, A8, A10, A11">
    <path d="m3.5802 231.64h0.17053l0.74276 0.74655-0.22738 0.22737-0.43959-0.44338v2.3117h-0.32212v-2.3117l-0.44338 0.44338-0.22738-0.22737z"/>
    <path d="m9.3366 232.95q0.27475 0.0587 0.42823 0.24443 0.15537 0.18569 0.15537 0.45854 0 0.41876-0.28801 0.64803t-0.81855 0.22927q-0.17811 0-0.36759-0.036-0.18759-0.0341-0.38843-0.10422v-0.36948q0.15916 0.0928 0.34864 0.14021 0.18948 0.0474 0.39601 0.0474 0.36001 0 0.5476-0.14211 0.18948-0.14211 0.18948-0.41307 0-0.25011-0.17622-0.39032-0.17432-0.14211-0.48696-0.14211h-0.3297v-0.31454h0.34485q0.28233 0 0.43202-0.1118 0.14969-0.11368 0.14969-0.3259 0-0.2179-0.15537-0.33349-0.15348-0.11747-0.44149-0.11747-0.15727 0-0.33727 0.0341-0.18001 0.0341-0.39601 0.10611v-0.34106q0.2179-0.0606 0.40738-0.091 0.19138-0.0303 0.36001-0.0303 0.4358 0 0.68971 0.19895 0.2539 0.19706 0.2539 0.53434 0 0.23495-0.13453 0.39791-0.13453 0.16105-0.38275 0.22358z"/>
    <path d="m10.648 234h0.3998v0.48128h-0.3998z"/>
    <path d="m13.467 231.96v1.063h0.48128q0.26717 0 0.41307-0.13832 0.1459-0.13832 0.1459-0.39412 0-0.2539-0.1459-0.39222-0.1459-0.13832-0.41307-0.13832zm-0.38275-0.31454h0.86403q0.4756 0 0.71813 0.21601 0.24443 0.21411 0.24443 0.62907 0 0.41875-0.24443 0.63286-0.24254 0.21412-0.71813 0.21412h-0.48128v1.1369h-0.38275z"/>
    <path d="m16.575 231.91q-0.41686 0-0.66318 0.31074-0.24443 0.31075-0.24443 0.84698 0 0.53434 0.24443 0.84508 0.24632 0.31075 0.66318 0.31075 0.41686 0 0.65939-0.31075 0.24443-0.31074 0.24443-0.84508 0-0.53623-0.24443-0.84698-0.24254-0.31074-0.65939-0.31074zm0-0.31075q0.59497 0 0.95119 0.3998 0.35622 0.39791 0.35622 1.0687 0 0.66887-0.35622 1.0687-0.35622 0.39791-0.95119 0.39791-0.59686 0-0.95498-0.39791-0.35622-0.39791-0.35622-1.0687t0.35622-1.0687q0.35812-0.3998 0.95498-0.3998z"/>
    <path d="m18.864 231.96v2.1999h0.46233q0.58549 0 0.85645-0.26527 0.27285-0.26527 0.27285-0.8375 0-0.56844-0.27285-0.83182-0.27096-0.26527-0.85645-0.26527zm-0.38275-0.31454h0.78634q0.82234 0 1.207 0.34296 0.38464 0.34106 0.38464 1.0687 0 0.73139-0.38654 1.0744t-1.2051 0.34296h-0.78634z"/>
    <path d="m21.467 231.65h0.38275v2.5068h1.3775v0.32212h-1.7603z"/>
    <path d="m24.664 232.03-0.51918 1.4078h1.0402zm-0.21601-0.37706h0.43391l1.0781 2.8289h-0.39791l-0.25769-0.72571h-1.2752l-0.25769 0.72571h-0.40359z"/>
    <path d="m26.208 231.65h2.2226v0.2918l-1.7887 2.215h1.8323v0.32212h-2.3098v-0.2918l1.7887-2.215h-1.7451zm0.93414-0.26906-0.3998-0.50402h0.26338l0.31454 0.33727 0.31454-0.33727h0.26338l-0.3998 0.50402z"/>
    <path d="m29.031 231.65h0.38275v2.8289h-0.38275zm0.29748-0.76929h0.35054l-0.43202 0.50023h-0.2899z"/>
    <path d="m38.78 231.65h0.38464v1.7186q0 0.45476 0.16485 0.65561 0.16485 0.19895 0.53434 0.19895 0.36759 0 0.53244-0.19895 0.16485-0.20085 0.16485-0.65561v-1.7186h0.38464v1.766q0 0.55329-0.27475 0.83561-0.27285 0.28233-0.80719 0.28233-0.53623 0-0.81098-0.28233-0.27285-0.28232-0.27285-0.83561z"/>
    <path d="m43.784 231.87v0.40359q-0.19327-0.18-0.41307-0.26906-0.2179-0.0891-0.46423-0.0891-0.48507 0-0.74276 0.29748-0.25769 0.29559-0.25769 0.85645 0 0.55897 0.25769 0.85645 0.25769 0.29559 0.74276 0.29559 0.24632 0 0.46423-0.089 0.2198-0.0891 0.41307-0.26907v0.39981q-0.20085 0.13642-0.42633 0.20464-0.22359 0.0682-0.4737 0.0682-0.64234 0-1.0118-0.39223-0.36949-0.39411-0.36949-1.0744 0-0.68213 0.36949-1.0744 0.36949-0.39412 1.0118-0.39412 0.2539 0 0.47749 0.0682 0.22548 0.0663 0.42254 0.20085zm-1.1369-0.48696-0.3998-0.50402h0.26338l0.31454 0.33727 0.31454-0.33727h0.26338l-0.3998 0.50402z"/>
    <path d="m44.379 231.65h1.7887v0.32212h-1.4059v0.8375h1.3472v0.32211h-1.3472v1.0251h1.44v0.32212h-1.8228z"/>
    <path d="m47.218 233.13v1.0365h0.61392q0.30885 0 0.45665-0.12695 0.14969-0.12885 0.14969-0.39222 0-0.26528-0.14969-0.39033-0.14779-0.12696-0.45665-0.12696zm0-1.1634v0.85266h0.56655q0.28043 0 0.41686-0.10422 0.13832-0.10611 0.13832-0.32211 0-0.21412-0.13832-0.32022-0.13642-0.10611-0.41686-0.10611zm-0.38275-0.31454h0.97772q0.4377 0 0.67455 0.1819 0.23685 0.1819 0.23685 0.51728 0 0.25959-0.12127 0.41307-0.12127 0.15348-0.35622 0.19137 0.28232 0.0606 0.4377 0.25391 0.15727 0.19137 0.15727 0.47938 0 0.37896-0.25769 0.5855-0.25769 0.20653-0.73329 0.20653h-1.0156z"/>
    <path d="m49.495 231.65h0.51539l1.2544 2.3666v-2.3666h0.37138v2.8289h-0.51539l-1.2544-2.3666v2.3666h-0.37138z"/>
    <path d="m52.009 231.65h0.41117l0.78445 1.1634 0.77876-1.1634h0.41117l-1.0005 1.4817v1.3472h-0.38464v-1.3472z"/>
    <path d="m56.951 232.03-0.51918 1.4078h1.0402zm-0.21601-0.37706h0.43391l1.0781 2.8289h-0.39791l-0.25769-0.72571h-1.2752l-0.25769 0.72571h-0.40359z"/>
    <path d="m59.852 232.95q0.27475 0.0587 0.42822 0.24443 0.15537 0.18569 0.15537 0.45854 0 0.41876-0.28801 0.64803t-0.81856 0.22927q-0.17811 0-0.36759-0.036-0.18759-0.0341-0.38844-0.10422v-0.36948q0.15916 0.0928 0.34864 0.14021 0.18948 0.0474 0.39601 0.0474 0.36001 0 0.5476-0.14211 0.18948-0.14211 0.18948-0.41307 0-0.25011-0.17622-0.39032-0.17432-0.14211-0.48696-0.14211h-0.3297v-0.31454h0.34485q0.28233 0 0.43202-0.1118 0.14969-0.11368 0.14969-0.3259 0-0.2179-0.15537-0.33349-0.15348-0.11747-0.44149-0.11747-0.15727 0-0.33728 0.0341t-0.39601 0.10611v-0.34106q0.2179-0.0606 0.40738-0.091 0.19138-0.0303 0.36001-0.0303 0.4358 0 0.68971 0.19895 0.2539 0.19706 0.2539 0.53434 0 0.23495-0.13453 0.39791-0.13453 0.16105-0.38275 0.22358z"/>
    <path d="m61.203 234h0.3998v0.32591l-0.31075 0.60633h-0.24443l0.15537-0.60633z"/>
    <path d="m64.546 232.03-0.51918 1.4078h1.0402zm-0.21601-0.37706h0.43391l1.0781 2.8289h-0.39791l-0.25769-0.72571h-1.2752l-0.25769 0.72571h-0.40359z"/>
    <path d="m67.338 231.98-0.96635 1.5102h0.96635zm-0.10042-0.33348h0.48128v1.8436h0.40359v0.31833h-0.40359v0.66697h-0.38086v-0.66697h-1.2771v-0.36949z"/>
    <path d="m68.797 234h0.3998v0.32591l-0.31075 0.60633h-0.24443l0.15537-0.60633z"/>
    <path d="m72.14 232.03-0.51918 1.4078h1.0402zm-0.21601-0.37706h0.43391l1.0781 2.8289h-0.39791l-0.25769-0.72571h-1.2752l-0.25769 0.72571h-0.40359z"/>
    <path d="m74.7 233.14q-0.27285 0-0.43012 0.1459-0.15537 0.1459-0.15537 0.4017t0.15537 0.4017q0.15727 0.1459 0.43012 0.1459 0.27285 0 0.43012-0.1459 0.15727-0.14779 0.15727-0.4017 0-0.2558-0.15727-0.4017-0.15537-0.1459-0.43012-0.1459zm-0.38275-0.16295q-0.24632-0.0606-0.38464-0.22927-0.13642-0.16864-0.13642-0.41117 0-0.33917 0.24064-0.53623 0.24254-0.19706 0.66318-0.19706 0.42254 0 0.66318 0.19706t0.24064 0.53623q0 0.24253-0.13832 0.41117-0.13643 0.16864-0.38086 0.22927 0.27664 0.0644 0.43012 0.25201 0.15537 0.18759 0.15537 0.45854 0 0.41117-0.25201 0.63097-0.25011 0.2198-0.71813 0.2198-0.46802 0-0.72002-0.2198-0.25011-0.2198-0.25011-0.63097 0-0.27095 0.15537-0.45854t0.43202-0.25201zm-0.14022-0.60444q0 0.2198 0.13643 0.34296 0.13832 0.12316 0.38654 0.12316 0.24632 0 0.38464-0.12316 0.14022-0.12316 0.14022-0.34296t-0.14022-0.34296q-0.13832-0.12316-0.38464-0.12316-0.24822 0-0.38654 0.12316-0.13643 0.12316-0.13643 0.34296z"/>
    <path d="m76.392 234h0.3998v0.32591l-0.31075 0.60633h-0.24443l0.15537-0.60633z"/>
    <path d="m79.734 232.03-0.51918 1.4078h1.0402zm-0.21601-0.37706h0.43391l1.0781 2.8289h-0.39791l-0.25769-0.72571h-1.2752l-0.25769 0.72571h-0.40359z"/>
    <path d="m81.542 234.16h0.62528v-2.1582l-0.68024 0.13643v-0.34865l0.67644-0.13642h0.38275v2.5068h0.62528v0.32212h-1.6295z"/>
    <path d="m84.765 231.9q-0.29559 0-0.44528 0.2918-0.1478 0.2899-0.1478 0.8735 0 0.58171 0.1478 0.87351 0.14969 0.2899 0.44528 0.2899 0.29748 0 0.44528-0.2899 0.14969-0.2918 0.14969-0.87351 0-0.5836-0.14969-0.8735-0.14779-0.2918-0.44528-0.2918zm0-0.30317q0.4756 0 0.72571 0.37706 0.25201 0.37518 0.25201 1.0914 0 0.71434-0.25201 1.0914-0.25011 0.37517-0.72571 0.37517-0.4756 0-0.7276-0.37517-0.25011-0.37707-0.25011-1.0914 0-0.71623 0.25011-1.0914 0.25201-0.37706 0.7276-0.37706z"/>
    <path d="m86.457 234h0.3998v0.32591l-0.31075 0.60633h-0.24443l0.15537-0.60633z"/>
    <path d="m89.799 232.03-0.51918 1.4078h1.0402zm-0.21601-0.37706h0.43391l1.0781 2.8289h-0.39791l-0.25769-0.72571h-1.2752l-0.25769 0.72571h-0.40359z"/>
    <path d="m91.607 234.16h0.62528v-2.1582l-0.68023 0.13643v-0.34865l0.67644-0.13642h0.38275v2.5068h0.62528v0.32212h-1.6295z"/>
    <path d="m94.078 234.16h0.62528v-2.1582l-0.68023 0.13643v-0.34865l0.67644-0.13642h0.38275v2.5068h0.62528v0.32212h-1.6295z"/>
    <g fill="#162d50">
     <path d="m9.5051 238.59q0.22479 0.0481 0.35037 0.19998 0.12712 0.15193 0.12712 0.37518 0 0.34261-0.23564 0.5302-0.23564 0.18758-0.66973 0.18758-0.14573 0-0.30076-0.0294-0.15348-0.0279-0.31781-0.0853v-0.30231q0.13022 0.076 0.28525 0.11472 0.15503 0.0388 0.32401 0.0388 0.29456 0 0.44803-0.11627 0.15503-0.11627 0.15503-0.33796 0-0.20464-0.14418-0.31937-0.14263-0.11627-0.39843-0.11627h-0.26975v-0.25735h0.28215q0.23099 0 0.35347-0.0915 0.12247-0.093 0.12247-0.26665 0-0.17829-0.12712-0.27285-0.12557-0.0961-0.36122-0.0961-0.12867 0-0.27595 0.0279-0.14728 0.0279-0.32401 0.0868v-0.27905q0.17828-0.0496 0.33331-0.0744 0.15658-0.0248 0.29456-0.0248 0.35657 0 0.56431 0.16278 0.20774 0.16123 0.20774 0.43718 0 0.19224-0.11007 0.32556-0.11007 0.13178-0.31316 0.18294z"/>
     <path d="m10.578 239.44h0.32711v0.39377h-0.32711z"/>
     <path d="m12.572 237.52h1.3302v0.26354h-1.017v0.68213h0.91777v0.26355h-0.91777v1.1054h-0.31316z"/>
     <path d="m14.401 237.52h0.31316v2.051h1.1271v0.26355h-1.4402z"/>
     <path d="m16.996 237.73q-0.34106 0-0.5426 0.25424-0.19999 0.25425-0.19999 0.69298 0 0.43719 0.19999 0.69143 0.20154 0.25425 0.5426 0.25425 0.34106 0 0.5395-0.25425 0.19999-0.25424 0.19999-0.69143 0-0.43873-0.19999-0.69298-0.19844-0.25424-0.5395-0.25424zm0-0.25425q0.48679 0 0.77825 0.32711 0.29146 0.32556 0.29146 0.87436 0 0.54726-0.29146 0.87437-0.29146 0.32556-0.77825 0.32556-0.48834 0-0.78135-0.32556-0.29146-0.32556-0.29146-0.87437 0-0.5488 0.29146-0.87436 0.293-0.32711 0.78135-0.32711z"/>
     <path d="m19.495 237.73q-0.34106 0-0.5426 0.25424-0.19999 0.25425-0.19999 0.69298 0 0.43719 0.19999 0.69143 0.20154 0.25425 0.5426 0.25425 0.34106 0 0.5395-0.25425 0.19999-0.25424 0.19999-0.69143 0-0.43873-0.19999-0.69298-0.19844-0.25424-0.5395-0.25424zm0-0.25425q0.48679 0 0.77825 0.32711 0.29146 0.32556 0.29146 0.87436 0 0.54726-0.29146 0.87437-0.29146 0.32556-0.77825 0.32556-0.48834 0-0.78135-0.32556-0.29146-0.32556-0.29146-0.87437 0-0.5488 0.29146-0.87436 0.293-0.32711 0.78135-0.32711z"/>
     <path d="m22.152 238.75q0.10077 0.0341 0.19534 0.14572 0.09612 0.11163 0.19224 0.30696l0.31781 0.63252h-0.33641l-0.29611-0.59376q-0.11472-0.23254-0.22324-0.30851-0.10697-0.076-0.29301-0.076h-0.34106v0.97823h-0.31316v-2.3146h0.70693q0.39688 0 0.59221 0.16588t0.19534 0.50074q0 0.21859-0.10232 0.36277-0.10077 0.14418-0.29456 0.19999zm-0.78445-0.97204v0.82166h0.39377q0.22634 0 0.34106-0.10387 0.11627-0.10542 0.11627-0.30851t-0.11627-0.30541q-0.11472-0.10387-0.34106-0.10387z"/>
     <path d="m41.168 237.7v0.33021q-0.15813-0.14728-0.33796-0.22014-0.17828-0.0729-0.37982-0.0729-0.39688 0-0.60772 0.24339-0.21084 0.24185-0.21084 0.70073 0 0.45734 0.21084 0.70074 0.21084 0.24184 0.60772 0.24184 0.20154 0 0.37982-0.0729 0.17983-0.0729 0.33796-0.22014v0.32711q-0.16433 0.11162-0.34882 0.16743-0.18293 0.0558-0.38757 0.0558-0.52555 0-0.82786-0.32091-0.30231-0.32246-0.30231-0.87902 0-0.5581 0.30231-0.87901 0.30231-0.32246 0.82786-0.32246 0.20774 0 0.39067 0.0558 0.18448 0.0543 0.34572 0.16433z"/>
     <path d="m41.655 237.52h0.31316v2.051h1.1271v0.26355h-1.4402z"/>
     <path d="m44.27 237.83-0.42478 1.1519h0.85111zm-0.17673-0.3085h0.35502l0.88212 2.3146h-0.32556l-0.21084-0.59376h-1.0433l-0.21084 0.59376h-0.33021z"/>
     <path d="m47.055 237.6v0.30541q-0.17828-0.0853-0.33641-0.12713-0.15813-0.0419-0.30541-0.0419-0.2558 0-0.39532 0.0992-0.13798 0.0992-0.13798 0.28216 0 0.15348 0.09147 0.23254 0.09302 0.0775 0.35037 0.12557l0.18914 0.0388q0.35037 0.0667 0.51625 0.23565 0.16743 0.16743 0.16743 0.44958 0 0.33642-0.22634 0.51005-0.22479 0.17363-0.66042 0.17363-0.16433 0-0.35037-0.0372-0.18448-0.0372-0.38292-0.11007v-0.32246q0.19069 0.10697 0.37362 0.16123 0.18293 0.0543 0.35967 0.0543 0.2682 0 0.41393-0.10542 0.14573-0.10542 0.14573-0.30075 0-0.17054-0.10542-0.26665-0.10387-0.0961-0.34261-0.14418l-0.19069-0.0372q-0.35037-0.0698-0.50695-0.21859-0.15658-0.14883-0.15658-0.41393 0-0.30696 0.21549-0.48369 0.21704-0.17673 0.59686-0.17673 0.16278 0 0.33176 0.0295t0.34572 0.0884z"/>
     <path d="m49.07 237.6v0.30541q-0.17828-0.0853-0.33641-0.12713-0.15813-0.0419-0.30541-0.0419-0.2558 0-0.39532 0.0992-0.13798 0.0992-0.13798 0.28216 0 0.15348 0.09147 0.23254 0.09302 0.0775 0.35037 0.12557l0.18914 0.0388q0.35037 0.0667 0.51625 0.23565 0.16743 0.16743 0.16743 0.44958 0 0.33642-0.22634 0.51005-0.22479 0.17363-0.66042 0.17363-0.16433 0-0.35037-0.0372-0.18448-0.0372-0.38292-0.11007v-0.32246q0.19069 0.10697 0.37362 0.16123 0.18294 0.0543 0.35967 0.0543 0.2682 0 0.41393-0.10542 0.14573-0.10542 0.14573-0.30075 0-0.17054-0.10542-0.26665-0.10387-0.0961-0.34262-0.14418l-0.19069-0.0372q-0.35037-0.0698-0.50694-0.21859-0.15658-0.14883-0.15658-0.41393 0-0.30696 0.21549-0.48369 0.21704-0.17673 0.59686-0.17673 0.16278 0 0.33176 0.0295t0.34572 0.0884z"/>
     <path d="m50.796 238.75q0.10077 0.0341 0.19534 0.14572 0.09612 0.11163 0.19224 0.30696l0.31781 0.63252h-0.33641l-0.29611-0.59376q-0.11472-0.23254-0.22324-0.30851-0.10697-0.076-0.293-0.076h-0.34106v0.97823h-0.31316v-2.3146h0.70693q0.39688 0 0.59221 0.16588t0.19534 0.50074q0 0.21859-0.10232 0.36277-0.10077 0.14418-0.29456 0.19999zm-0.78445-0.97204v0.82166h0.39378q0.22634 0 0.34106-0.10387 0.11627-0.10542 0.11627-0.30851t-0.11627-0.30541q-0.11472-0.10387-0.34106-0.10387z"/>
     <path d="m52.845 237.73q-0.34106 0-0.5426 0.25424-0.19999 0.25425-0.19999 0.69298 0 0.43719 0.19999 0.69143 0.20154 0.25425 0.5426 0.25425 0.34106 0 0.5395-0.25425 0.19999-0.25424 0.19999-0.69143 0-0.43873-0.19999-0.69298-0.19844-0.25424-0.5395-0.25424zm0-0.25425q0.48679 0 0.77825 0.32711 0.29146 0.32556 0.29146 0.87436 0 0.54726-0.29146 0.87437-0.29146 0.32556-0.77825 0.32556-0.48834 0-0.78135-0.32556-0.29146-0.32556-0.29146-0.87437 0-0.5488 0.29146-0.87436 0.293-0.32711 0.78135-0.32711z"/>
     <path d="m55.344 237.73q-0.34106 0-0.5426 0.25424-0.19999 0.25425-0.19999 0.69298 0 0.43719 0.19999 0.69143 0.20154 0.25425 0.5426 0.25425 0.34106 0 0.5395-0.25425 0.19999-0.25424 0.19999-0.69143 0-0.43873-0.19999-0.69298-0.19844-0.25424-0.5395-0.25424zm0-0.25425q0.48679 0 0.77825 0.32711 0.29146 0.32556 0.29146 0.87436 0 0.54726-0.29146 0.87437-0.29146 0.32556-0.77825 0.32556-0.48834 0-0.78135-0.32556-0.29146-0.32556-0.29146-0.87437 0-0.5488 0.29146-0.87436 0.293-0.32711 0.78135-0.32711z"/>
     <path d="m56.904 237.52h0.46664l0.59066 1.5751 0.59376-1.5751h0.46664v2.3146h-0.30541v-2.0324l-0.59686 1.5875h-0.31471l-0.59686-1.5875v2.0324h-0.30386z"/>
     <path d="m61.032 237.6v0.30541q-0.17828-0.0853-0.33641-0.12713-0.15813-0.0419-0.30541-0.0419-0.2558 0-0.39532 0.0992-0.13798 0.0992-0.13798 0.28216 0 0.15348 0.09147 0.23254 0.09302 0.0775 0.35037 0.12557l0.18914 0.0388q0.35037 0.0667 0.51625 0.23565 0.16743 0.16743 0.16743 0.44958 0 0.33642-0.22634 0.51005-0.22479 0.17363-0.66042 0.17363-0.16433 0-0.35037-0.0372-0.18448-0.0372-0.38292-0.11007v-0.32246q0.19069 0.10697 0.37362 0.16123 0.18294 0.0543 0.35967 0.0543 0.2682 0 0.41393-0.10542 0.14573-0.10542 0.14573-0.30075 0-0.17054-0.10542-0.26665-0.10387-0.0961-0.34262-0.14418l-0.19069-0.0372q-0.35037-0.0698-0.50695-0.21859-0.15658-0.14883-0.15658-0.41393 0-0.30696 0.21549-0.48369 0.21704-0.17673 0.59686-0.17673 0.16278 0 0.33176 0.0295t0.34572 0.0884z"/>
     <path d="m63.444 237.83-0.42478 1.1519h0.85111zm-0.17673-0.3085h0.35502l0.88212 2.3146h-0.32556l-0.21084-0.59376h-1.0433l-0.21084 0.59376h-0.33021z"/>
     <path d="m65.818 238.59q0.22479 0.0481 0.35037 0.19998 0.12712 0.15193 0.12712 0.37518 0 0.34261-0.23564 0.5302-0.23564 0.18758-0.66973 0.18758-0.14573 0-0.30076-0.0294-0.15348-0.0279-0.31781-0.0853v-0.30231q0.13022 0.076 0.28525 0.11472 0.15503 0.0388 0.32401 0.0388 0.29456 0 0.44804-0.11627 0.15503-0.11627 0.15503-0.33796 0-0.20464-0.14418-0.31937-0.14263-0.11627-0.39842-0.11627h-0.26975v-0.25735h0.28215q0.23099 0 0.35347-0.0915 0.12247-0.093 0.12247-0.26665 0-0.17829-0.12712-0.27285-0.12557-0.0961-0.36122-0.0961-0.12868 0-0.27595 0.0279-0.14728 0.0279-0.32401 0.0868v-0.27905q0.17828-0.0496 0.33331-0.0744 0.15658-0.0248 0.29456-0.0248 0.35657 0 0.56431 0.16278 0.20774 0.16123 0.20774 0.43718 0 0.19224-0.11007 0.32556-0.11007 0.13178-0.31316 0.18294z"/>
     <path d="m66.923 239.44h0.32711v0.26665l-0.25425 0.49609h-0.19999l0.12712-0.49609z"/>
     <path d="m69.658 237.83-0.42478 1.1519h0.85111zm-0.17673-0.3085h0.35502l0.88212 2.3146h-0.32556l-0.21084-0.59376h-1.0433l-0.21084 0.59376h-0.33021z"/>
     <path d="m71.943 237.79-0.79065 1.2356h0.79065zm-0.08216-0.27285h0.39377v1.5084h0.33021v0.26045h-0.33021v0.5457h-0.31161v-0.5457h-1.0449v-0.30231z"/>
     <path d="m73.137 239.44h0.32711v0.26665l-0.25425 0.49609h-0.19999l0.12712-0.49609z"/>
     <path d="m75.872 237.83-0.42478 1.1519h0.85111zm-0.17673-0.3085h0.35502l0.88212 2.3146h-0.32556l-0.21084-0.59376h-1.0433l-0.21084 0.59376h-0.33021z"/>
     <path d="m77.966 238.74q-0.22324 0-0.35192 0.11938-0.12712 0.11937-0.12712 0.32866t0.12712 0.32866q0.12868 0.11937 0.35192 0.11937t0.35192-0.11937q0.12868-0.12092 0.12868-0.32866 0-0.20929-0.12868-0.32866-0.12712-0.11938-0.35192-0.11938zm-0.31316-0.13332q-0.20154-0.0496-0.31471-0.18759-0.11162-0.13797-0.11162-0.33641 0-0.2775 0.19689-0.43873 0.19844-0.16123 0.5426-0.16123 0.34572 0 0.5426 0.16123t0.19689 0.43873q0 0.19844-0.11317 0.33641-0.11162 0.13798-0.31161 0.18759 0.22634 0.0527 0.35192 0.20619 0.12712 0.15348 0.12712 0.37517 0 0.33641-0.20619 0.51625-0.20464 0.17983-0.58756 0.17983-0.38292 0-0.58911-0.17983-0.20464-0.17984-0.20464-0.51625 0-0.22169 0.12712-0.37517t0.35347-0.20619zm-0.11472-0.49454q0 0.17983 0.11162 0.2806 0.11317 0.10077 0.31626 0.10077 0.20154 0 0.31471-0.10077 0.11472-0.10077 0.11472-0.2806 0-0.17984-0.11472-0.28061-0.11317-0.10077-0.31471-0.10077-0.20309 0-0.31626 0.10077-0.11162 0.10077-0.11162 0.28061z"/>
     <path d="m79.35 239.44h0.32711v0.26665l-0.25425 0.49609h-0.19999l0.12712-0.49609z"/>
     <path d="m82.085 237.83-0.42478 1.1519h0.85111zm-0.17673-0.3085h0.35502l0.88212 2.3146h-0.32556l-0.21084-0.59376h-1.0433l-0.21084 0.59376h-0.33021z"/>
     <path d="m83.564 239.57h0.5116v-1.7658l-0.55656 0.11162v-0.28525l0.55345-0.11162h0.31316v2.051h0.5116v0.26355h-1.3333z"/>
     <path d="m86.201 237.73q-0.24185 0-0.36432 0.23875-0.12092 0.23719-0.12092 0.71468 0 0.47594 0.12092 0.71469 0.12247 0.23719 0.36432 0.23719 0.2434 0 0.36432-0.23719 0.12247-0.23875 0.12247-0.71469 0-0.47749-0.12247-0.71468-0.12092-0.23875-0.36432-0.23875zm0-0.24804q0.38912 0 0.59376 0.30851 0.20619 0.30695 0.20619 0.89296 0 0.58446-0.20619 0.89297-0.20464 0.30696-0.59376 0.30696-0.38912 0-0.59531-0.30696-0.20464-0.30851-0.20464-0.89297 0-0.58601 0.20464-0.89296 0.20619-0.30851 0.59531-0.30851z"/>
     <path d="m87.586 239.44h0.32711v0.26665l-0.25425 0.49609h-0.19999l0.12712-0.49609z"/>
     <path d="m90.32 237.83-0.42478 1.1519h0.85111zm-0.17673-0.3085h0.35502l0.88212 2.3146h-0.32556l-0.21084-0.59376h-1.0433l-0.21084 0.59376h-0.33021z"/>
     <path d="m91.799 239.57h0.5116v-1.7658l-0.55656 0.11162v-0.28525l0.55346-0.11162h0.31316v2.051h0.5116v0.26355h-1.3333z"/>
     <path d="m93.821 239.57h0.5116v-1.7658l-0.55656 0.11162v-0.28525l0.55346-0.11162h0.31316v2.051h0.5116v0.26355h-1.3333z"/>
    </g>
   </g>
   <g aria-label="↑  4. PODLAŽÍ       SPRÁVA LIANE       4. FLOOR                LIANE ADMINISTRATION">
    <path d="m3.5802 218.97h0.17053l0.74276 0.74656-0.22738 0.22737-0.43959-0.44338v2.3117h-0.32212v-2.3117l-0.44338 0.44338-0.22738-0.22737z"/>
    <path d="m9.2286 219.32-0.96635 1.5102h0.96635zm-0.10042-0.33348h0.48128v1.8436h0.40359v0.31833h-0.40359v0.66697h-0.38086v-0.66697h-1.2771v-0.36949z"/>
    <path d="m10.648 221.34h0.3998v0.48128h-0.3998z"/>
    <path d="m13.467 219.3v1.063h0.48128q0.26717 0 0.41307-0.13832 0.1459-0.13832 0.1459-0.39412 0-0.2539-0.1459-0.39222-0.1459-0.13833-0.41307-0.13833zm-0.38275-0.31453h0.86403q0.4756 0 0.71813 0.216 0.24443 0.21412 0.24443 0.62908 0 0.41875-0.24443 0.63286-0.24254 0.21412-0.71813 0.21412h-0.48128v1.1369h-0.38275z"/>
    <path d="m16.575 219.25q-0.41686 0-0.66318 0.31074-0.24443 0.31075-0.24443 0.84698 0 0.53433 0.24443 0.84508 0.24632 0.31075 0.66318 0.31075 0.41686 0 0.65939-0.31075 0.24443-0.31075 0.24443-0.84508 0-0.53623-0.24443-0.84698-0.24254-0.31074-0.65939-0.31074zm0-0.31075q0.59497 0 0.95119 0.3998 0.35622 0.39791 0.35622 1.0687 0 0.66887-0.35622 1.0687-0.35622 0.39791-0.95119 0.39791-0.59686 0-0.95498-0.39791-0.35622-0.39791-0.35622-1.0687t0.35622-1.0687q0.35812-0.3998 0.95498-0.3998z"/>
    <path d="m18.864 219.3v2.1999h0.46233q0.58549 0 0.85645-0.26527 0.27285-0.26527 0.27285-0.8375 0-0.56845-0.27285-0.83182-0.27096-0.26528-0.85645-0.26528zm-0.38275-0.31453h0.78634q0.82234 0 1.207 0.34296 0.38464 0.34106 0.38464 1.0687 0 0.73139-0.38654 1.0744t-1.2051 0.34296h-0.78634z"/>
    <path d="m21.467 218.99h0.38275v2.5068h1.3775v0.32212h-1.7603z"/>
    <path d="m24.664 219.37-0.51918 1.4078h1.0402zm-0.21601-0.37706h0.43391l1.0781 2.8289h-0.39791l-0.25769-0.72571h-1.2752l-0.25769 0.72571h-0.40359z"/>
    <path d="m26.208 218.99h2.2226v0.2918l-1.7887 2.215h1.8323v0.32212h-2.3098v-0.2918l1.7887-2.215h-1.7451zm0.93414-0.26906-0.3998-0.50402h0.26338l0.31454 0.33727 0.31454-0.33727h0.26338l-0.3998 0.50402z"/>
    <path d="m29.031 218.99h0.38275v2.8289h-0.38275zm0.29748-0.76929h0.35054l-0.43202 0.50023h-0.2899z"/>
    <path d="m40.519 219.08v0.37328q-0.2179-0.10422-0.41117-0.15537-0.19327-0.0512-0.37328-0.0512-0.31264 0-0.48317 0.12126-0.16864 0.12127-0.16864 0.34486 0 0.18758 0.11179 0.28422 0.11369 0.0947 0.42823 0.15348l0.23117 0.0474q0.42822 0.0815 0.63097 0.28801 0.20464 0.20463 0.20464 0.54949 0 0.41117-0.27664 0.62339-0.27475 0.21222-0.80719 0.21222-0.20085 0-0.42823-0.0455-0.22548-0.0455-0.46802-0.13453v-0.39412q0.23306 0.13074 0.45665 0.19706 0.22359 0.0663 0.4396 0.0663 0.3278 0 0.50591-0.12885 0.17811-0.12884 0.17811-0.36759 0-0.20843-0.12885-0.32591-0.12695-0.11747-0.41875-0.17621l-0.23306-0.0455q-0.42823-0.0853-0.6196-0.26716-0.19138-0.18191-0.19138-0.50592 0-0.37517 0.26338-0.59117 0.26527-0.21601 0.7295-0.21601 0.19895 0 0.40549 0.036 0.20653 0.036 0.42254 0.108z"/>
    <path d="m41.67 219.3v1.063h0.48128q0.26717 0 0.41307-0.13832 0.1459-0.13832 0.1459-0.39412 0-0.2539-0.1459-0.39222-0.1459-0.13833-0.41307-0.13833zm-0.38275-0.31453h0.86403q0.4756 0 0.71813 0.216 0.24443 0.21412 0.24443 0.62908 0 0.41875-0.24443 0.63286-0.24254 0.21412-0.71813 0.21412h-0.48128v1.1369h-0.38275z"/>
    <path d="m44.97 220.49q0.12316 0.0417 0.23874 0.17811 0.11748 0.13642 0.23496 0.37517l0.38843 0.77308h-0.41117l-0.36191-0.72571q-0.14022-0.28422-0.27285-0.37707-0.13074-0.0928-0.35812-0.0928h-0.41686v1.1956h-0.38275v-2.8289h0.86403q0.48507 0 0.72381 0.20274 0.23874 0.20275 0.23874 0.61202 0 0.26717-0.12506 0.44339-0.12316 0.17621-0.36001 0.24443zm-0.95877-1.188v1.0042h0.48128q0.27664 0 0.41686-0.12695 0.14211-0.12885 0.14211-0.37707t-0.14211-0.37327q-0.14022-0.12696-0.41686-0.12696z"/>
    <path d="m47.113 219.37-0.51918 1.4078h1.0402zm-0.21601-0.37706h0.43391l1.0781 2.8289h-0.39791l-0.25769-0.72571h-1.2752l-0.25769 0.72571h-0.40359zm0.32022-0.76929h0.35054l-0.43202 0.50023h-0.2899z"/>
    <path d="m49.3 221.82-1.08-2.8289h0.3998l0.89624 2.3818 0.89814-2.3818h0.39791l-1.0781 2.8289z"/>
    <path d="m51.919 219.37-0.51918 1.4078h1.0402zm-0.21601-0.37706h0.43391l1.0781 2.8289h-0.39791l-0.25769-0.72571h-1.2752l-0.25769 0.72571h-0.40359z"/>
    <path d="m54.861 218.99h0.38275v2.5068h1.3775v0.32212h-1.7603z"/>
    <path d="m57.021 218.99h0.38275v2.8289h-0.38275z"/>
    <path d="m59.111 219.37-0.51918 1.4078h1.0402zm-0.21601-0.37706h0.43391l1.0781 2.8289h-0.39791l-0.25769-0.72571h-1.2752l-0.25769 0.72571h-0.40359z"/>
    <path d="m60.818 218.99h0.51539l1.2544 2.3666v-2.3666h0.37138v2.8289h-0.51539l-1.2544-2.3666v2.3666h-0.37138z"/>
    <path d="m63.721 218.99h1.7887v0.32211h-1.4059v0.83751h1.3472v0.32211h-1.3472v1.0251h1.44v0.32212h-1.8228z"/>
    <g fill="#162d50">
     <path d="m9.4167 225.13-0.79065 1.2356h0.79065zm-0.082166-0.27286h0.39377v1.5084h0.33021v0.26045h-0.33021v0.5457h-0.31161v-0.5457h-1.0449v-0.30231z"/>
     <path d="m10.578 226.78h0.32711v0.39377h-0.32711z"/>
     <path d="m12.572 224.86h1.3302v0.26355h-1.017v0.68213h0.91777v0.26355h-0.91777v1.1054h-0.31316z"/>
     <path d="m14.401 224.86h0.31316v2.051h1.1271v0.26355h-1.4402z"/>
     <path d="m16.996 225.07q-0.34106 0-0.5426 0.25425-0.19999 0.25425-0.19999 0.69298 0 0.43719 0.19999 0.69143 0.20154 0.25425 0.5426 0.25425 0.34106 0 0.5395-0.25425 0.19999-0.25424 0.19999-0.69143 0-0.43873-0.19999-0.69298-0.19844-0.25425-0.5395-0.25425zm0-0.25424q0.48679 0 0.77825 0.32711 0.29146 0.32556 0.29146 0.87436 0 0.54726-0.29146 0.87437-0.29146 0.32556-0.77825 0.32556-0.48834 0-0.78135-0.32556-0.29146-0.32556-0.29146-0.87437 0-0.5488 0.29146-0.87436 0.293-0.32711 0.78135-0.32711z"/>
     <path d="m19.495 225.07q-0.34106 0-0.5426 0.25425-0.19999 0.25425-0.19999 0.69298 0 0.43719 0.19999 0.69143 0.20154 0.25425 0.5426 0.25425 0.34106 0 0.5395-0.25425 0.19999-0.25424 0.19999-0.69143 0-0.43873-0.19999-0.69298-0.19844-0.25425-0.5395-0.25425zm0-0.25424q0.48679 0 0.77825 0.32711 0.29146 0.32556 0.29146 0.87436 0 0.54726-0.29146 0.87437-0.29146 0.32556-0.77825 0.32556-0.48834 0-0.78135-0.32556-0.29146-0.32556-0.29146-0.87437 0-0.5488 0.29146-0.87436 0.293-0.32711 0.78135-0.32711z"/>
     <path d="m22.152 226.09q0.10077 0.0341 0.19534 0.14572 0.09612 0.11162 0.19224 0.30696l0.31781 0.63252h-0.33641l-0.29611-0.59376q-0.11472-0.23255-0.22324-0.30851-0.10697-0.076-0.29301-0.076h-0.34106v0.97823h-0.31316v-2.3146h0.70693q0.39688 0 0.59221 0.16588 0.19534 0.16589 0.19534 0.50075 0 0.21859-0.10232 0.36277-0.10077 0.14418-0.29456 0.19999zm-0.78445-0.97204v0.82166h0.39377q0.22634 0 0.34106-0.10387 0.11627-0.10542 0.11627-0.30851t-0.11627-0.30541q-0.11472-0.10387-0.34106-0.10387z"/>
     <path d="m39.435 224.86h0.31316v2.051h1.1271v0.26355h-1.4402z"/>
     <path d="m41.202 224.86h0.31316v2.3146h-0.31316z"/>
     <path d="m42.912 225.17-0.42478 1.1519h0.85111zm-0.17673-0.30851h0.35502l0.88212 2.3146h-0.32556l-0.21084-0.59376h-1.0433l-0.21084 0.59376h-0.33021z"/>
     <path d="m44.309 224.86h0.42168l1.0263 1.9363v-1.9363h0.30386v2.3146h-0.42168l-1.0263-1.9363v1.9363h-0.30386z"/>
     <path d="m46.684 224.86h1.4635v0.26355h-1.1503v0.68523h1.1023v0.26355h-1.1023v0.83871h1.1782v0.26355h-1.4914z"/>
     <path d="m50.478 225.17-0.42478 1.1519h0.85111zm-0.17673-0.30851h0.35502l0.88212 2.3146h-0.32556l-0.21084-0.59376h-1.0433l-0.21084 0.59376h-0.33021z"/>
     <path d="m52.188 225.12v1.7999h0.37827q0.47904 0 0.70073-0.21704 0.22324-0.21704 0.22324-0.68523 0-0.46509-0.22324-0.68058-0.22169-0.21704-0.70073-0.21704zm-0.31316-0.25735h0.64337q0.67283 0 0.98754 0.28061 0.31471 0.27905 0.31471 0.87436 0 0.59841-0.31626 0.87902-0.31626 0.2806-0.98599 0.2806h-0.64337z"/>
     <path d="m54.318 224.86h0.46664l0.59066 1.5751 0.59376-1.5751h0.46664v2.3146h-0.30541v-2.0324l-0.59686 1.5875h-0.31471l-0.59686-1.5875v2.0324h-0.30386z"/>
     <path d="m57.059 224.86h0.31316v2.3146h-0.31316z"/>
     <path d="m57.995 224.86h0.42168l1.0263 1.9363v-1.9363h0.30386v2.3146h-0.42168l-1.0263-1.9363v1.9363h-0.30386z"/>
     <path d="m60.37 224.86h0.31316v2.3146h-0.31316z"/>
     <path d="m62.694 224.94v0.30541q-0.17828-0.0853-0.33641-0.12713-0.15813-0.0419-0.30541-0.0419-0.2558 0-0.39532 0.0992-0.13798 0.0992-0.13798 0.28216 0 0.15347 0.09147 0.23254 0.09302 0.0775 0.35037 0.12557l0.18914 0.0388q0.35037 0.0667 0.51625 0.23565 0.16743 0.16743 0.16743 0.44958 0 0.33641-0.22634 0.51005-0.22479 0.17363-0.66042 0.17363-0.16433 0-0.35037-0.0372-0.18448-0.0372-0.38292-0.11007v-0.32246q0.19069 0.10697 0.37362 0.16123 0.18294 0.0543 0.35967 0.0543 0.2682 0 0.41393-0.10542 0.14573-0.10542 0.14573-0.30076 0-0.17053-0.10542-0.26665-0.10387-0.0961-0.34262-0.14417l-0.19069-0.0372q-0.35037-0.0698-0.50695-0.21859-0.15658-0.14883-0.15658-0.41393 0-0.30696 0.21549-0.48369 0.21704-0.17673 0.59686-0.17673 0.16278 0 0.33176 0.0294 0.16898 0.0295 0.34572 0.0884z"/>
     <path d="m63.001 224.86h1.958v0.26355h-0.82166v2.051h-0.31471v-2.051h-0.82166z"/>
     <path d="m66.361 226.09q0.10077 0.0341 0.19534 0.14572 0.09612 0.11162 0.19224 0.30696l0.31781 0.63252h-0.33641l-0.29611-0.59376q-0.11472-0.23255-0.22324-0.30851-0.10697-0.076-0.29301-0.076h-0.34106v0.97823h-0.31316v-2.3146h0.70693q0.39688 0 0.59221 0.16588 0.19534 0.16589 0.19534 0.50075 0 0.21859-0.10232 0.36277-0.10077 0.14418-0.29456 0.19999zm-0.78445-0.97204v0.82166h0.39377q0.22634 0 0.34106-0.10387 0.11627-0.10542 0.11627-0.30851t-0.11627-0.30541q-0.11472-0.10387-0.34106-0.10387z"/>
     <path d="m68.114 225.17-0.42478 1.1519h0.85111zm-0.17673-0.30851h0.35502l0.88212 2.3146h-0.32556l-0.21084-0.59376h-1.0433l-0.21084 0.59376h-0.33021z"/>
     <path d="m68.942 224.86h1.958v0.26355h-0.82166v2.051h-0.31471v-2.051h-0.82166z"/>
     <path d="m71.204 224.86h0.31316v2.3146h-0.31316z"/>
     <path d="m73.08 225.07q-0.34106 0-0.5426 0.25425-0.19999 0.25425-0.19999 0.69298 0 0.43719 0.19999 0.69143 0.20154 0.25425 0.5426 0.25425 0.34106 0 0.5395-0.25425 0.19999-0.25424 0.19999-0.69143 0-0.43873-0.19999-0.69298-0.19844-0.25425-0.5395-0.25425zm0-0.25424q0.48679 0 0.77825 0.32711 0.29146 0.32556 0.29146 0.87436 0 0.54726-0.29146 0.87437-0.29146 0.32556-0.77825 0.32556-0.48834 0-0.78135-0.32556-0.29146-0.32556-0.29146-0.87437 0-0.5488 0.29146-0.87436 0.293-0.32711 0.78135-0.32711z"/>
     <path d="m74.639 224.86h0.42168l1.0263 1.9363v-1.9363h0.30386v2.3146h-0.42168l-1.0263-1.9363v1.9363h-0.30386z"/>
    </g>
   </g>
   <g aria-label="←  1. PODLAŽÍ       UČEBNA A0       1. FLOOR                CLASSROOM A0">
    <path d="m2.2292 260.56v-0.17054l0.74466-0.74465 0.22738 0.22737-0.44149 0.44149h2.3098v0.32212h-2.3098l0.44149 0.44149-0.22738 0.22737z"/>
    <path d="m8.2433 261.37h0.62528v-2.1582l-0.68023 0.13642v-0.34864l0.67644-0.13643h0.38275v2.5068h0.62528v0.32211h-1.6295z"/>
    <path d="m10.648 261.21h0.3998v0.48128h-0.3998z"/>
    <path d="m13.467 259.18v1.063h0.48128q0.26717 0 0.41307-0.13832 0.1459-0.13832 0.1459-0.39411 0-0.25391-0.1459-0.39223-0.1459-0.13832-0.41307-0.13832zm-0.38275-0.31454h0.86403q0.4756 0 0.71813 0.21601 0.24443 0.21411 0.24443 0.62908 0 0.41875-0.24443 0.63286-0.24254 0.21411-0.71813 0.21411h-0.48128v1.1369h-0.38275z"/>
    <path d="m16.575 259.12q-0.41686 0-0.66318 0.31075-0.24443 0.31075-0.24443 0.84698 0 0.53433 0.24443 0.84508 0.24632 0.31075 0.66318 0.31075 0.41686 0 0.65939-0.31075 0.24443-0.31075 0.24443-0.84508 0-0.53623-0.24443-0.84698-0.24254-0.31075-0.65939-0.31075zm0-0.31075q0.59497 0 0.95119 0.39981 0.35622 0.39791 0.35622 1.0687 0 0.66886-0.35622 1.0687-0.35622 0.39791-0.95119 0.39791-0.59686 0-0.95498-0.39791-0.35622-0.3979-0.35622-1.0687t0.35622-1.0687q0.35812-0.39981 0.95498-0.39981z"/>
    <path d="m18.864 259.18v2.1999h0.46233q0.58549 0 0.85645-0.26528 0.27285-0.26527 0.27285-0.8375 0-0.56844-0.27285-0.83182-0.27096-0.26527-0.85645-0.26527zm-0.38275-0.31454h0.78634q0.82234 0 1.207 0.34296 0.38464 0.34107 0.38464 1.0687 0 0.73139-0.38654 1.0744t-1.2051 0.34296h-0.78634z"/>
    <path d="m21.467 258.86h0.38275v2.5068h1.3775v0.32211h-1.7603z"/>
    <path d="m24.664 259.24-0.51918 1.4078h1.0402zm-0.21601-0.37707h0.43391l1.0781 2.8289h-0.39791l-0.25769-0.72571h-1.2752l-0.25769 0.72571h-0.40359z"/>
    <path d="m26.208 258.86h2.2226v0.2918l-1.7887 2.215h1.8323v0.32211h-2.3098v-0.2918l1.7887-2.215h-1.7451zm0.93414-0.26906-0.3998-0.50402h0.26338l0.31454 0.33728 0.31454-0.33728h0.26338l-0.3998 0.50402z"/>
    <path d="m29.031 258.86h0.38275v2.8289h-0.38275zm0.29748-0.76929h0.35054l-0.43202 0.50023h-0.2899z"/>
    <path d="m38.78 258.86h0.38464v1.7186q0 0.45475 0.16485 0.6556 0.16485 0.19896 0.53434 0.19896 0.36759 0 0.53244-0.19896 0.16485-0.20085 0.16485-0.6556v-1.7186h0.38464v1.766q0 0.55328-0.27475 0.83561-0.27285 0.28232-0.80719 0.28232-0.53623 0-0.81098-0.28232-0.27285-0.28233-0.27285-0.83561z"/>
    <path d="m43.784 259.08v0.40359q-0.19327-0.18001-0.41307-0.26906-0.2179-0.0891-0.46423-0.0891-0.48507 0-0.74276 0.29748-0.25769 0.29559-0.25769 0.85646 0 0.55896 0.25769 0.85645 0.25769 0.29559 0.74276 0.29559 0.24632 0 0.46423-0.0891 0.2198-0.0891 0.41307-0.26906v0.3998q-0.20085 0.13643-0.42633 0.20464-0.22359 0.0682-0.4737 0.0682-0.64234 0-1.0118-0.39222-0.36949-0.39412-0.36949-1.0744 0-0.68213 0.36949-1.0744 0.36949-0.39412 1.0118-0.39412 0.2539 0 0.47749 0.0682 0.22548 0.0663 0.42254 0.20085zm-1.1369-0.48697-0.3998-0.50402h0.26338l0.31454 0.33728 0.31454-0.33728h0.26338l-0.3998 0.50402z"/>
    <path d="m44.379 258.86h1.7887v0.32212h-1.4059v0.8375h1.3472v0.32212h-1.3472v1.0251h1.44v0.32211h-1.8228z"/>
    <path d="m47.218 260.34v1.0365h0.61392q0.30885 0 0.45665-0.12696 0.14969-0.12884 0.14969-0.39222 0-0.26527-0.14969-0.39033-0.14779-0.12695-0.45665-0.12695zm0-1.1634v0.85266h0.56655q0.28043 0 0.41686-0.10421 0.13832-0.10611 0.13832-0.32212 0-0.21411-0.13832-0.32022-0.13642-0.10611-0.41686-0.10611zm-0.38275-0.31454h0.97772q0.4377 0 0.67455 0.1819 0.23685 0.18191 0.23685 0.51729 0 0.25958-0.12127 0.41306-0.12127 0.15348-0.35622 0.19138 0.28232 0.0606 0.4377 0.2539 0.15727 0.19138 0.15727 0.47939 0 0.37896-0.25769 0.58549-0.25769 0.20653-0.73329 0.20653h-1.0156z"/>
    <path d="m49.495 258.86h0.51539l1.2544 2.3666v-2.3666h0.37138v2.8289h-0.51539l-1.2544-2.3666v2.3666h-0.37138z"/>
    <path d="m53.343 259.24-0.51918 1.4078h1.0402zm-0.21601-0.37707h0.43391l1.0781 2.8289h-0.39791l-0.25769-0.72571h-1.2752l-0.25769 0.72571h-0.40359z"/>
    <path d="m57.232 259.24-0.51918 1.4078h1.0402zm-0.21601-0.37707h0.43391l1.0781 2.8289h-0.39791l-0.25769-0.72571h-1.2752l-0.25769 0.72571h-0.40359z"/>
    <path d="m59.791 259.12q-0.29559 0-0.44528 0.2918-0.1478 0.28991-0.1478 0.87351 0 0.5817 0.1478 0.8735 0.14969 0.2899 0.44528 0.2899 0.29748 0 0.44528-0.2899 0.14969-0.2918 0.14969-0.8735 0-0.5836-0.14969-0.87351-0.1478-0.2918-0.44528-0.2918zm0-0.30317q0.4756 0 0.72571 0.37707 0.25201 0.37517 0.25201 1.0914 0 0.71434-0.25201 1.0914-0.25011 0.37517-0.72571 0.37517-0.4756 0-0.7276-0.37517-0.25011-0.37706-0.25011-1.0914 0-0.71624 0.25011-1.0914 0.25201-0.37707 0.7276-0.37707z"/>
    <g fill="#162d50">
     <path d="m8.6106 266.79h0.5116v-1.7658l-0.55656 0.11162v-0.28525l0.55345-0.11162h0.31316v2.051h0.5116v0.26355h-1.3333z"/>
     <path d="m10.578 266.66h0.32711v0.39378h-0.32711z"/>
     <path d="m12.572 264.74h1.3302v0.26355h-1.017v0.68213h0.91777v0.26355h-0.91777v1.1054h-0.31316z"/>
     <path d="m14.401 264.74h0.31316v2.051h1.1271v0.26355h-1.4402z"/>
     <path d="m16.996 264.95q-0.34106 0-0.5426 0.25425-0.19999 0.25425-0.19999 0.69298 0 0.43718 0.19999 0.69143 0.20154 0.25425 0.5426 0.25425 0.34106 0 0.5395-0.25425 0.19999-0.25425 0.19999-0.69143 0-0.43873-0.19999-0.69298-0.19844-0.25425-0.5395-0.25425zm0-0.25425q0.48679 0 0.77825 0.32711 0.29146 0.32556 0.29146 0.87437 0 0.54725-0.29146 0.87436-0.29146 0.32557-0.77825 0.32557-0.48834 0-0.78135-0.32557-0.29146-0.32556-0.29146-0.87436 0-0.54881 0.29146-0.87437 0.293-0.32711 0.78135-0.32711z"/>
     <path d="m19.495 264.95q-0.34106 0-0.5426 0.25425-0.19999 0.25425-0.19999 0.69298 0 0.43718 0.19999 0.69143 0.20154 0.25425 0.5426 0.25425 0.34106 0 0.5395-0.25425 0.19999-0.25425 0.19999-0.69143 0-0.43873-0.19999-0.69298-0.19844-0.25425-0.5395-0.25425zm0-0.25425q0.48679 0 0.77825 0.32711 0.29146 0.32556 0.29146 0.87437 0 0.54725-0.29146 0.87436-0.29146 0.32557-0.77825 0.32557-0.48834 0-0.78135-0.32557-0.29146-0.32556-0.29146-0.87436 0-0.54881 0.29146-0.87437 0.293-0.32711 0.78135-0.32711z"/>
     <path d="m22.152 265.97q0.10077 0.0341 0.19534 0.14573 0.09612 0.11162 0.19224 0.30696l0.31781 0.63252h-0.33641l-0.29611-0.59377q-0.11472-0.23254-0.22324-0.3085-0.10697-0.076-0.29301-0.076h-0.34106v0.97824h-0.31316v-2.3146h0.70693q0.39688 0 0.59221 0.16588t0.19534 0.50075q0 0.21859-0.10232 0.36276-0.10077 0.14418-0.29456 0.19999zm-0.78445-0.97203v0.82165h0.39377q0.22634 0 0.34106-0.10387 0.11627-0.10542 0.11627-0.3085 0-0.20309-0.11627-0.30541-0.11472-0.10387-0.34106-0.10387z"/>
     <path d="m41.168 264.91v0.33022q-0.15813-0.14728-0.33796-0.22015-0.17828-0.0729-0.37982-0.0729-0.39688 0-0.60772 0.2434-0.21084 0.24184-0.21084 0.70073 0 0.45734 0.21084 0.70073 0.21084 0.24185 0.60772 0.24185 0.20154 0 0.37982-0.0729 0.17983-0.0729 0.33796-0.22014v0.32711q-0.16433 0.11162-0.34882 0.16743-0.18293 0.0558-0.38757 0.0558-0.52555 0-0.82786-0.32092-0.30231-0.32246-0.30231-0.87901 0-0.55811 0.30231-0.87902 0.30231-0.32246 0.82786-0.32246 0.20774 0 0.39067 0.0558 0.18448 0.0543 0.34572 0.16433z"/>
     <path d="m41.655 264.74h0.31316v2.051h1.1271v0.26355h-1.4402z"/>
     <path d="m44.27 265.04-0.42478 1.1519h0.85111zm-0.17673-0.30851h0.35502l0.88212 2.3146h-0.32556l-0.21084-0.59377h-1.0433l-0.21084 0.59377h-0.33021z"/>
     <path d="m47.055 264.81v0.30541q-0.17828-0.0853-0.33641-0.12712-0.15813-0.0419-0.30541-0.0419-0.2558 0-0.39532 0.0992-0.13798 0.0992-0.13798 0.28215 0 0.15348 0.09147 0.23255 0.09302 0.0775 0.35037 0.12557l0.18914 0.0388q0.35037 0.0667 0.51625 0.23564 0.16743 0.16743 0.16743 0.44959 0 0.33641-0.22634 0.51004-0.22479 0.17364-0.66042 0.17364-0.16433 0-0.35037-0.0372-0.18448-0.0372-0.38292-0.11007v-0.32246q0.19069 0.10697 0.37362 0.16123 0.18293 0.0543 0.35967 0.0543 0.2682 0 0.41393-0.10542 0.14573-0.10542 0.14573-0.30076 0-0.17053-0.10542-0.26665-0.10387-0.0961-0.34261-0.14418l-0.19069-0.0372q-0.35037-0.0698-0.50695-0.2186-0.15658-0.14882-0.15658-0.41392 0-0.30696 0.21549-0.4837 0.21704-0.17673 0.59686-0.17673 0.16278 0 0.33176 0.0295 0.16898 0.0294 0.34572 0.0884z"/>
     <path d="m49.07 264.81v0.30541q-0.17828-0.0853-0.33641-0.12712-0.15813-0.0419-0.30541-0.0419-0.2558 0-0.39532 0.0992-0.13798 0.0992-0.13798 0.28215 0 0.15348 0.09147 0.23255 0.09302 0.0775 0.35037 0.12557l0.18914 0.0388q0.35037 0.0667 0.51625 0.23564 0.16743 0.16743 0.16743 0.44959 0 0.33641-0.22634 0.51004-0.22479 0.17364-0.66042 0.17364-0.16433 0-0.35037-0.0372-0.18448-0.0372-0.38292-0.11007v-0.32246q0.19069 0.10697 0.37362 0.16123 0.18294 0.0543 0.35967 0.0543 0.2682 0 0.41393-0.10542 0.14573-0.10542 0.14573-0.30076 0-0.17053-0.10542-0.26665-0.10387-0.0961-0.34262-0.14418l-0.19069-0.0372q-0.35037-0.0698-0.50694-0.2186-0.15658-0.14882-0.15658-0.41392 0-0.30696 0.21549-0.4837 0.21704-0.17673 0.59686-0.17673 0.16278 0 0.33176 0.0295 0.16898 0.0294 0.34572 0.0884z"/>
     <path d="m50.796 265.97q0.10077 0.0341 0.19534 0.14573 0.09612 0.11162 0.19224 0.30696l0.31781 0.63252h-0.33641l-0.29611-0.59377q-0.11472-0.23254-0.22324-0.3085-0.10697-0.076-0.293-0.076h-0.34106v0.97824h-0.31316v-2.3146h0.70693q0.39688 0 0.59221 0.16588t0.19534 0.50075q0 0.21859-0.10232 0.36276-0.10077 0.14418-0.29456 0.19999zm-0.78445-0.97203v0.82165h0.39378q0.22634 0 0.34106-0.10387 0.11627-0.10542 0.11627-0.3085 0-0.20309-0.11627-0.30541-0.11472-0.10387-0.34106-0.10387z"/>
     <path d="m52.845 264.95q-0.34106 0-0.5426 0.25425-0.19999 0.25425-0.19999 0.69298 0 0.43718 0.19999 0.69143 0.20154 0.25425 0.5426 0.25425 0.34106 0 0.5395-0.25425 0.19999-0.25425 0.19999-0.69143 0-0.43873-0.19999-0.69298-0.19844-0.25425-0.5395-0.25425zm0-0.25425q0.48679 0 0.77825 0.32711 0.29146 0.32556 0.29146 0.87437 0 0.54725-0.29146 0.87436-0.29146 0.32557-0.77825 0.32557-0.48834 0-0.78135-0.32557-0.29146-0.32556-0.29146-0.87436 0-0.54881 0.29146-0.87437 0.293-0.32711 0.78135-0.32711z"/>
     <path d="m55.344 264.95q-0.34106 0-0.5426 0.25425-0.19999 0.25425-0.19999 0.69298 0 0.43718 0.19999 0.69143 0.20154 0.25425 0.5426 0.25425 0.34106 0 0.5395-0.25425 0.19999-0.25425 0.19999-0.69143 0-0.43873-0.19999-0.69298-0.19844-0.25425-0.5395-0.25425zm0-0.25425q0.48679 0 0.77825 0.32711 0.29146 0.32556 0.29146 0.87437 0 0.54725-0.29146 0.87436-0.29146 0.32557-0.77825 0.32557-0.48834 0-0.78135-0.32557-0.29146-0.32556-0.29146-0.87436 0-0.54881 0.29146-0.87437 0.293-0.32711 0.78135-0.32711z"/>
     <path d="m56.904 264.74h0.46664l0.59066 1.5751 0.59376-1.5751h0.46664v2.3146h-0.30541v-2.0324l-0.59686 1.5875h-0.31471l-0.59686-1.5875v2.0324h-0.30386z"/>
     <path d="m61.429 265.04-0.42478 1.1519h0.85111zm-0.17673-0.30851h0.35502l0.88212 2.3146h-0.32556l-0.21084-0.59377h-1.0433l-0.21084 0.59377h-0.33021z"/>
     <path d="m63.524 264.94q-0.24185 0-0.36432 0.23874-0.12092 0.2372-0.12092 0.71469 0 0.47594 0.12092 0.71468 0.12247 0.2372 0.36432 0.2372 0.2434 0 0.36432-0.2372 0.12247-0.23874 0.12247-0.71468 0-0.47749-0.12247-0.71469-0.12092-0.23874-0.36432-0.23874zm0-0.24805q0.38912 0 0.59376 0.30851 0.20619 0.30696 0.20619 0.89297 0 0.58446-0.20619 0.89297-0.20464 0.30696-0.59376 0.30696-0.38912 0-0.59531-0.30696-0.20464-0.30851-0.20464-0.89297 0-0.58601 0.20464-0.89297 0.20619-0.30851 0.59531-0.30851z"/>
    </g>
   </g>
   <g aria-label="↖                           VÝTAH, UČEBNY TK7, TK8, AP9, AP11                                   LIFT, CLASSROOMS TK7, TK8, AP9, AP11">
    <path d="m2.5855 273.3 0.11937-0.11937h1.0535v0.32022h-0.62528l1.6333 1.6333-0.22738 0.22738-1.6333-1.6333v0.62528h-0.32022z"/>
    <path d="m39.758 275.46-1.08-2.8289h0.3998l0.89624 2.3818 0.89814-2.3818h0.39791l-1.0781 2.8289z"/>
    <path d="m41.292 272.63h0.41117l0.78445 1.1634 0.77876-1.1634h0.41117l-1.0005 1.4817v1.3472h-0.38464v-1.3472zm1.2998-0.76929h0.35054l-0.43202 0.50023h-0.2899z"/>
    <path d="m43.661 272.63h2.3931v0.32211h-1.0042v2.5068h-0.38464v-2.5068h-1.0042z"/>
    <path d="m47.068 273.01-0.51918 1.4078h1.0402zm-0.21601-0.37706h0.43391l1.0781 2.8289h-0.39791l-0.25769-0.72571h-1.2752l-0.25769 0.72571h-0.40359z"/>
    <path d="m48.775 272.63h0.38275v1.1596h1.3908v-1.1596h0.38275v2.8289h-0.38275v-1.3472h-1.3908v1.3472h-0.38275z"/>
    <path d="m51.767 274.98h0.3998v0.3259l-0.31075 0.60634h-0.24443l0.15537-0.60634z"/>
    <path d="m54.12 272.63h0.38464v1.7186q0 0.45476 0.16485 0.65561 0.16485 0.19895 0.53433 0.19895 0.36759 0 0.53244-0.19895 0.16485-0.20085 0.16485-0.65561v-1.7186h0.38464v1.766q0 0.55329-0.27475 0.83561-0.27285 0.28233-0.80719 0.28233-0.53623 0-0.81098-0.28233-0.27285-0.28232-0.27285-0.83561z"/>
    <path d="m59.124 272.85v0.40359q-0.19327-0.18-0.41307-0.26906-0.2179-0.089-0.46423-0.089-0.48507 0-0.74276 0.29748-0.25769 0.29559-0.25769 0.85645 0 0.55897 0.25769 0.85645 0.25769 0.29559 0.74276 0.29559 0.24632 0 0.46423-0.0891 0.2198-0.089 0.41307-0.26906v0.39981q-0.20085 0.13642-0.42633 0.20463-0.22359 0.0682-0.4737 0.0682-0.64234 0-1.0118-0.39223-0.36949-0.39412-0.36949-1.0744 0-0.68213 0.36949-1.0744 0.36949-0.39412 1.0118-0.39412 0.2539 0 0.47749 0.0682 0.22548 0.0663 0.42254 0.20085zm-1.1369-0.48696-0.3998-0.50402h0.26338l0.31454 0.33727 0.31454-0.33727h0.26338l-0.3998 0.50402z"/>
    <path d="m59.719 272.63h1.7887v0.32211h-1.4059v0.83751h1.3472v0.32211h-1.3472v1.0251h1.44v0.32212h-1.8228z"/>
    <path d="m62.558 274.11v1.0365h0.61392q0.30885 0 0.45665-0.12695 0.14969-0.12885 0.14969-0.39223 0-0.26527-0.14969-0.39032-0.1478-0.12696-0.45665-0.12696zm0-1.1634v0.85266h0.56655q0.28043 0 0.41686-0.10422 0.13832-0.10611 0.13832-0.32211 0-0.21412-0.13832-0.32023-0.13643-0.1061-0.41686-0.1061zm-0.38275-0.31454h0.97772q0.4377 0 0.67455 0.1819 0.23685 0.1819 0.23685 0.51728 0 0.25959-0.12127 0.41307-0.12127 0.15348-0.35622 0.19137 0.28233 0.0606 0.4377 0.25391 0.15727 0.19137 0.15727 0.47938 0 0.37896-0.25769 0.58549-0.25769 0.20654-0.73329 0.20654h-1.0156z"/>
    <path d="m64.835 272.63h0.51539l1.2544 2.3666v-2.3666h0.37138v2.8289h-0.51539l-1.2544-2.3666v2.3666h-0.37138z"/>
    <path d="m67.35 272.63h0.41117l0.78445 1.1634 0.77876-1.1634h0.41117l-1.0005 1.4817v1.3472h-0.38464v-1.3472z"/>
    <path d="m70.954 272.63h2.3931v0.32211h-1.0042v2.5068h-0.38464v-2.5068h-1.0042z"/>
    <path d="m73.718 272.63h0.38275v1.1956l1.2695-1.1956h0.49265l-1.404 1.3188 1.5045 1.5102h-0.50402l-1.3586-1.3624v1.3624h-0.38275z"/>
    <path d="m76.202 272.63h1.819v0.16295l-1.027 2.666h-0.3998l0.96635-2.5068h-1.3586z"/>
    <path d="m78.81 274.98h0.3998v0.3259l-0.31075 0.60634h-0.24443l0.15537-0.60634z"/>
    <path d="m80.814 272.63h2.3931v0.32211h-1.0042v2.5068h-0.38464v-2.5068h-1.0042z"/>
    <path d="m83.579 272.63h0.38275v1.1956l1.2695-1.1956h0.49265l-1.404 1.3188 1.5045 1.5102h-0.50402l-1.3586-1.3624v1.3624h-0.38275z"/>
    <path d="m86.978 274.12q-0.27285 0-0.43012 0.1459-0.15537 0.1459-0.15537 0.4017t0.15537 0.4017q0.15727 0.1459 0.43012 0.1459 0.27285 0 0.43012-0.1459 0.15727-0.1478 0.15727-0.4017 0-0.2558-0.15727-0.4017-0.15537-0.1459-0.43012-0.1459zm-0.38275-0.16295q-0.24632-0.0606-0.38464-0.22927-0.13643-0.16864-0.13643-0.41117 0-0.33917 0.24064-0.53623 0.24254-0.19706 0.66318-0.19706 0.42254 0 0.66318 0.19706t0.24064 0.53623q0 0.24253-0.13832 0.41117-0.13643 0.16864-0.38086 0.22927 0.27664 0.0644 0.43012 0.25201 0.15537 0.18758 0.15537 0.45854 0 0.41117-0.25201 0.63097-0.25011 0.2198-0.71813 0.2198-0.46802 0-0.72002-0.2198-0.25011-0.2198-0.25011-0.63097 0-0.27096 0.15537-0.45854 0.15537-0.18759 0.43202-0.25201zm-0.14022-0.60444q0 0.2198 0.13643 0.34296 0.13832 0.12316 0.38654 0.12316 0.24632 0 0.38464-0.12316 0.14022-0.12316 0.14022-0.34296t-0.14022-0.34296q-0.13832-0.12316-0.38464-0.12316-0.24822 0-0.38654 0.12316-0.13643 0.12316-0.13643 0.34296z"/>
    <path d="m88.67 274.98h0.3998v0.3259l-0.31075 0.60634h-0.24443l0.15537-0.60634z"/>
    <path d="m92.013 273.01-0.51918 1.4078h1.0402zm-0.21601-0.37706h0.43391l1.0781 2.8289h-0.39791l-0.25769-0.72571h-1.2752l-0.25769 0.72571h-0.40359z"/>
    <path d="m94.103 272.95v1.063h0.48128q0.26717 0 0.41307-0.13832 0.1459-0.13832 0.1459-0.39412 0-0.2539-0.1459-0.39222-0.1459-0.13832-0.41307-0.13832zm-0.38275-0.31454h0.86403q0.4756 0 0.71813 0.21601 0.24443 0.21411 0.24443 0.62907 0 0.41875-0.24443 0.63286-0.24254 0.21412-0.71813 0.21412h-0.48128v1.1369h-0.38275z"/>
    <path d="m96.107 275.4v-0.34864q0.144 0.0682 0.2918 0.10421 0.1478 0.036 0.2899 0.036 0.37896 0 0.57792-0.2539 0.20085-0.2558 0.22927-0.77498-0.1099 0.16296-0.27854 0.25012-0.16864 0.0872-0.37328 0.0872-0.42444 0-0.67266-0.2558-0.24632-0.25769-0.24632-0.70297 0-0.43581 0.25769-0.69918 0.25769-0.26338 0.68592-0.26338 0.49075 0 0.74845 0.37706 0.25959 0.37517 0.25959 1.0914 0 0.66887-0.31833 1.0687-0.31643 0.39791-0.85266 0.39791-0.144 0-0.2918-0.0284-0.1478-0.0284-0.30696-0.0853zm0.76171-1.1994q0.25769 0 0.40738-0.17622 0.15158-0.17621 0.15158-0.48317 0-0.30507-0.15158-0.48128-0.14969-0.17811-0.40738-0.17811-0.25769 0-0.40928 0.17811-0.14969 0.17621-0.14969 0.48128 0 0.30696 0.14969 0.48317 0.15158 0.17622 0.40928 0.17622z"/>
    <path d="m98.606 274.98h0.3998v0.3259l-0.31075 0.60634h-0.24443l0.15537-0.60634z"/>
    <path d="m101.95 273.01-0.51917 1.4078h1.0402zm-0.216-0.37706h0.43391l1.0781 2.8289h-0.39791l-0.25769-0.72571h-1.2752l-0.25769 0.72571h-0.40359z"/>
    <path d="m104.04 272.95v1.063h0.48128q0.26717 0 0.41307-0.13832t0.1459-0.39412q0-0.2539-0.1459-0.39222t-0.41307-0.13832zm-0.38275-0.31454h0.86403q0.4756 0 0.71813 0.21601 0.24443 0.21411 0.24443 0.62907 0 0.41875-0.24443 0.63286-0.24253 0.21412-0.71813 0.21412h-0.48128v1.1369h-0.38275z"/>
    <path d="m106.1 275.14h0.62528v-2.1582l-0.68023 0.13643v-0.34865l0.67644-0.13642h0.38275v2.5068h0.62529v0.32212h-1.6295z"/>
    <path d="m108.57 275.14h0.62529v-2.1582l-0.68024 0.13643v-0.34865l0.67645-0.13642h0.38275v2.5068h0.62528v0.32212h-1.6295z"/>
    <g fill="#162d50">
     <path d="m39.526 278.51h0.31316v2.051h1.1271v0.26355h-1.4402z"/>
     <path d="m41.293 278.51h0.31316v2.3146h-0.31316z"/>
     <path d="m42.23 278.51h1.3302v0.26355h-1.017v0.68213h0.91777v0.26355h-0.91777v1.1054h-0.31316z"/>
     <path d="m43.682 278.51h1.958v0.26355h-0.82166v2.051h-0.31471v-2.051h-0.82166z"/>
     <path d="m46.005 280.43h0.32711v0.26665l-0.25425 0.49609h-0.19999l0.12712-0.49609z"/>
     <path d="m49.699 278.68v0.33021q-0.15813-0.14728-0.33796-0.22014-0.17828-0.0729-0.37982-0.0729-0.39688 0-0.60772 0.2434-0.21084 0.24185-0.21084 0.70073 0 0.45734 0.21084 0.70074 0.21084 0.24184 0.60772 0.24184 0.20154 0 0.37982-0.0729 0.17983-0.0729 0.33796-0.22014v0.32711q-0.16433 0.11162-0.34882 0.16743-0.18294 0.0558-0.38757 0.0558-0.52555 0-0.82786-0.32091-0.30231-0.32246-0.30231-0.87902 0-0.5581 0.30231-0.87901 0.30231-0.32246 0.82786-0.32246 0.20774 0 0.39067 0.0558 0.18448 0.0543 0.34572 0.16433z"/>
     <path d="m50.186 278.51h0.31316v2.051h1.1271v0.26355h-1.4402z"/>
     <path d="m52.801 278.81-0.42478 1.1519h0.85111zm-0.17673-0.30851h0.35502l0.88212 2.3146h-0.32556l-0.21084-0.59376h-1.0433l-0.21084 0.59376h-0.33021z"/>
     <path d="m55.586 278.58v0.30541q-0.17828-0.0853-0.33641-0.12713-0.15813-0.0419-0.30541-0.0419-0.2558 0-0.39532 0.0992-0.13798 0.0992-0.13798 0.28216 0 0.15348 0.09147 0.23254 0.09302 0.0775 0.35037 0.12557l0.18914 0.0388q0.35037 0.0667 0.51625 0.23565 0.16743 0.16743 0.16743 0.44958 0 0.33641-0.22634 0.51005-0.22479 0.17363-0.66042 0.17363-0.16433 0-0.35037-0.0372-0.18448-0.0372-0.38292-0.11007v-0.32246q0.19069 0.10697 0.37362 0.16123 0.18294 0.0543 0.35967 0.0543 0.2682 0 0.41393-0.10542 0.14573-0.10542 0.14573-0.30075 0-0.17054-0.10542-0.26666-0.10387-0.0961-0.34262-0.14417l-0.19069-0.0372q-0.35037-0.0698-0.50695-0.21859-0.15658-0.14883-0.15658-0.41393 0-0.30696 0.21549-0.48369 0.21704-0.17673 0.59686-0.17673 0.16278 0 0.33176 0.0294 0.16898 0.0295 0.34572 0.0884z"/>
     <path d="m57.601 278.58v0.30541q-0.17828-0.0853-0.33641-0.12713-0.15813-0.0419-0.30541-0.0419-0.2558 0-0.39532 0.0992-0.13798 0.0992-0.13798 0.28216 0 0.15348 0.09147 0.23254 0.09302 0.0775 0.35037 0.12557l0.18914 0.0388q0.35037 0.0667 0.51625 0.23565 0.16743 0.16743 0.16743 0.44958 0 0.33641-0.22634 0.51005-0.22479 0.17363-0.66042 0.17363-0.16433 0-0.35037-0.0372-0.18448-0.0372-0.38292-0.11007v-0.32246q0.19069 0.10697 0.37362 0.16123 0.18293 0.0543 0.35967 0.0543 0.2682 0 0.41393-0.10542t0.14573-0.30075q0-0.17054-0.10542-0.26666-0.10387-0.0961-0.34262-0.14417l-0.19069-0.0372q-0.35037-0.0698-0.50695-0.21859-0.15658-0.14883-0.15658-0.41393 0-0.30696 0.21549-0.48369 0.21704-0.17673 0.59686-0.17673 0.16278 0 0.33176 0.0294 0.16898 0.0295 0.34572 0.0884z"/>
     <path d="m59.326 279.73q0.10077 0.0341 0.19534 0.14572 0.09612 0.11162 0.19224 0.30696l0.31781 0.63252h-0.33641l-0.29611-0.59376q-0.11472-0.23254-0.22324-0.30851-0.10697-0.076-0.29301-0.076h-0.34106v0.97823h-0.31316v-2.3146h0.70693q0.39688 0 0.59221 0.16589 0.19534 0.16588 0.19534 0.50074 0 0.21859-0.10232 0.36277-0.10077 0.14418-0.29456 0.19999zm-0.78445-0.97204v0.82166h0.39377q0.22634 0 0.34106-0.10387 0.11627-0.10542 0.11627-0.30851t-0.11627-0.30541q-0.11472-0.10387-0.34106-0.10387z"/>
     <path d="m61.376 278.72q-0.34106 0-0.5426 0.25425-0.19999 0.25425-0.19999 0.69298 0 0.43719 0.19999 0.69143 0.20154 0.25425 0.5426 0.25425 0.34106 0 0.5395-0.25425 0.19999-0.25424 0.19999-0.69143 0-0.43873-0.19999-0.69298-0.19844-0.25425-0.5395-0.25425zm0-0.25424q0.48679 0 0.77825 0.32711 0.29146 0.32556 0.29146 0.87436 0 0.54726-0.29146 0.87437-0.29146 0.32556-0.77825 0.32556-0.48834 0-0.78135-0.32556-0.29146-0.32556-0.29146-0.87437 0-0.5488 0.29146-0.87436 0.29301-0.32711 0.78135-0.32711z"/>
     <path d="m63.875 278.72q-0.34106 0-0.5426 0.25425-0.19999 0.25425-0.19999 0.69298 0 0.43719 0.19999 0.69143 0.20154 0.25425 0.5426 0.25425 0.34106 0 0.5395-0.25425 0.19999-0.25424 0.19999-0.69143 0-0.43873-0.19999-0.69298-0.19844-0.25425-0.5395-0.25425zm0-0.25424q0.48679 0 0.77825 0.32711 0.29146 0.32556 0.29146 0.87436 0 0.54726-0.29146 0.87437-0.29146 0.32556-0.77825 0.32556-0.48834 0-0.78135-0.32556-0.29146-0.32556-0.29146-0.87437 0-0.5488 0.29146-0.87436 0.29301-0.32711 0.78135-0.32711z"/>
     <path d="m65.435 278.51h0.46664l0.59066 1.5751 0.59376-1.5751h0.46664v2.3146h-0.30541v-2.0324l-0.59686 1.5875h-0.31471l-0.59686-1.5875v2.0324h-0.30386z"/>
     <path d="m69.563 278.58v0.30541q-0.17828-0.0853-0.33641-0.12713-0.15813-0.0419-0.30541-0.0419-0.2558 0-0.39532 0.0992-0.13798 0.0992-0.13798 0.28216 0 0.15348 0.09147 0.23254 0.09302 0.0775 0.35037 0.12557l0.18914 0.0388q0.35037 0.0667 0.51625 0.23565 0.16743 0.16743 0.16743 0.44958 0 0.33641-0.22634 0.51005-0.22479 0.17363-0.66042 0.17363-0.16433 0-0.35037-0.0372-0.18448-0.0372-0.38292-0.11007v-0.32246q0.19069 0.10697 0.37362 0.16123 0.18293 0.0543 0.35967 0.0543 0.2682 0 0.41393-0.10542t0.14573-0.30075q0-0.17054-0.10542-0.26666-0.10387-0.0961-0.34262-0.14417l-0.19069-0.0372q-0.35037-0.0698-0.50695-0.21859-0.15658-0.14883-0.15658-0.41393 0-0.30696 0.21549-0.48369 0.21704-0.17673 0.59686-0.17673 0.16278 0 0.33176 0.0294 0.16898 0.0295 0.34572 0.0884z"/>
     <path d="m70.881 278.51h1.958v0.26355h-0.82166v2.051h-0.31471v-2.051h-0.82166z"/>
     <path d="m73.143 278.51h0.31316v0.97824l1.0387-0.97824h0.40308l-1.1488 1.079 1.2309 1.2356h-0.41238l-1.1116-1.1147v1.1147h-0.31316z"/>
     <path d="m75.175 278.51h1.4883v0.13333l-0.84026 2.1813h-0.32711l0.79065-2.051h-1.1116z"/>
     <path d="m77.308 280.43h0.32711v0.26665l-0.25425 0.49609h-0.19999l0.12712-0.49609z"/>
     <path d="m78.948 278.51h1.958v0.26355h-0.82166v2.051h-0.31471v-2.051h-0.82166z"/>
     <path d="m81.21 278.51h0.31316v0.97824l1.0387-0.97824h0.40308l-1.1488 1.079 1.2309 1.2356h-0.41238l-1.1116-1.1147v1.1147h-0.31316z"/>
     <path d="m83.992 279.72q-0.22324 0-0.35192 0.11938-0.12712 0.11937-0.12712 0.32866t0.12712 0.32866q0.12867 0.11937 0.35192 0.11937t0.35192-0.11937q0.12867-0.12092 0.12867-0.32866 0-0.20929-0.12867-0.32866-0.12712-0.11938-0.35192-0.11938zm-0.31316-0.13332q-0.20154-0.0496-0.31471-0.18759-0.11162-0.13797-0.11162-0.33641 0-0.2775 0.19689-0.43873 0.19844-0.16123 0.5426-0.16123 0.34572 0 0.5426 0.16123t0.19689 0.43873q0 0.19844-0.11317 0.33641-0.11162 0.13798-0.31161 0.18759 0.22634 0.0527 0.35192 0.20619 0.12712 0.15348 0.12712 0.37517 0 0.33641-0.20619 0.51625-0.20464 0.17983-0.58756 0.17983-0.38292 0-0.58911-0.17983-0.20464-0.17984-0.20464-0.51625 0-0.22169 0.12712-0.37517t0.35347-0.20619zm-0.11472-0.49454q0 0.17983 0.11162 0.2806 0.11317 0.10077 0.31626 0.10077 0.20154 0 0.31471-0.10077 0.11472-0.10077 0.11472-0.2806 0-0.17984-0.11472-0.28061-0.11317-0.10077-0.31471-0.10077-0.20309 0-0.31626 0.10077-0.11162 0.10077-0.11162 0.28061z"/>
     <path d="m85.376 280.43h0.32711v0.26665l-0.25425 0.49609h-0.19999l0.12712-0.49609z"/>
     <path d="m88.111 278.81-0.42478 1.1519h0.85111zm-0.17673-0.30851h0.35502l0.88212 2.3146h-0.32556l-0.21084-0.59376h-1.0433l-0.21084 0.59376h-0.33021z"/>
     <path d="m89.821 278.76v0.86972h0.39378q0.21859 0 0.33796-0.11317 0.11937-0.11318 0.11937-0.32247 0-0.20773-0.11937-0.32091-0.11937-0.11317-0.33796-0.11317zm-0.31316-0.25735h0.70693q0.38912 0 0.58756 0.17674 0.19999 0.17518 0.19999 0.51469 0 0.34262-0.19999 0.5178-0.19844 0.17519-0.58756 0.17519h-0.39378v0.93017h-0.31316z"/>
     <path d="m91.461 280.77v-0.28525q0.11782 0.0558 0.23874 0.0853t0.2372 0.0295q0.31006 0 0.47284-0.20774 0.16433-0.20929 0.18758-0.63407-0.08992 0.13333-0.22789 0.20464-0.13798 0.0713-0.30541 0.0713-0.34727 0-0.55035-0.20929-0.20154-0.21084-0.20154-0.57516 0-0.35656 0.21084-0.57205 0.21084-0.21549 0.56121-0.21549 0.40153 0 0.61237 0.3085 0.21239 0.30696 0.21239 0.89297 0 0.54726-0.26045 0.87437-0.2589 0.32556-0.69763 0.32556-0.11782 0-0.23874-0.0233t-0.25115-0.0698zm0.62322-0.98133q0.21084 0 0.33331-0.14418 0.12402-0.14418 0.12402-0.39533 0-0.24959-0.12402-0.39377-0.12247-0.14573-0.33331-0.14573-0.21084 0-0.33486 0.14573-0.12247 0.14418-0.12247 0.39377 0 0.25115 0.12247 0.39533 0.12402 0.14418 0.33486 0.14418z"/>
     <path d="m93.506 280.43h0.32711v0.26665l-0.25425 0.49609h-0.19999l0.12712-0.49609z"/>
     <path d="m96.24 278.81-0.42478 1.1519h0.85111zm-0.17673-0.30851h0.35502l0.88212 2.3146h-0.32556l-0.21084-0.59376h-1.0433l-0.21084 0.59376h-0.33021z"/>
     <path d="m97.95 278.76v0.86972h0.39378q0.21859 0 0.33796-0.11317 0.11937-0.11318 0.11937-0.32247 0-0.20773-0.11937-0.32091-0.11937-0.11317-0.33796-0.11317zm-0.31316-0.25735h0.70693q0.38912 0 0.58756 0.17674 0.19999 0.17518 0.19999 0.51469 0 0.34262-0.19999 0.5178-0.19844 0.17519-0.58756 0.17519h-0.39378v0.93017h-0.31316z"/>
     <path d="m99.636 280.56h0.51159v-1.7658l-0.55655 0.11162v-0.28525l0.55345-0.11163h0.31316v2.051h0.5116v0.26355h-1.3333z"/>
     <path d="m101.66 280.56h0.5116v-1.7658l-0.55656 0.11162v-0.28525l0.55346-0.11163h0.31316v2.051h0.51159v0.26355h-1.3332z"/>
    </g>
   </g>
   <g aria-label="                              UČEBNY TK1, TK3, TK4, TK5, TK6                                   CLASSROOMS TK1, TK3, TK4, TK5, TK6">
    <path d="m39.439 285.51h0.38464v1.7186q0 0.45475 0.16485 0.6556 0.16485 0.19895 0.53433 0.19895 0.36759 0 0.53244-0.19895 0.16485-0.20085 0.16485-0.6556v-1.7186h0.38464v1.766q0 0.55328-0.27475 0.83561-0.27285 0.28232-0.80719 0.28232-0.53623 0-0.81098-0.28232-0.27285-0.28233-0.27285-0.83561z"/>
    <path d="m44.444 285.73v0.4036q-0.19327-0.18001-0.41307-0.26907-0.2179-0.089-0.46423-0.089-0.48507 0-0.74276 0.29748-0.25769 0.29559-0.25769 0.85645 0 0.55897 0.25769 0.85645 0.25769 0.29559 0.74276 0.29559 0.24632 0 0.46423-0.089 0.2198-0.0891 0.41307-0.26906v0.3998q-0.20085 0.13643-0.42633 0.20464-0.22359 0.0682-0.4737 0.0682-0.64234 0-1.0118-0.39222-0.36949-0.39412-0.36949-1.0744 0-0.68212 0.36949-1.0744 0.36949-0.39412 1.0118-0.39412 0.2539 0 0.47749 0.0682 0.22548 0.0663 0.42254 0.20085zm-1.1369-0.48696-0.3998-0.50402h0.26338l0.31454 0.33728 0.31454-0.33728h0.26338l-0.3998 0.50402z"/>
    <path d="m45.039 285.51h1.7887v0.32212h-1.4059v0.8375h1.3472v0.32212h-1.3472v1.0251h1.44v0.32211h-1.8228z"/>
    <path d="m47.877 286.99v1.0364h0.61392q0.30885 0 0.45665-0.12695 0.14969-0.12884 0.14969-0.39222 0-0.26527-0.14969-0.39033-0.1478-0.12695-0.45665-0.12695zm0-1.1634v0.85266h0.56655q0.28043 0 0.41686-0.10421 0.13832-0.10611 0.13832-0.32212 0-0.21411-0.13832-0.32022-0.13643-0.10611-0.41686-0.10611zm-0.38275-0.31454h0.97772q0.4377 0 0.67455 0.1819t0.23685 0.51728q0 0.25959-0.12127 0.41307t-0.35622 0.19138q0.28233 0.0606 0.4377 0.2539 0.15727 0.19137 0.15727 0.47938 0 0.37896-0.25769 0.5855-0.25769 0.20653-0.73329 0.20653h-1.0156z"/>
    <path d="m50.154 285.51h0.51539l1.2544 2.3666v-2.3666h0.37138v2.8289h-0.51539l-1.2544-2.3666v2.3666h-0.37138z"/>
    <path d="m52.669 285.51h0.41117l0.78445 1.1634 0.77876-1.1634h0.41117l-1.0005 1.4817v1.3472h-0.38464v-1.3472z"/>
    <path d="m56.273 285.51h2.3931v0.32212h-1.0042v2.5068h-0.38464v-2.5068h-1.0042z"/>
    <path d="m59.037 285.51h0.38275v1.1956l1.2695-1.1956h0.49265l-1.404 1.3188 1.5045 1.5102h-0.50402l-1.3586-1.3624v1.3624h-0.38275z"/>
    <path d="m61.684 288.02h0.62528v-2.1582l-0.68023 0.13642v-0.34864l0.67644-0.13643h0.38275v2.5068h0.62528v0.32211h-1.6295z"/>
    <path d="m64.129 287.86h0.3998v0.32591l-0.31075 0.60633h-0.24443l0.15537-0.60633z"/>
    <path d="m66.133 285.51h2.3931v0.32212h-1.0042v2.5068h-0.38464v-2.5068h-1.0042z"/>
    <path d="m68.898 285.51h0.38275v1.1956l1.2695-1.1956h0.49265l-1.404 1.3188 1.5045 1.5102h-0.50402l-1.3586-1.3624v1.3624h-0.38275z"/>
    <path d="m72.638 286.82q0.27475 0.0587 0.42822 0.24443 0.15537 0.18569 0.15537 0.45854 0 0.41875-0.28801 0.64802t-0.81855 0.22927q-0.17811 0-0.36759-0.036-0.18759-0.0341-0.38844-0.10421v-0.36949q0.15916 0.0928 0.34864 0.14021 0.18948 0.0474 0.39601 0.0474 0.36001 0 0.5476-0.14211 0.18948-0.14211 0.18948-0.41306 0-0.25012-0.17622-0.39033-0.17432-0.14211-0.48696-0.14211h-0.3297v-0.31454h0.34485q0.28233 0 0.43202-0.11179 0.14969-0.11369 0.14969-0.32591 0-0.2179-0.15537-0.33348-0.15348-0.11748-0.44149-0.11748-0.15727 0-0.33728 0.0341t-0.39601 0.10611v-0.34106q0.2179-0.0606 0.40738-0.091 0.19138-0.0303 0.36001-0.0303 0.4358 0 0.68971 0.19896 0.2539 0.19706 0.2539 0.53433 0 0.23496-0.13453 0.39791-0.13453 0.16106-0.38275 0.22359z"/>
    <path d="m73.989 287.86h0.3998v0.32591l-0.31075 0.60633h-0.24443l0.15537-0.60633z"/>
    <path d="m75.994 285.51h2.3931v0.32212h-1.0042v2.5068h-0.38464v-2.5068h-1.0042z"/>
    <path d="m78.758 285.51h0.38275v1.1956l1.2695-1.1956h0.49265l-1.404 1.3188 1.5045 1.5102h-0.50402l-1.3586-1.3624v1.3624h-0.38275z"/>
    <path d="m82.391 285.85-0.96635 1.5102h0.96635zm-0.10042-0.33349h0.48128v1.8436h0.40359v0.31833h-0.40359v0.66697h-0.38086v-0.66697h-1.2771v-0.36949z"/>
    <path d="m83.85 287.86h0.3998v0.32591l-0.31075 0.60633h-0.24443l0.15537-0.60633z"/>
    <path d="m85.854 285.51h2.3931v0.32212h-1.0042v2.5068h-0.38464v-2.5068h-1.0042z"/>
    <path d="m88.619 285.51h0.38275v1.1956l1.2695-1.1956h0.49265l-1.404 1.3188 1.5045 1.5102h-0.50402l-1.3586-1.3624v1.3624h-0.38275z"/>
    <path d="m91.203 285.51h1.5026v0.32212h-1.152v0.6935q0.08337-0.0284 0.16674-0.0417 0.08337-0.0152 0.16674-0.0152 0.4737 0 0.75034 0.25959 0.27664 0.25959 0.27664 0.70297 0 0.45665-0.28422 0.71055-0.28422 0.25201-0.8015 0.25201-0.17811 0-0.3638-0.0303-0.1838-0.0303-0.38086-0.091v-0.38464q0.17053 0.0928 0.35243 0.13832 0.1819 0.0455 0.38464 0.0455 0.3278 0 0.51918-0.17242 0.19138-0.17243 0.19138-0.46802t-0.19138-0.46801q-0.19138-0.17243-0.51918-0.17243-0.15348 0-0.30696 0.0341-0.15158 0.0341-0.31075 0.10611z"/>
    <path d="m93.71 287.86h0.3998v0.32591l-0.31075 0.60633h-0.24443l0.15537-0.60633z"/>
    <path d="m95.715 285.51h2.3931v0.32212h-1.0042v2.5068h-0.38464v-2.5068h-1.0042z"/>
    <path d="m98.48 285.51h0.38275v1.1956l1.2695-1.1956h0.49265l-1.404 1.3188 1.5045 1.5102h-0.50401l-1.3586-1.3624v1.3624h-0.38275z"/>
    <path d="m101.93 286.77q-0.25769 0-0.40927 0.17622-0.14969 0.17621-0.14969 0.48317 0 0.30506 0.14969 0.48318 0.15158 0.17621 0.40927 0.17621 0.2577 0 0.40739-0.17621 0.15158-0.17812 0.15158-0.48318 0-0.30696-0.15158-0.48317-0.14969-0.17622-0.40739-0.17622zm0.75982-1.1994v0.34864q-0.14401-0.0682-0.2918-0.10421-0.1459-0.036-0.28991-0.036-0.37896 0-0.57981 0.2558-0.19895 0.2558-0.22737 0.77308 0.11179-0.16485 0.28043-0.25201 0.16864-0.0891 0.37138-0.0891 0.42633 0 0.67266 0.25959 0.24821 0.25769 0.24821 0.70297 0 0.43581-0.25769 0.69918-0.25769 0.26338-0.68592 0.26338-0.49075 0-0.75034-0.37517-0.25959-0.37707-0.25959-1.0914 0-0.67076 0.31833-1.0687 0.31833-0.39981 0.85456-0.39981 0.144 0 0.2899 0.0284 0.1478 0.0284 0.30696 0.0853z"/>
    <g fill="#162d50">
     <path d="m41.259 291.56v0.33021q-0.15813-0.14727-0.33796-0.22014-0.17828-0.0729-0.37982-0.0729-0.39688 0-0.60771 0.24339-0.21084 0.24185-0.21084 0.70074 0 0.45733 0.21084 0.70073 0.21084 0.24185 0.60771 0.24185 0.20154 0 0.37982-0.0729 0.17983-0.0729 0.33796-0.22014v0.32711q-0.16433 0.11162-0.34882 0.16743-0.18293 0.0558-0.38757 0.0558-0.52555 0-0.82786-0.32091-0.30231-0.32246-0.30231-0.87901 0-0.55811 0.30231-0.87902 0.30231-0.32246 0.82786-0.32246 0.20774 0 0.39067 0.0558 0.18448 0.0543 0.34572 0.16433z"/>
     <path d="m41.746 291.38h0.31316v2.051h1.1271v0.26355h-1.4402z"/>
     <path d="m44.361 291.69-0.42478 1.1519h0.85111zm-0.17673-0.30851h0.35502l0.88212 2.3146h-0.32556l-0.21084-0.59377h-1.0433l-0.21084 0.59377h-0.33021z"/>
     <path d="m47.146 291.46v0.30541q-0.17828-0.0853-0.33641-0.12712-0.15813-0.0419-0.30541-0.0419-0.2558 0-0.39532 0.0992-0.13798 0.0992-0.13798 0.28215 0 0.15348 0.09147 0.23254 0.09302 0.0775 0.35037 0.12558l0.18914 0.0388q0.35037 0.0667 0.51625 0.23564 0.16743 0.16743 0.16743 0.44958 0 0.33642-0.22634 0.51005-0.22479 0.17363-0.66042 0.17363-0.16433 0-0.35037-0.0372-0.18448-0.0372-0.38292-0.11007v-0.32247q0.19069 0.10698 0.37362 0.16124 0.18294 0.0543 0.35967 0.0543 0.2682 0 0.41393-0.10542 0.14573-0.10542 0.14573-0.30076 0-0.17053-0.10542-0.26665-0.10387-0.0961-0.34262-0.14418l-0.19069-0.0372q-0.35037-0.0698-0.50694-0.21859-0.15658-0.14883-0.15658-0.41393 0-0.30695 0.21549-0.48369 0.21704-0.17673 0.59686-0.17673 0.16278 0 0.33176 0.0295 0.16898 0.0294 0.34572 0.0884z"/>
     <path d="m49.161 291.46v0.30541q-0.17828-0.0853-0.33641-0.12712-0.15813-0.0419-0.30541-0.0419-0.2558 0-0.39532 0.0992-0.13798 0.0992-0.13798 0.28215 0 0.15348 0.09147 0.23254 0.09302 0.0775 0.35037 0.12558l0.18914 0.0388q0.35037 0.0667 0.51625 0.23564 0.16743 0.16743 0.16743 0.44958 0 0.33642-0.22634 0.51005-0.22479 0.17363-0.66042 0.17363-0.16433 0-0.35037-0.0372-0.18448-0.0372-0.38292-0.11007v-0.32247q0.19069 0.10698 0.37362 0.16124 0.18294 0.0543 0.35967 0.0543 0.2682 0 0.41393-0.10542 0.14573-0.10542 0.14573-0.30076 0-0.17053-0.10542-0.26665-0.10387-0.0961-0.34262-0.14418l-0.19069-0.0372q-0.35037-0.0698-0.50695-0.21859-0.15658-0.14883-0.15658-0.41393 0-0.30695 0.21549-0.48369 0.21704-0.17673 0.59686-0.17673 0.16278 0 0.33176 0.0295 0.16898 0.0294 0.34572 0.0884z"/>
     <path d="m50.887 292.61q0.10077 0.0341 0.19534 0.14573 0.09612 0.11162 0.19224 0.30696l0.31781 0.63252h-0.33641l-0.29611-0.59377q-0.11472-0.23254-0.22324-0.30851-0.10697-0.076-0.293-0.076h-0.34106v0.97824h-0.31316v-2.3146h0.70693q0.39688 0 0.59221 0.16588 0.19534 0.16588 0.19534 0.50074 0 0.2186-0.10232 0.36277-0.10077 0.14418-0.29456 0.19999zm-0.78445-0.97203v0.82165h0.39378q0.22634 0 0.34106-0.10387 0.11627-0.10542 0.11627-0.30851 0-0.20308-0.11627-0.3054-0.11472-0.10387-0.34106-0.10387z"/>
     <path d="m52.936 291.6q-0.34106 0-0.5426 0.25425-0.19999 0.25424-0.19999 0.69298 0 0.43718 0.19999 0.69143 0.20154 0.25425 0.5426 0.25425 0.34106 0 0.5395-0.25425 0.19999-0.25425 0.19999-0.69143 0-0.43874-0.19999-0.69298-0.19844-0.25425-0.5395-0.25425zm0-0.25425q0.48679 0 0.77825 0.32711 0.29146 0.32556 0.29146 0.87437 0 0.54725-0.29146 0.87436-0.29146 0.32556-0.77825 0.32556-0.48834 0-0.78135-0.32556-0.29146-0.32556-0.29146-0.87436 0-0.54881 0.29146-0.87437 0.293-0.32711 0.78135-0.32711z"/>
     <path d="m55.435 291.6q-0.34106 0-0.5426 0.25425-0.19999 0.25424-0.19999 0.69298 0 0.43718 0.19999 0.69143 0.20154 0.25425 0.5426 0.25425 0.34106 0 0.5395-0.25425 0.19999-0.25425 0.19999-0.69143 0-0.43874-0.19999-0.69298-0.19844-0.25425-0.5395-0.25425zm0-0.25425q0.48679 0 0.77825 0.32711 0.29146 0.32556 0.29146 0.87437 0 0.54725-0.29146 0.87436-0.29146 0.32556-0.77825 0.32556-0.48834 0-0.78135-0.32556-0.29146-0.32556-0.29146-0.87436 0-0.54881 0.29146-0.87437 0.293-0.32711 0.78135-0.32711z"/>
     <path d="m56.995 291.38h0.46664l0.59066 1.5751 0.59376-1.5751h0.46664v2.3146h-0.30541v-2.0324l-0.59686 1.5875h-0.31471l-0.59686-1.5875v2.0324h-0.30386z"/>
     <path d="m61.123 291.46v0.30541q-0.17828-0.0853-0.33641-0.12712-0.15813-0.0419-0.30541-0.0419-0.2558 0-0.39532 0.0992-0.13798 0.0992-0.13798 0.28215 0 0.15348 0.09147 0.23254 0.09302 0.0775 0.35037 0.12558l0.18914 0.0388q0.35037 0.0667 0.51625 0.23564 0.16743 0.16743 0.16743 0.44958 0 0.33642-0.22634 0.51005-0.22479 0.17363-0.66042 0.17363-0.16433 0-0.35037-0.0372-0.18448-0.0372-0.38292-0.11007v-0.32247q0.19069 0.10698 0.37362 0.16124 0.18294 0.0543 0.35967 0.0543 0.2682 0 0.41393-0.10542 0.14573-0.10542 0.14573-0.30076 0-0.17053-0.10542-0.26665-0.10387-0.0961-0.34262-0.14418l-0.19069-0.0372q-0.35037-0.0698-0.50695-0.21859-0.15658-0.14883-0.15658-0.41393 0-0.30695 0.21549-0.48369 0.21704-0.17673 0.59686-0.17673 0.16278 0 0.33176 0.0295 0.16898 0.0294 0.34572 0.0884z"/>
     <path d="m62.441 291.38h1.958v0.26355h-0.82166v2.051h-0.31471v-2.051h-0.82166z"/>
     <path d="m64.703 291.38h0.31316v0.97823l1.0387-0.97823h0.40308l-1.1488 1.079 1.2309 1.2356h-0.41238l-1.1116-1.1147v1.1147h-0.31316z"/>
     <path d="m66.869 293.43h0.5116v-1.7658l-0.55656 0.11162v-0.28525l0.55345-0.11162h0.31316v2.051h0.5116v0.26355h-1.3333z"/>
     <path d="m68.868 293.3h0.32711v0.26665l-0.25425 0.49609h-0.19999l0.12712-0.49609z"/>
     <path d="m70.509 291.38h1.958v0.26355h-0.82166v2.051h-0.31471v-2.051h-0.82166z"/>
     <path d="m72.771 291.38h0.31316v0.97823l1.0387-0.97823h0.40308l-1.1488 1.079 1.2309 1.2356h-0.41238l-1.1116-1.1147v1.1147h-0.31316z"/>
     <path d="m75.831 292.45q0.22479 0.0481 0.35037 0.19999 0.12712 0.15193 0.12712 0.37517 0 0.34261-0.23564 0.5302-0.23564 0.18758-0.66973 0.18758-0.14573 0-0.30076-0.0294-0.15348-0.0279-0.31781-0.0853v-0.30231q0.13022 0.076 0.28525 0.11473 0.15503 0.0387 0.32401 0.0387 0.29456 0 0.44804-0.11627 0.15503-0.11627 0.15503-0.33796 0-0.20464-0.14418-0.31936-0.14263-0.11627-0.39843-0.11627h-0.26975v-0.25735h0.28215q0.23099 0 0.35347-0.0915 0.12247-0.093 0.12247-0.26665 0-0.17828-0.12712-0.27285-0.12557-0.0961-0.36122-0.0961-0.12867 0-0.27595 0.0279t-0.32401 0.0868v-0.27905q0.17828-0.0496 0.33331-0.0744 0.15658-0.0248 0.29456-0.0248 0.35657 0 0.56431 0.16278 0.20774 0.16123 0.20774 0.43718 0 0.19224-0.11007 0.32556-0.11007 0.13178-0.31316 0.18294z"/>
     <path d="m76.936 293.3h0.32711v0.26665l-0.25425 0.49609h-0.19999l0.12712-0.49609z"/>
     <path d="m78.576 291.38h1.958v0.26355h-0.82166v2.051h-0.31471v-2.051h-0.82166z"/>
     <path d="m80.838 291.38h0.31316v0.97823l1.0387-0.97823h0.40308l-1.1488 1.079 1.2309 1.2356h-0.41238l-1.1116-1.1147v1.1147h-0.31316z"/>
     <path d="m83.81 291.66-0.79065 1.2356h0.79065zm-0.08217-0.27285h0.39378v1.5084h0.33021v0.26045h-0.33021v0.54571h-0.31161v-0.54571h-1.0449v-0.30231z"/>
     <path d="m85.004 293.3h0.32711v0.26665l-0.25425 0.49609h-0.19999l0.12712-0.49609z"/>
     <path d="m86.644 291.38h1.958v0.26355h-0.82166v2.051h-0.31471v-2.051h-0.82166z"/>
     <path d="m88.906 291.38h0.31316v0.97823l1.0387-0.97823h0.40308l-1.1488 1.079 1.2309 1.2356h-0.41238l-1.1116-1.1147v1.1147h-0.31316z"/>
     <path d="m91.021 291.38h1.2294v0.26355h-0.94258v0.5674q0.06821-0.0233 0.13642-0.0341 0.06821-0.0124 0.13643-0.0124 0.38757 0 0.61392 0.21239t0.22634 0.57515q0 0.37363-0.23254 0.58136-0.23254 0.20619-0.65577 0.20619-0.14573 0-0.29766-0.0248-0.15038-0.0248-0.31161-0.0744v-0.3147q0.13953 0.076 0.28836 0.11317 0.14883 0.0372 0.31471 0.0372 0.2682 0 0.42478-0.14107 0.15658-0.14108 0.15658-0.38293 0-0.24184-0.15658-0.38292-0.15658-0.14107-0.42478-0.14107-0.12557 0-0.25115 0.0279-0.12402 0.0279-0.25425 0.0868z"/>
     <path d="m93.072 293.3h0.32711v0.26665l-0.25425 0.49609h-0.19999l0.12712-0.49609z"/>
     <path d="m94.712 291.38h1.958v0.26355h-0.82166v2.051h-0.31471v-2.051h-0.82166z"/>
     <path d="m96.974 291.38h0.31316v0.97823l1.0387-0.97823h0.40308l-1.1488 1.079 1.2309 1.2356h-0.41238l-1.1116-1.1147v1.1147h-0.31316z"/>
     <path d="m99.794 292.42q-0.21084 0-0.33486 0.14418-0.12247 0.14418-0.12247 0.39532 0 0.2496 0.12247 0.39533 0.12402 0.14418 0.33486 0.14418 0.21084 0 0.33331-0.14418 0.12402-0.14573 0.12402-0.39533 0-0.25114-0.12402-0.39532-0.12247-0.14418-0.33331-0.14418zm0.62166-0.98133v0.28525q-0.11782-0.0558-0.23874-0.0853-0.11937-0.0295-0.2372-0.0295-0.31006 0-0.47439 0.20929-0.16278 0.20929-0.18604 0.63252 0.09147-0.13488 0.22944-0.20619 0.13798-0.0729 0.30386-0.0729 0.34882 0 0.55035 0.21239 0.20309 0.21084 0.20309 0.57515 0 0.35657-0.21084 0.57206t-0.5612 0.21549q-0.40153 0-0.61392-0.30695-0.21239-0.30851-0.21239-0.89297 0-0.54881 0.26045-0.87437 0.26045-0.32711 0.69918-0.32711 0.11782 0 0.2372 0.0233 0.12092 0.0233 0.25114 0.0698z"/>
    </g>
   </g>
  </g>
 </g>
</svg>
